<svg xmlns="http://www.w3.org/2000/svg" width="1050" height="620" viewBox="0 0 1050 620">
  <style>
    text { font-family: Arial, Helvetica, sans-serif; fill: #17202a; }
    .title { font-size: 19px; font-weight: 700; }
    .label { font-size: 14px; font-weight: 600; }
    .small { font-size: 12px; }
    .note { font-size: 12px; fill: #5f6b72; }
  </style>
  <rect x="0" y="0" width="1050" height="620" fill="#ffffff"/>
  <text x="40" y="45" class="title">Executed PFLOTRAN 1D screening: U and sulfate profiles after 25 years</text>
  <rect x="115" y="90" width="730" height="410" fill="#f8fbfd" stroke="#34495e" stroke-width="1.8"/>
  <line x1="115.0" y1="90" x2="115.0" y2="500" stroke="#d7dee2" stroke-width="1"/>
  <text x="107.0" y="528" class="small">0</text>
  <line x1="297.5" y1="90" x2="297.5" y2="500" stroke="#d7dee2" stroke-width="1"/>
  <text x="289.5" y="528" class="small">25</text>
  <line x1="480.0" y1="90" x2="480.0" y2="500" stroke="#d7dee2" stroke-width="1"/>
  <text x="472.0" y="528" class="small">50</text>
  <line x1="662.5" y1="90" x2="662.5" y2="500" stroke="#d7dee2" stroke-width="1"/>
  <text x="654.5" y="528" class="small">75</text>
  <line x1="845.0" y1="90" x2="845.0" y2="500" stroke="#d7dee2" stroke-width="1"/>
  <text x="837.0" y="528" class="small">100</text>
  <line x1="115" y1="500.0" x2="845" y2="500.0" stroke="#d7dee2" stroke-width="1"/>
  <text x="40" y="504.0" class="small">1.0e-09</text>
  <line x1="115" y1="295.0" x2="845" y2="295.0" stroke="#d7dee2" stroke-width="1"/>
  <text x="40" y="299.0" class="small">3.2e-06</text>
  <line x1="115" y1="90.0" x2="845" y2="90.0" stroke="#d7dee2" stroke-width="1"/>
  <text x="40" y="94.0" class="small">1.0e-02</text>
  <text x="400" y="565" class="label">Distance from source boundary (m)</text>
  <text x="38" y="340" class="label" transform="rotate(-90 38,340)">Concentration (M)</text>
  <polyline points="118.7,324.3 126.0,324.3 133.2,324.3 140.6,324.3 147.8,324.3 155.2,324.3 162.4,324.3 169.8,324.3 177.1,324.3 184.3,324.3 191.6,324.3 198.9,324.3 206.2,324.3 213.6,324.3 220.8,324.3 228.2,324.3 235.4,324.3 242.8,324.3 250.1,324.3 257.4,324.3 264.6,324.3 271.9,324.3 279.2,324.3 286.5,324.3 293.9,324.3 301.1,324.3 308.5,324.3 315.8,324.3 323.0,324.3 330.4,324.3 337.6,324.3 344.9,324.3 352.2,324.3 359.6,324.3 366.9,324.3 374.1,324.3 381.4,324.3 388.8,324.3 396.1,324.3 403.4,324.3 410.7,324.3 417.9,324.3 425.2,324.3 432.6,324.3 439.9,324.3 447.2,324.3 454.5,324.3 461.8,324.3 469.1,324.3 476.4,324.3 483.6,324.3 490.9,324.3 498.2,324.3 505.6,324.3 512.9,324.3 520.2,324.3 527.5,324.3 534.8,324.3 542.0,324.3 549.3,324.3 556.6,324.3 564.0,324.3 571.2,324.3 578.5,324.3 585.9,324.4 593.2,324.4 600.5,324.4 607.8,324.4 615.0,324.5 622.3,324.5 629.6,324.6 636.9,324.7 644.2,324.8 651.5,324.9 658.9,325.0 666.1,325.2 673.5,325.3 680.8,325.5 688.1,325.8 695.4,326.0 702.7,326.3 709.9,326.7 717.2,327.0 724.5,327.5 731.9,327.9 739.1,328.4 746.5,329.0 753.8,329.6 761.0,330.3 768.4,331.0 775.6,331.8 783.0,332.6 790.2,333.5 797.6,334.5 804.8,335.6 812.1,336.7 819.4,337.9 826.8,339.1 834.0,340.5 841.4,341.8" fill="none" stroke="#2f80b7" stroke-width="3"/>
  <line x1="870" y1="118" x2="920" y2="118" stroke="#2f80b7" stroke-width="4"/>
  <text x="930" y="123" class="small">U calcite</text>
  <polyline points="118.7,324.3 126.0,324.3 133.2,324.3 140.6,324.3 147.8,324.3 155.2,324.3 162.4,324.3 169.8,324.3 177.1,324.3 184.3,324.3 191.6,324.3 198.9,324.3 206.2,324.3 213.6,324.3 220.8,324.3 228.2,324.3 235.4,324.3 242.8,324.3 250.1,324.3 257.4,324.3 264.6,324.3 271.9,324.3 279.2,324.3 286.5,324.3 293.9,324.3 301.1,324.3 308.5,324.3 315.8,324.3 323.0,324.3 330.4,324.3 337.6,324.3 344.9,324.3 352.2,324.3 359.6,324.3 366.9,324.3 374.1,324.3 381.4,324.3 388.8,324.3 396.1,324.3 403.4,324.3 410.7,324.3 417.9,324.3 425.2,324.3 432.6,324.3 439.9,324.3 447.2,324.3 454.5,324.3 461.8,324.3 469.1,324.3 476.4,324.3 483.6,324.3 490.9,324.3 498.2,324.3 505.6,324.3 512.9,324.3 520.2,324.3 527.5,324.3 534.8,324.3 542.0,324.3 549.3,324.3 556.6,324.3 564.0,324.3 571.2,324.3 578.5,324.3 585.9,324.3 593.2,324.4 600.5,324.4 607.8,324.4 615.0,324.4 622.3,324.5 629.6,324.5 636.9,324.6 644.2,324.7 651.5,324.8 658.9,324.9 666.1,325.0 673.5,325.2 680.8,325.3 688.1,325.5 695.4,325.8 702.7,326.1 709.9,326.4 717.2,326.7 724.5,327.1 731.9,327.6 739.1,328.1 746.5,328.6 753.8,329.2 761.0,329.9 768.4,330.6 775.6,331.4 783.0,332.3 790.2,333.2 797.6,334.2 804.8,335.3 812.1,336.4 819.4,337.6 826.8,338.9 834.0,340.3 841.4,341.8" fill="none" stroke="#c0392b" stroke-width="3"/>
  <line x1="870" y1="150" x2="920" y2="150" stroke="#c0392b" stroke-width="4"/>
  <text x="930" y="155" class="small">U no calcite</text>
  <polyline points="118.7,107.6 126.0,107.6 133.2,107.6 140.6,107.6 147.8,107.6 155.2,107.6 162.4,107.6 169.8,107.6 177.1,107.6 184.3,107.6 191.6,107.6 198.9,107.6 206.2,107.6 213.6,107.6 220.8,107.6 228.2,107.6 235.4,107.6 242.8,107.6 250.1,107.6 257.4,107.6 264.6,107.6 271.9,107.6 279.2,107.6 286.5,107.6 293.9,107.6 301.1,107.6 308.5,107.6 315.8,107.6 323.0,107.6 330.4,107.6 337.6,107.6 344.9,107.6 352.2,107.6 359.6,107.6 366.9,107.6 374.1,107.6 381.4,107.6 388.8,107.6 396.1,107.6 403.4,107.6 410.7,107.6 417.9,107.6 425.2,107.6 432.6,107.6 439.9,107.6 447.2,107.6 454.5,107.6 461.8,107.6 469.1,107.6 476.4,107.6 483.6,107.6 490.9,107.6 498.2,107.6 505.6,107.6 512.9,107.6 520.2,107.6 527.5,107.6 534.8,107.6 542.0,107.6 549.3,107.6 556.6,107.7 564.0,107.7 571.2,107.7 578.5,107.7 585.9,107.7 593.2,107.7 600.5,107.8 607.8,107.8 615.0,107.8 622.3,107.9 629.6,107.9 636.9,108.0 644.2,108.1 651.5,108.2 658.9,108.3 666.1,108.5 673.5,108.7 680.8,108.9 688.1,109.1 695.4,109.3 702.7,109.6 709.9,110.0 717.2,110.3 724.5,110.7 731.9,111.2 739.1,111.7 746.5,112.2 753.8,112.8 761.0,113.5 768.4,114.2 775.6,115.0 783.0,115.8 790.2,116.7 797.6,117.6 804.8,118.6 812.1,119.7 819.4,120.9 826.8,122.1 834.0,123.4 841.4,124.7" fill="none" stroke="#2f80b7" stroke-width="3" stroke-dasharray="8 6"/>
  <line x1="870" y1="182" x2="920" y2="182" stroke="#2f80b7" stroke-width="4" stroke-dasharray="8 6"/>
  <text x="930" y="187" class="small">SO4 calcite</text>
  <polyline points="118.7,107.6 126.0,107.6 133.2,107.6 140.6,107.6 147.8,107.6 155.2,107.6 162.4,107.6 169.8,107.6 177.1,107.6 184.3,107.6 191.6,107.6 198.9,107.6 206.2,107.6 213.6,107.6 220.8,107.6 228.2,107.6 235.4,107.6 242.8,107.6 250.1,107.6 257.4,107.6 264.6,107.6 271.9,107.6 279.2,107.6 286.5,107.6 293.9,107.6 301.1,107.6 308.5,107.6 315.8,107.6 323.0,107.6 330.4,107.6 337.6,107.6 344.9,107.6 352.2,107.6 359.6,107.6 366.9,107.6 374.1,107.6 381.4,107.6 388.8,107.6 396.1,107.6 403.4,107.6 410.7,107.6 417.9,107.6 425.2,107.6 432.6,107.6 439.9,107.6 447.2,107.6 454.5,107.6 461.8,107.6 469.1,107.6 476.4,107.6 483.6,107.6 490.9,107.6 498.2,107.6 505.6,107.6 512.9,107.6 520.2,107.6 527.5,107.6 534.8,107.6 542.0,107.6 549.3,107.6 556.6,107.6 564.0,107.7 571.2,107.7 578.5,107.7 585.9,107.7 593.2,107.7 600.5,107.7 607.8,107.7 615.0,107.8 622.3,107.8 629.6,107.9 636.9,107.9 644.2,108.0 651.5,108.1 658.9,108.2 666.1,108.3 673.5,108.5 680.8,108.7 688.1,108.9 695.4,109.1 702.7,109.4 709.9,109.7 717.2,110.0 724.5,110.4 731.9,110.9 739.1,111.3 746.5,111.9 753.8,112.5 761.0,113.1 768.4,113.8 775.6,114.6 783.0,115.4 790.2,116.3 797.6,117.3 804.8,118.4 812.1,119.5 819.4,120.7 826.8,121.9 834.0,123.2 841.4,124.6" fill="none" stroke="#c0392b" stroke-width="3" stroke-dasharray="8 6"/>
  <line x1="870" y1="214" x2="920" y2="214" stroke="#c0392b" stroke-width="4" stroke-dasharray="8 6"/>
  <text x="930" y="219" class="small">SO4 no calcite</text>
  <text x="40" y="590" class="note">Executed PFLOTRAN 1D synthetic screening output at 25 years; not calibrated site prediction.</text>
</svg>
