<svg xmlns="http://www.w3.org/2000/svg" width="950" height="620" viewBox="0 0 950 620">
  <style>
    text { font-family: Arial, Helvetica, sans-serif; fill: #17202a; }
    .small { font-size: 13px; }
    .label { font-size: 15px; font-weight: 600; }
    .title { font-size: 19px; font-weight: 700; }
    .caveat { font-size: 12px; fill: #5f6b72; }
  </style>
  <rect x="0" y="0" width="950" height="620" fill="#ffffff"/>
  <text x="40" y="45" class="title">Breakthrough-screening curves under assumed retardation factors</text>
  <rect x="110" y="90" width="700" height="410" fill="#f8fbfd" stroke="#34495e" stroke-width="1.8"/>
  <line x1="110" y1="397.5" x2="810" y2="397.5" stroke="#d7dee2" stroke-width="1"/>
  <text x="65" y="402.5" class="small">0.25</text>
  <line x1="110" y1="295.0" x2="810" y2="295.0" stroke="#d7dee2" stroke-width="1"/>
  <text x="65" y="300.0" class="small">0.5</text>
  <line x1="110" y1="192.5" x2="810" y2="192.5" stroke="#d7dee2" stroke-width="1"/>
  <text x="65" y="197.5" class="small">0.75</text>
  <line x1="285.0" y1="90" x2="285.0" y2="500" stroke="#d7dee2" stroke-width="1"/>
  <text x="280.0" y="528" class="small">1</text>
  <line x1="460.0" y1="90" x2="460.0" y2="500" stroke="#d7dee2" stroke-width="1"/>
  <text x="455.0" y="528" class="small">2</text>
  <line x1="635.0" y1="90" x2="635.0" y2="500" stroke="#d7dee2" stroke-width="1"/>
  <text x="630.0" y="528" class="small">3</text>
  <line x1="810.0" y1="90" x2="810.0" y2="500" stroke="#d7dee2" stroke-width="1"/>
  <text x="805.0" y="528" class="small">4</text>
  <text x="355" y="565" class="label">Pore volumes / conservative travel-time units</text>
  <text x="40" y="340" class="label" transform="rotate(-90 40,340)">Normalized concentration</text>
  <polyline points="110.0,497.3 117.0,496.7 124.0,495.9 131.0,495.0 138.0,493.9 145.0,492.6 152.0,491.0 159.0,489.1 166.0,486.8 173.0,483.9 180.0,480.6 187.0,476.5 194.0,471.7 201.0,465.9 208.0,459.1 215.0,451.1 222.0,441.8 229.0,431.1 236.0,418.9 243.0,405.1 250.0,389.7 257.0,372.9 264.0,354.7 271.0,335.5 278.0,315.4 285.0,295.0 292.0,274.6 299.0,254.5 306.0,235.3 313.0,217.1 320.0,200.3 327.0,184.9 334.0,171.1 341.0,158.9 348.0,148.2 355.0,138.9 362.0,130.9 369.0,124.1 376.0,118.3 383.0,113.5 390.0,109.4 397.0,106.1 404.0,103.2 411.0,100.9 418.0,99.0 425.0,97.4 432.0,96.1 439.0,95.0 446.0,94.1 453.0,93.3 460.0,92.7 467.0,92.2 474.0,91.8 481.0,91.5 488.0,91.2 495.0,91.0 502.0,90.8 509.0,90.7 516.0,90.6 523.0,90.5 530.0,90.4 537.0,90.3 544.0,90.3 551.0,90.2 558.0,90.2 565.0,90.1 572.0,90.1 579.0,90.1 586.0,90.1 593.0,90.1 600.0,90.1 607.0,90.0 614.0,90.0 621.0,90.0 628.0,90.0 635.0,90.0 642.0,90.0 649.0,90.0 656.0,90.0 663.0,90.0 670.0,90.0 677.0,90.0 684.0,90.0 691.0,90.0 698.0,90.0 705.0,90.0 712.0,90.0 719.0,90.0 726.0,90.0 733.0,90.0 740.0,90.0 747.0,90.0 754.0,90.0 761.0,90.0 768.0,90.0 775.0,90.0 782.0,90.0 789.0,90.0 796.0,90.0 803.0,90.0 810.0,90.0" fill="none" stroke="#2f80b7" stroke-width="3"/>
  <polyline points="110.0,500.0 117.0,500.0 124.0,500.0 131.0,500.0 138.0,500.0 145.0,499.9 152.0,499.9 159.0,499.9 166.0,499.9 173.0,499.9 180.0,499.9 187.0,499.8 194.0,499.8 201.0,499.7 208.0,499.7 215.0,499.6 222.0,499.5 229.0,499.4 236.0,499.3 243.0,499.2 250.0,499.0 257.0,498.8 264.0,498.5 271.0,498.2 278.0,497.8 285.0,497.3 292.0,496.7 299.0,495.9 306.0,495.0 313.0,493.9 320.0,492.6 327.0,491.0 334.0,489.1 341.0,486.8 348.0,483.9 355.0,480.6 362.0,476.5 369.0,471.7 376.0,465.9 383.0,459.1 390.0,451.1 397.0,441.8 404.0,431.1 411.0,418.9 418.0,405.1 425.0,389.7 432.0,372.9 439.0,354.7 446.0,335.5 453.0,315.4 460.0,295.0 467.0,274.6 474.0,254.5 481.0,235.3 488.0,217.1 495.0,200.3 502.0,184.9 509.0,171.1 516.0,158.9 523.0,148.2 530.0,138.9 537.0,130.9 544.0,124.1 551.0,118.3 558.0,113.5 565.0,109.4 572.0,106.1 579.0,103.2 586.0,100.9 593.0,99.0 600.0,97.4 607.0,96.1 614.0,95.0 621.0,94.1 628.0,93.3 635.0,92.7 642.0,92.2 649.0,91.8 656.0,91.5 663.0,91.2 670.0,91.0 677.0,90.8 684.0,90.7 691.0,90.6 698.0,90.5 705.0,90.4 712.0,90.3 719.0,90.3 726.0,90.2 733.0,90.2 740.0,90.1 747.0,90.1 754.0,90.1 761.0,90.1 768.0,90.1 775.0,90.1 782.0,90.0 789.0,90.0 796.0,90.0 803.0,90.0 810.0,90.0" fill="none" stroke="#3a8b4f" stroke-width="3"/>
  <polyline points="110.0,500.0 117.0,500.0 124.0,500.0 131.0,500.0 138.0,500.0 145.0,500.0 152.0,500.0 159.0,500.0 166.0,500.0 173.0,500.0 180.0,500.0 187.0,500.0 194.0,500.0 201.0,500.0 208.0,500.0 215.0,500.0 222.0,500.0 229.0,500.0 236.0,500.0 243.0,500.0 250.0,500.0 257.0,500.0 264.0,500.0 271.0,500.0 278.0,500.0 285.0,500.0 292.0,500.0 299.0,500.0 306.0,500.0 313.0,500.0 320.0,500.0 327.0,500.0 334.0,500.0 341.0,500.0 348.0,500.0 355.0,500.0 362.0,500.0 369.0,500.0 376.0,500.0 383.0,500.0 390.0,500.0 397.0,500.0 404.0,500.0 411.0,500.0 418.0,500.0 425.0,500.0 432.0,500.0 439.0,500.0 446.0,500.0 453.0,500.0 460.0,500.0 467.0,500.0 474.0,500.0 481.0,500.0 488.0,500.0 495.0,500.0 502.0,500.0 509.0,500.0 516.0,500.0 523.0,500.0 530.0,500.0 537.0,500.0 544.0,500.0 551.0,500.0 558.0,500.0 565.0,500.0 572.0,500.0 579.0,500.0 586.0,500.0 593.0,500.0 600.0,500.0 607.0,500.0 614.0,500.0 621.0,500.0 628.0,500.0 635.0,500.0 642.0,500.0 649.0,500.0 656.0,500.0 663.0,500.0 670.0,499.9 677.0,499.9 684.0,499.9 691.0,499.9 698.0,499.9 705.0,499.9 712.0,499.8 719.0,499.8 726.0,499.7 733.0,499.7 740.0,499.6 747.0,499.5 754.0,499.4 761.0,499.3 768.0,499.2 775.0,499.0 782.0,498.8 789.0,498.5 796.0,498.2 803.0,497.8 810.0,497.3" fill="none" stroke="#d35400" stroke-width="3"/>
  <polyline points="110.0,500.0 117.0,500.0 124.0,500.0 131.0,500.0 138.0,500.0 145.0,500.0 152.0,500.0 159.0,500.0 166.0,500.0 173.0,500.0 180.0,500.0 187.0,500.0 194.0,500.0 201.0,500.0 208.0,500.0 215.0,500.0 222.0,500.0 229.0,500.0 236.0,500.0 243.0,500.0 250.0,500.0 257.0,500.0 264.0,500.0 271.0,500.0 278.0,500.0 285.0,500.0 292.0,500.0 299.0,500.0 306.0,500.0 313.0,500.0 320.0,500.0 327.0,500.0 334.0,500.0 341.0,500.0 348.0,500.0 355.0,500.0 362.0,500.0 369.0,500.0 376.0,500.0 383.0,500.0 390.0,500.0 397.0,500.0 404.0,500.0 411.0,500.0 418.0,500.0 425.0,500.0 432.0,500.0 439.0,500.0 446.0,500.0 453.0,500.0 460.0,500.0 467.0,500.0 474.0,500.0 481.0,500.0 488.0,500.0 495.0,500.0 502.0,500.0 509.0,500.0 516.0,500.0 523.0,500.0 530.0,500.0 537.0,500.0 544.0,500.0 551.0,500.0 558.0,500.0 565.0,500.0 572.0,500.0 579.0,500.0 586.0,500.0 593.0,500.0 600.0,500.0 607.0,500.0 614.0,500.0 621.0,500.0 628.0,500.0 635.0,500.0 642.0,500.0 649.0,500.0 656.0,500.0 663.0,500.0 670.0,500.0 677.0,500.0 684.0,500.0 691.0,500.0 698.0,500.0 705.0,500.0 712.0,500.0 719.0,500.0 726.0,500.0 733.0,500.0 740.0,500.0 747.0,500.0 754.0,500.0 761.0,500.0 768.0,500.0 775.0,500.0 782.0,500.0 789.0,500.0 796.0,500.0 803.0,500.0 810.0,500.0" fill="none" stroke="#8e44ad" stroke-width="3"/>
  <line x1="835" y1="125" x2="885" y2="125" stroke="#2f80b7" stroke-width="4"/>
  <text x="895" y="130" class="small">Conservative tracer R=1</text>
  <line x1="835" y1="159" x2="885" y2="159" stroke="#3a8b4f" stroke-width="4"/>
  <text x="895" y="164" class="small">Weak sorption R=2</text>
  <line x1="835" y1="193" x2="885" y2="193" stroke="#d35400" stroke-width="4"/>
  <text x="895" y="198" class="small">Moderate sorption R=5</text>
  <line x1="835" y1="227" x2="885" y2="227" stroke="#8e44ad" stroke-width="4"/>
  <text x="895" y="232" class="small">Strong sorption R=15</text>
  <text x="40" y="590" class="caveat">Curves are analytic screening functions showing how retardation delays fronts; they are not PFLOTRAN observations or fitted well data.</text>
</svg>
