<svg xmlns="http://www.w3.org/2000/svg" width="1050" height="620" viewBox="0 0 1050 620">
  <style>
    text { font-family: Arial, Helvetica, sans-serif; fill: #17202a; }
    .title { font-size: 19px; font-weight: 700; }
    .label { font-size: 14px; font-weight: 600; }
    .small { font-size: 12px; }
    .note { font-size: 12px; fill: #5f6b72; }
  </style>
  <rect x="0" y="0" width="1050" height="620" fill="#ffffff"/>
  <text x="40" y="45" class="title">Executed PFLOTRAN 1D screening: pH profiles after 25 years</text>
  <rect x="115" y="90" width="730" height="410" fill="#f8fbfd" stroke="#34495e" stroke-width="1.8"/>
  <line x1="115.0" y1="90" x2="115.0" y2="500" stroke="#d7dee2" stroke-width="1"/>
  <text x="107.0" y="528" class="small">0</text>
  <line x1="297.5" y1="90" x2="297.5" y2="500" stroke="#d7dee2" stroke-width="1"/>
  <text x="289.5" y="528" class="small">25</text>
  <line x1="480.0" y1="90" x2="480.0" y2="500" stroke="#d7dee2" stroke-width="1"/>
  <text x="472.0" y="528" class="small">50</text>
  <line x1="662.5" y1="90" x2="662.5" y2="500" stroke="#d7dee2" stroke-width="1"/>
  <text x="654.5" y="528" class="small">75</text>
  <line x1="845.0" y1="90" x2="845.0" y2="500" stroke="#d7dee2" stroke-width="1"/>
  <text x="837.0" y="528" class="small">100</text>
  <line x1="115" y1="500.0" x2="845" y2="500.0" stroke="#d7dee2" stroke-width="1"/>
  <text x="40" y="504.0" class="small">2.8</text>
  <line x1="115" y1="295.0" x2="845" y2="295.0" stroke="#d7dee2" stroke-width="1"/>
  <text x="40" y="299.0" class="small">5.55</text>
  <line x1="115" y1="90.0" x2="845" y2="90.0" stroke="#d7dee2" stroke-width="1"/>
  <text x="40" y="94.0" class="small">8.3</text>
  <text x="400" y="565" class="label">Distance from source boundary (m)</text>
  <text x="38" y="340" class="label" transform="rotate(-90 38,340)">pH</text>
  <polyline points="118.7,467.0 126.0,104.4 133.2,103.6 140.6,103.6 147.8,103.6 155.2,103.6 162.4,103.6 169.8,103.6 177.1,103.6 184.3,103.6 191.6,103.6 198.9,103.6 206.2,103.6 213.6,103.6 220.8,103.6 228.2,103.6 235.4,103.6 242.8,103.6 250.1,103.6 257.4,103.6 264.6,103.6 271.9,103.6 279.2,103.6 286.5,103.6 293.9,103.6 301.1,103.6 308.5,103.6 315.8,103.6 323.0,103.6 330.4,103.6 337.6,103.6 344.9,103.6 352.2,103.6 359.6,103.6 366.9,103.6 374.1,103.6 381.4,103.6 388.8,103.6 396.1,103.6 403.4,103.6 410.7,103.6 417.9,103.6 425.2,103.6 432.6,103.6 439.9,103.6 447.2,103.6 454.5,103.6 461.8,103.6 469.1,103.6 476.4,103.6 483.6,103.6 490.9,103.6 498.2,103.6 505.6,103.6 512.9,103.6 520.2,103.6 527.5,103.6 534.8,103.6 542.0,103.6 549.3,103.6 556.6,103.6 564.0,103.6 571.2,103.6 578.5,103.6 585.9,103.6 593.2,103.6 600.5,103.6 607.8,103.6 615.0,103.6 622.3,103.6 629.6,103.6 636.9,103.6 644.2,103.7 651.5,103.7 658.9,103.7 666.1,103.7 673.5,103.8 680.8,103.8 688.1,103.8 695.4,103.9 702.7,103.9 709.9,104.0 717.2,104.1 724.5,104.1 731.9,104.2 739.1,104.3 746.5,104.4 753.8,104.5 761.0,104.6 768.4,104.7 775.6,104.9 783.0,105.0 790.2,105.2 797.6,105.3 804.8,105.5 812.1,105.7 819.4,105.9 826.8,106.1 834.0,106.3 841.4,106.5" fill="none" stroke="#2f80b7" stroke-width="3"/>
  <line x1="870" y1="118" x2="920" y2="118" stroke="#2f80b7" stroke-width="4"/>
  <text x="930" y="123" class="small">Calcite buffered</text>
  <polyline points="118.7,485.1 126.0,485.1 133.2,485.1 140.6,485.1 147.8,485.1 155.2,485.1 162.4,485.1 169.8,485.1 177.1,485.1 184.3,485.1 191.6,485.1 198.9,485.1 206.2,485.1 213.6,485.1 220.8,485.1 228.2,485.1 235.4,485.1 242.8,485.1 250.1,485.1 257.4,485.1 264.6,485.1 271.9,485.1 279.2,485.1 286.5,485.1 293.9,485.1 301.1,485.1 308.5,485.1 315.8,485.1 323.0,485.1 330.4,485.1 337.6,485.1 344.9,485.1 352.2,485.1 359.6,485.1 366.9,485.1 374.1,485.1 381.4,485.1 388.8,485.1 396.1,485.1 403.4,485.1 410.7,485.1 417.9,485.1 425.2,485.1 432.6,485.1 439.9,485.1 447.2,485.1 454.5,485.1 461.8,485.1 469.1,485.1 476.4,485.1 483.6,485.1 490.9,485.1 498.2,485.1 505.6,485.1 512.9,485.1 520.2,485.1 527.5,485.1 534.8,485.1 542.0,485.1 549.3,485.1 556.6,485.1 564.0,485.0 571.2,485.0 578.5,485.0 585.9,485.0 593.2,484.9 600.5,484.9 607.8,484.8 615.0,484.7 622.3,484.6 629.6,484.5 636.9,484.4 644.2,484.2 651.5,483.9 658.9,483.7 666.1,483.4 673.5,483.0 680.8,482.5 688.1,482.0 695.4,481.4 702.7,480.7 709.9,479.9 717.2,479.0 724.5,477.9 731.9,476.7 739.1,475.3 746.5,473.8 753.8,472.0 761.0,470.0 768.4,467.7 775.6,465.1 783.0,462.1 790.2,458.6 797.6,454.6 804.8,449.8 812.1,444.1 819.4,436.9 826.8,427.6 834.0,414.3 841.4,392.3" fill="none" stroke="#c0392b" stroke-width="3"/>
  <line x1="870" y1="150" x2="920" y2="150" stroke="#c0392b" stroke-width="4"/>
  <text x="930" y="155" class="small">No calcite</text>
  <text x="40" y="590" class="note">Executed PFLOTRAN 1D synthetic screening output at 25 years; not calibrated site prediction.</text>
</svg>
