<svg xmlns="http://www.w3.org/2000/svg" width="700" height="390" viewBox="0 0 700 390" role="img">
<style>text{font-family:-apple-system,BlinkMacSystemFont,'Segoe UI',Arial,sans-serif;fill:#172026}.small{font-size:12px;fill:#52616a}.title{font-size:18px;font-weight:700}.axis{stroke:#172026;stroke-width:1.1}.grid{stroke:#d7e0e5;stroke-width:1}</style>
<defs><marker id='arrow' markerWidth='9' markerHeight='9' refX='8' refY='4.5' orient='auto'><path d='M0,0 L9,4.5 L0,9 z' fill='#172026'/></marker></defs>
<text x="38.0" y="34.0" font-size="19" text-anchor="start" fill="#172026" font-weight="700">Fracture-flow / matrix-diffusion / colloid-facilitated transport</text>
<rect x="55.0" y="82.0" width="590.0" height="260.0" rx="8.0" fill="#f3f6f8" stroke="#9aa6ad" stroke-width="2" opacity="1.0"/>
<rect x="82.0" y="180.0" width="536.0" height="48.0" rx="6.0" fill="#5aa6c8" stroke="#2f7896" stroke-width="2" opacity="1.0"/>
<text x="350.0" y="211.0" font-size="13" text-anchor="middle" fill="white" font-weight="700">advective water-conducting fracture</text>
<circle cx="118.0" cy="202.0" r="7.0" fill="#6f5aa7" stroke="white"/>
<circle cx="180.0" cy="210.0" r="7.0" fill="#6f5aa7" stroke="white"/>
<circle cx="244.0" cy="202.0" r="7.0" fill="#6f5aa7" stroke="white"/>
<circle cx="500.0" cy="210.0" r="7.0" fill="#6f5aa7" stroke="white"/>
<circle cx="560.0" cy="202.0" r="7.0" fill="#6f5aa7" stroke="white"/>
<text x="505.0" y="178.0" font-size="13" text-anchor="start" fill="#6f5aa7" font-weight="700">mobile colloids</text>
<line x1="615.0" y1="204.0" x2="668.0" y2="204.0" stroke="#5aa6c8" stroke-width="3" marker-end="url(#arrow)"/>
<text x="628.0" y="192.0" font-size="13" text-anchor="start" fill="#5aa6c8" font-weight="700">flow</text>
<line x1="95.0" y1="180.0" x2="71.0" y2="118.0" stroke="#5d8f3a" stroke-width="2" marker-end="url(#arrow)"/>
<line x1="95.0" y1="228.0" x2="121.0" y2="295.0" stroke="#5d8f3a" stroke-width="2" marker-end="url(#arrow)"/>
<line x1="170.0" y1="180.0" x2="146.0" y2="118.0" stroke="#5d8f3a" stroke-width="2" marker-end="url(#arrow)"/>
<line x1="170.0" y1="228.0" x2="196.0" y2="295.0" stroke="#5d8f3a" stroke-width="2" marker-end="url(#arrow)"/>
<line x1="255.0" y1="180.0" x2="231.0" y2="118.0" stroke="#5d8f3a" stroke-width="2" marker-end="url(#arrow)"/>
<line x1="255.0" y1="228.0" x2="281.0" y2="295.0" stroke="#5d8f3a" stroke-width="2" marker-end="url(#arrow)"/>
<line x1="335.0" y1="180.0" x2="311.0" y2="118.0" stroke="#5d8f3a" stroke-width="2" marker-end="url(#arrow)"/>
<line x1="335.0" y1="228.0" x2="361.0" y2="295.0" stroke="#5d8f3a" stroke-width="2" marker-end="url(#arrow)"/>
<line x1="420.0" y1="180.0" x2="396.0" y2="118.0" stroke="#5d8f3a" stroke-width="2" marker-end="url(#arrow)"/>
<line x1="420.0" y1="228.0" x2="446.0" y2="295.0" stroke="#5d8f3a" stroke-width="2" marker-end="url(#arrow)"/>
<line x1="510.0" y1="180.0" x2="486.0" y2="118.0" stroke="#5d8f3a" stroke-width="2" marker-end="url(#arrow)"/>
<line x1="510.0" y1="228.0" x2="536.0" y2="295.0" stroke="#5d8f3a" stroke-width="2" marker-end="url(#arrow)"/>
<line x1="600.0" y1="180.0" x2="576.0" y2="118.0" stroke="#5d8f3a" stroke-width="2" marker-end="url(#arrow)"/>
<line x1="600.0" y1="228.0" x2="626.0" y2="295.0" stroke="#5d8f3a" stroke-width="2" marker-end="url(#arrow)"/>
<text x="75.0" y="111.0" font-size="13" text-anchor="start" fill="#5d8f3a" font-weight="700">matrix diffusion + sorption</text>
<text x="365.0" y="305.0" font-size="13" text-anchor="start" fill="#5d8f3a" font-weight="700">altered fracture rim / grain-boundary pores</text>
<rect x="70.0" y="126.0" width="84.0" height="32.0" rx="12.0" fill="#c8a45d" stroke="#53616a" stroke-width="1.0" opacity="1.0"/>
<text x="112.0" y="147.0" font-size="11" text-anchor="middle" fill="#172026" font-weight="700">biotite</text>
<rect x="193.0" y="122.0" width="84.0" height="32.0" rx="12.0" fill="#6d8f59" stroke="#53616a" stroke-width="1.0" opacity="1.0"/>
<text x="235.0" y="143.0" font-size="11" text-anchor="middle" fill="#172026" font-weight="700">chlorite</text>
<rect x="323.0" y="121.0" width="84.0" height="32.0" rx="12.0" fill="#8f5146" stroke="#53616a" stroke-width="1.0" opacity="1.0"/>
<text x="365.0" y="142.0" font-size="11" text-anchor="middle" fill="#172026" font-weight="700">Fe-Mn oxides</text>
<rect x="473.0" y="124.0" width="84.0" height="32.0" rx="12.0" fill="#d8d2ba" stroke="#53616a" stroke-width="1.0" opacity="1.0"/>
<text x="515.0" y="145.0" font-size="11" text-anchor="middle" fill="#172026" font-weight="700">calcite</text>
<rect x="163.0" y="260.0" width="84.0" height="32.0" rx="12.0" fill="#c8a45d" stroke="#53616a" stroke-width="1.0" opacity="1.0"/>
<text x="205.0" y="281.0" font-size="11" text-anchor="middle" fill="#172026" font-weight="700">clay</text>
<rect x="390.0" y="260.0" width="84.0" height="32.0" rx="12.0" fill="#596167" stroke="#53616a" stroke-width="1.0" opacity="1.0"/>
<text x="432.0" y="281.0" font-size="11" text-anchor="middle" fill="#172026" font-weight="700">magnetite</text>
<line x1="194.0" y1="201.0" x2="194.0" y2="148.0" stroke="#c94f44" stroke-width="2.2" marker-end="url(#arrow)"/>
<text x="204.0" y="153.0" font-size="13" text-anchor="start" fill="#c94f44" font-weight="700">surface sorption</text>
<line x1="518.0" y1="201.0" x2="518.0" y2="250.0" stroke="#d08b2f" stroke-width="2.2" marker-end="url(#arrow)"/>
<text x="528.0" y="258.0" font-size="13" text-anchor="start" fill="#d08b2f" font-weight="700">colloid attachment / filtration</text>
</svg>
