<svg xmlns="http://www.w3.org/2000/svg" width="690" height="420" viewBox="0 0 690 420" role="img">
<style>text{font-family:-apple-system,BlinkMacSystemFont,'Segoe UI',Arial,sans-serif;fill:#172026}.small{font-size:12px;fill:#52616a}.title{font-size:18px;font-weight:700}.axis{stroke:#172026;stroke-width:1.1}.grid{stroke:#d7e0e5;stroke-width:1}</style>
<text x="78.0" y="47.0" font-size="18" text-anchor="start" fill="#172026" font-weight="700" class="title">Fraction of RN associated with mobile colloids</text>
<line x1="78.0" y1="350.0" x2="598.0" y2="350.0" stroke="#172026" stroke-width="1.2"/>
<line x1="78.0" y1="65.0" x2="78.0" y2="350.0" stroke="#172026" stroke-width="1.2"/>
<text x="338.0" y="392.0" font-size="13" text-anchor="middle" fill="#172026" font-weight="400" class="small">colloid concentration (mg/L, log scale)</text>
<text x="24.0" y="207.5" font-size="13" text-anchor="middle" fill="#172026" font-weight="400" class="small">mobile colloid-associated fraction</text>
<line x1="78.0" y1="350.0" x2="598.0" y2="350.0" stroke="#d7e0e5" stroke-width="1"/>
<text x="70.0" y="354.0" font-size="10" text-anchor="end" fill="#172026" font-weight="400" class="small">0.00</text>
<line x1="78.0" y1="278.8" x2="598.0" y2="278.8" stroke="#d7e0e5" stroke-width="1"/>
<text x="70.0" y="282.8" font-size="10" text-anchor="end" fill="#172026" font-weight="400" class="small">0.25</text>
<line x1="78.0" y1="207.5" x2="598.0" y2="207.5" stroke="#d7e0e5" stroke-width="1"/>
<text x="70.0" y="211.5" font-size="10" text-anchor="end" fill="#172026" font-weight="400" class="small">0.50</text>
<line x1="78.0" y1="136.2" x2="598.0" y2="136.2" stroke="#d7e0e5" stroke-width="1"/>
<text x="70.0" y="140.2" font-size="10" text-anchor="end" fill="#172026" font-weight="400" class="small">0.75</text>
<line x1="78.0" y1="65.0" x2="598.0" y2="65.0" stroke="#d7e0e5" stroke-width="1"/>
<text x="70.0" y="69.0" font-size="10" text-anchor="end" fill="#172026" font-weight="400" class="small">1.00</text>
<polyline points="78.0,350.0 182.0,350.0 286.0,350.0 390.0,350.0 494.0,349.7 598.0,347.2" fill="none" stroke="#5d8f3a" stroke-width="2.5"/>
<text x="410.0" y="345.9" font-size="12" text-anchor="start" fill="#5d8f3a" font-weight="700">Kcol=1e+02 L/kg</text>
<polyline points="78.0,350.0 182.0,350.0 286.0,349.7 390.0,347.2 494.0,324.1 598.0,207.5" fill="none" stroke="#1f6f9f" stroke-width="2.5"/>
<text x="410.0" y="337.7" font-size="12" text-anchor="start" fill="#1f6f9f" font-weight="700">Kcol=1e+04 L/kg</text>
<polyline points="78.0,349.7 182.0,347.2 286.0,324.1 390.0,207.5 494.0,90.9 598.0,67.8" fill="none" stroke="#c94f44" stroke-width="2.5"/>
<text x="410.0" y="132.2" font-size="12" text-anchor="start" fill="#c94f44" font-weight="700">Kcol=1e+06 L/kg</text>
<line x1="78.0" y1="350.0" x2="78.0" y2="355.0" stroke="#172026" stroke-width="1.0"/>
<text x="78.0" y="372.0" font-size="10" text-anchor="middle" fill="#172026" font-weight="400" class="small">0.001</text>
<line x1="182.0" y1="350.0" x2="182.0" y2="355.0" stroke="#172026" stroke-width="1.0"/>
<text x="182.0" y="372.0" font-size="10" text-anchor="middle" fill="#172026" font-weight="400" class="small">0.01</text>
<line x1="286.0" y1="350.0" x2="286.0" y2="355.0" stroke="#172026" stroke-width="1.0"/>
<text x="286.0" y="372.0" font-size="10" text-anchor="middle" fill="#172026" font-weight="400" class="small">0.1</text>
<line x1="390.0" y1="350.0" x2="390.0" y2="355.0" stroke="#172026" stroke-width="1.0"/>
<text x="390.0" y="372.0" font-size="10" text-anchor="middle" fill="#172026" font-weight="400" class="small">1</text>
<line x1="494.0" y1="350.0" x2="494.0" y2="355.0" stroke="#172026" stroke-width="1.0"/>
<text x="494.0" y="372.0" font-size="10" text-anchor="middle" fill="#172026" font-weight="400" class="small">10</text>
<line x1="598.0" y1="350.0" x2="598.0" y2="355.0" stroke="#172026" stroke-width="1.0"/>
<text x="598.0" y="372.0" font-size="10" text-anchor="middle" fill="#172026" font-weight="400" class="small">100</text>
</svg>
