<svg xmlns="http://www.w3.org/2000/svg" width="720" height="360" viewBox="0 0 720 360" role="img">
<style>text{font-family:-apple-system,BlinkMacSystemFont,'Segoe UI',Arial,sans-serif;fill:#172026}.small{font-size:12px;fill:#52616a}.title{font-size:18px;font-weight:700}.axis{stroke:#172026;stroke-width:1.1}.grid{stroke:#d7e0e5;stroke-width:1}</style>
<text x="36.0" y="34.0" font-size="20" text-anchor="start" fill="#172026" font-weight="700">Scenario-to-risk indicator matrix</text>
<text x="212.0" y="66.0" font-size="11" text-anchor="middle" fill="#172026" font-weight="700">weak anions</text>
<text x="306.0" y="66.0" font-size="11" text-anchor="middle" fill="#172026" font-weight="700">redox RN</text>
<text x="400.0" y="66.0" font-size="11" text-anchor="middle" fill="#172026" font-weight="700">strong actinides</text>
<text x="494.0" y="66.0" font-size="11" text-anchor="middle" fill="#172026" font-weight="700">Cs/Sr</text>
<text x="588.0" y="66.0" font-size="11" text-anchor="middle" fill="#172026" font-weight="700">biosphere flux</text>
<text x="155.0" y="113.0" font-size="11" text-anchor="end" fill="#172026" font-weight="400">reducing low-colloid</text>
<rect x="165.0" y="82.0" width="90.0" height="46.0" rx="3.0" fill="#b9dbdf" stroke="#ffffff" stroke-width="1.0" opacity="1.0"/>
<text x="210.0" y="113.0" font-size="13" text-anchor="middle" fill="#172026" font-weight="700">2</text>
<rect x="259.0" y="82.0" width="90.0" height="46.0" rx="3.0" fill="#b9dbdf" stroke="#ffffff" stroke-width="1.0" opacity="1.0"/>
<text x="304.0" y="113.0" font-size="13" text-anchor="middle" fill="#172026" font-weight="700">2</text>
<rect x="353.0" y="82.0" width="90.0" height="46.0" rx="3.0" fill="#e0eff1" stroke="#ffffff" stroke-width="1.0" opacity="1.0"/>
<text x="398.0" y="113.0" font-size="13" text-anchor="middle" fill="#172026" font-weight="700">1</text>
<rect x="447.0" y="82.0" width="90.0" height="46.0" rx="3.0" fill="#b9dbdf" stroke="#ffffff" stroke-width="1.0" opacity="1.0"/>
<text x="492.0" y="113.0" font-size="13" text-anchor="middle" fill="#172026" font-weight="700">2</text>
<rect x="541.0" y="82.0" width="90.0" height="46.0" rx="3.0" fill="#b9dbdf" stroke="#ffffff" stroke-width="1.0" opacity="1.0"/>
<text x="586.0" y="113.0" font-size="13" text-anchor="middle" fill="#172026" font-weight="700">2</text>
<text x="155.0" y="163.0" font-size="11" text-anchor="end" fill="#172026" font-weight="400">oxidizing carbonate</text>
<rect x="165.0" y="132.0" width="90.0" height="46.0" rx="3.0" fill="#c94f44" stroke="#ffffff" stroke-width="1.0" opacity="1.0"/>
<text x="210.0" y="163.0" font-size="13" text-anchor="middle" fill="#172026" font-weight="700">5</text>
<rect x="259.0" y="132.0" width="90.0" height="46.0" rx="3.0" fill="#c94f44" stroke="#ffffff" stroke-width="1.0" opacity="1.0"/>
<text x="304.0" y="163.0" font-size="13" text-anchor="middle" fill="#172026" font-weight="700">5</text>
<rect x="353.0" y="132.0" width="90.0" height="46.0" rx="3.0" fill="#8ac1c7" stroke="#ffffff" stroke-width="1.0" opacity="1.0"/>
<text x="398.0" y="163.0" font-size="13" text-anchor="middle" fill="#172026" font-weight="700">3</text>
<rect x="447.0" y="132.0" width="90.0" height="46.0" rx="3.0" fill="#b9dbdf" stroke="#ffffff" stroke-width="1.0" opacity="1.0"/>
<text x="492.0" y="163.0" font-size="13" text-anchor="middle" fill="#172026" font-weight="700">2</text>
<rect x="541.0" y="132.0" width="90.0" height="46.0" rx="3.0" fill="#c94f44" stroke="#ffffff" stroke-width="1.0" opacity="1.0"/>
<text x="586.0" y="163.0" font-size="13" text-anchor="middle" fill="#172026" font-weight="700">5</text>
<text x="155.0" y="213.0" font-size="11" text-anchor="end" fill="#172026" font-weight="400">colloid pulse</text>
<rect x="165.0" y="182.0" width="90.0" height="46.0" rx="3.0" fill="#8ac1c7" stroke="#ffffff" stroke-width="1.0" opacity="1.0"/>
<text x="210.0" y="213.0" font-size="13" text-anchor="middle" fill="#172026" font-weight="700">3</text>
<rect x="259.0" y="182.0" width="90.0" height="46.0" rx="3.0" fill="#e2b968" stroke="#ffffff" stroke-width="1.0" opacity="1.0"/>
<text x="304.0" y="213.0" font-size="13" text-anchor="middle" fill="#172026" font-weight="700">4</text>
<rect x="353.0" y="182.0" width="90.0" height="46.0" rx="3.0" fill="#c94f44" stroke="#ffffff" stroke-width="1.0" opacity="1.0"/>
<text x="398.0" y="213.0" font-size="13" text-anchor="middle" fill="#172026" font-weight="700">5</text>
<rect x="447.0" y="182.0" width="90.0" height="46.0" rx="3.0" fill="#e2b968" stroke="#ffffff" stroke-width="1.0" opacity="1.0"/>
<text x="492.0" y="213.0" font-size="13" text-anchor="middle" fill="#172026" font-weight="700">4</text>
<rect x="541.0" y="182.0" width="90.0" height="46.0" rx="3.0" fill="#e2b968" stroke="#ffffff" stroke-width="1.0" opacity="1.0"/>
<text x="586.0" y="213.0" font-size="13" text-anchor="middle" fill="#172026" font-weight="700">4</text>
<text x="155.0" y="263.0" font-size="11" text-anchor="end" fill="#172026" font-weight="400">filtered colloids</text>
<rect x="165.0" y="232.0" width="90.0" height="46.0" rx="3.0" fill="#8ac1c7" stroke="#ffffff" stroke-width="1.0" opacity="1.0"/>
<text x="210.0" y="263.0" font-size="13" text-anchor="middle" fill="#172026" font-weight="700">3</text>
<rect x="259.0" y="232.0" width="90.0" height="46.0" rx="3.0" fill="#8ac1c7" stroke="#ffffff" stroke-width="1.0" opacity="1.0"/>
<text x="304.0" y="263.0" font-size="13" text-anchor="middle" fill="#172026" font-weight="700">3</text>
<rect x="353.0" y="232.0" width="90.0" height="46.0" rx="3.0" fill="#b9dbdf" stroke="#ffffff" stroke-width="1.0" opacity="1.0"/>
<text x="398.0" y="263.0" font-size="13" text-anchor="middle" fill="#172026" font-weight="700">2</text>
<rect x="447.0" y="232.0" width="90.0" height="46.0" rx="3.0" fill="#8ac1c7" stroke="#ffffff" stroke-width="1.0" opacity="1.0"/>
<text x="492.0" y="263.0" font-size="13" text-anchor="middle" fill="#172026" font-weight="700">3</text>
<rect x="541.0" y="232.0" width="90.0" height="46.0" rx="3.0" fill="#8ac1c7" stroke="#ffffff" stroke-width="1.0" opacity="1.0"/>
<text x="586.0" y="263.0" font-size="13" text-anchor="middle" fill="#172026" font-weight="700">3</text>
<text x="120.0" y="332.0" font-size="13" text-anchor="start" fill="#172026" font-weight="400" class="small">1 low under screening assumptions; 5 first-order migration concern</text>
</svg>
