<svg xmlns="http://www.w3.org/2000/svg" width="900" height="520" viewBox="0 0 900 520">
<rect width="100%" height="100%" fill="white"/>
<text x="80" y="35" font-family="Arial" font-size="22" font-weight="700" fill="#12313b">Kinetic PHREEQC paths: S(6)</text>
<line x1="80" y1="70" x2="80" y2="450" stroke="#233" stroke-width="1.5"/>
<line x1="80" y1="450" x2="870" y2="450" stroke="#233" stroke-width="1.5"/>
<text x="18" y="260.0" transform="rotate(-90 18,260.0)" font-family="Arial" font-size="15">S(6), mol/kgw</text>
<text x="440.0" y="500" font-family="Arial" font-size="15">HCT-equivalent time (weeks)</text>
<line x1="74.7" y1="450" x2="74.7" y2="456" stroke="#233"/>
<text x="64.7" y="474" font-family="Arial" font-size="12">0</text>
<line x1="233.8" y1="450" x2="233.8" y2="456" stroke="#233"/>
<text x="223.8" y="474" font-family="Arial" font-size="12">30</text>
<line x1="392.8" y1="450" x2="392.8" y2="456" stroke="#233"/>
<text x="382.8" y="474" font-family="Arial" font-size="12">60</text>
<line x1="551.9" y1="450" x2="551.9" y2="456" stroke="#233"/>
<text x="541.9" y="474" font-family="Arial" font-size="12">90</text>
<line x1="710.9" y1="450" x2="710.9" y2="456" stroke="#233"/>
<text x="700.9" y="474" font-family="Arial" font-size="12">120</text>
<line x1="870.0" y1="450" x2="870.0" y2="456" stroke="#233"/>
<text x="860.0" y="474" font-family="Arial" font-size="12">150</text>
<line x1="80" y1="450.0" x2="870" y2="450.0" stroke="#e5eef2" stroke-width="1"/>
<text x="25" y="454.0" font-family="Arial" font-size="12">-0.0003</text>
<line x1="80" y1="355.0" x2="870" y2="355.0" stroke="#e5eef2" stroke-width="1"/>
<text x="25" y="359.0" font-family="Arial" font-size="12">0.00085</text>
<line x1="80" y1="260.0" x2="870" y2="260.0" stroke="#e5eef2" stroke-width="1"/>
<text x="25" y="264.0" font-family="Arial" font-size="12">0.002</text>
<line x1="80" y1="165.0" x2="870" y2="165.0" stroke="#e5eef2" stroke-width="1"/>
<text x="25" y="169.0" font-family="Arial" font-size="12">0.0031</text>
<line x1="80" y1="70.0" x2="870" y2="70.0" stroke="#e5eef2" stroke-width="1"/>
<text x="25" y="74.0" font-family="Arial" font-size="12">0.0043</text>
<path d="M80.0,422.6 L85.3,420.2 L90.6,417.8 L95.9,415.4 L101.2,413.0 L106.5,410.7 L111.8,408.3 L117.1,405.9 L122.4,403.5 L127.7,401.2 L133.0,398.8 L138.3,396.4 L143.6,394.1 L148.9,391.7 L154.2,389.4 L159.5,387.0 L164.8,384.7 L170.1,382.3 L175.4,380.0 L180.7,377.6 L186.0,375.3 L191.3,373.0 L196.6,370.6 L201.9,368.3 L207.2,366.0 L212.6,363.7 L217.9,361.3 L223.2,359.0 L228.5,356.7 L233.8,354.4 L239.1,352.1 L244.4,349.8 L249.7,347.5 L255.0,345.2 L260.3,342.9 L265.6,340.6 L270.9,338.3 L276.2,336.0 L281.5,333.7 L286.8,331.4 L292.1,329.1 L297.4,326.9 L302.7,324.6 L308.0,322.3 L313.3,320.0 L318.6,317.8 L323.9,315.5 L329.2,313.2 L334.5,311.0 L339.8,308.7 L345.1,306.5 L350.4,304.2 L355.7,302.0 L361.0,299.7 L366.3,297.5 L371.6,295.2 L376.9,293.0 L382.2,290.8 L387.5,288.5 L392.8,286.3 L398.1,284.1 L403.4,281.9 L408.7,279.6 L414.0,277.4 L419.3,275.2 L424.6,273.0 L429.9,270.8 L435.2,268.6 L440.5,266.3 L445.8,264.1 L451.1,261.9 L456.4,259.7 L461.7,257.6 L467.0,255.4 L472.3,253.2 L477.7,251.0 L483.0,248.8 L488.3,246.6 L493.6,244.4 L498.9,242.3 L504.2,240.1 L509.5,237.9 L514.8,235.7 L520.1,233.6 L525.4,231.4 L530.7,229.3 L536.0,227.1 L541.3,224.9 L546.6,222.8 L551.9,220.6 L557.2,218.5 L562.5,216.3 L567.8,214.2 L573.1,212.1 L578.4,209.9 L583.7,207.8 L589.0,205.7 L594.3,203.5 L599.6,201.4 L604.9,199.3 L610.2,197.2 L615.5,195.0 L620.8,192.9 L626.1,190.8 L631.4,188.7 L636.7,186.6 L642.0,184.5 L647.3,182.4 L652.6,180.3 L657.9,178.2 L663.2,176.1 L668.5,174.0 L673.8,171.9 L679.1,169.8 L684.4,167.7 L689.7,165.6 L695.0,163.5 L700.3,161.5 L705.6,159.4 L710.9,157.3 L716.2,155.2 L721.5,153.2 L726.8,151.1 L732.1,149.0 L737.4,147.0 L742.8,144.9 L748.1,142.9 L753.4,140.8 L758.7,138.8 L764.0,136.7 L769.3,134.7 L774.6,132.6 L779.9,130.6 L785.2,128.5 L790.5,126.5 L795.8,124.5 L801.1,122.4 L806.4,120.4 L811.7,118.4 L817.0,116.4 L822.3,114.3 L827.6,112.3 L832.9,110.3 L838.2,108.3 L843.5,106.3 L848.8,104.3 L854.1,102.3 L859.4,100.3 L864.7,98.3 L870.0,96.2" fill="none" stroke="#1f77b4" stroke-width="2.4"/>
<line x1="620" y1="80" x2="646" y2="80" stroke="#1f77b4" stroke-width="2.4"/>
<text x="654" y="84" font-family="Arial" font-size="12">acid_only_accessible_pyrite</text>
<path d="M80.0,422.6 L85.3,420.2 L90.6,417.8 L95.9,415.4 L101.2,413.0 L106.5,410.7 L111.8,408.3 L117.1,405.9 L122.4,403.5 L127.7,401.2 L133.0,398.8 L138.3,396.4 L143.6,394.1 L148.9,391.7 L154.2,389.4 L159.5,387.0 L164.8,384.7 L170.1,382.3 L175.4,380.0 L180.7,377.6 L186.0,375.3 L191.3,373.0 L196.6,370.6 L201.9,368.3 L207.2,366.0 L212.6,363.7 L217.9,361.3 L223.2,359.0 L228.5,356.7 L233.8,354.4 L239.1,352.1 L244.4,349.8 L249.7,347.5 L255.0,345.2 L260.3,342.9 L265.6,340.6 L270.9,338.3 L276.2,336.0 L281.5,333.7 L286.8,331.4 L292.1,329.1 L297.4,326.8 L302.7,324.6 L308.0,322.3 L313.3,320.0 L318.6,317.8 L323.9,315.5 L329.2,313.2 L334.5,311.0 L339.8,308.7 L345.1,306.5 L350.4,304.2 L355.7,302.0 L361.0,299.7 L366.3,297.5 L371.6,295.2 L376.9,293.0 L382.2,290.8 L387.5,288.5 L392.8,286.3 L398.1,284.1 L403.4,281.8 L408.7,279.6 L414.0,277.4 L419.3,275.2 L424.6,273.0 L429.9,270.8 L435.2,268.5 L440.5,266.3 L445.8,264.1 L451.1,261.9 L456.4,259.7 L461.7,257.5 L467.0,255.4 L472.3,253.2 L477.7,251.0 L483.0,248.8 L488.3,246.6 L493.6,244.4 L498.9,242.2 L504.2,240.1 L509.5,237.9 L514.8,235.7 L520.1,233.6 L525.4,231.4 L530.7,229.2 L536.0,227.1 L541.3,224.9 L546.6,222.8 L551.9,220.6 L557.2,218.5 L562.5,216.3 L567.8,214.2 L573.1,212.0 L578.4,209.9 L583.7,207.8 L589.0,205.6 L594.3,203.5 L599.6,201.4 L604.9,199.3 L610.2,197.1 L615.5,195.0 L620.8,192.9 L626.1,190.8 L631.4,188.7 L636.7,186.6 L642.0,184.5 L647.3,182.3 L652.6,180.2 L657.9,178.1 L663.2,176.0 L668.5,174.0 L673.8,171.9 L679.1,169.8 L684.4,167.7 L689.7,165.6 L695.0,163.5 L700.3,161.4 L705.6,159.4 L710.9,157.3 L716.2,155.2 L721.5,153.1 L726.8,151.1 L732.1,149.0 L737.4,146.9 L742.8,144.9 L748.1,142.8 L753.4,140.8 L758.7,138.7 L764.0,136.7 L769.3,134.6 L774.6,132.6 L779.9,130.5 L785.2,128.5 L790.5,126.5 L795.8,124.4 L801.1,122.4 L806.4,120.4 L811.7,118.3 L817.0,116.3 L822.3,114.3 L827.6,112.3 L832.9,110.3 L838.2,108.2 L843.5,106.2 L848.8,104.2 L854.1,102.2 L859.4,100.2 L864.7,98.2 L870.0,96.2" fill="none" stroke="#d62728" stroke-width="2.4"/>
<line x1="620" y1="102" x2="646" y2="102" stroke="#d62728" stroke-width="2.4"/>
<text x="654" y="106" font-family="Arial" font-size="12">sample_A_kinetic_no_attenuation</text>
<path d="M80.0,422.6 L85.3,420.2 L90.6,417.8 L95.9,415.4 L101.2,413.0 L106.5,410.7 L111.8,408.3 L117.1,405.9 L122.4,403.5 L127.7,401.2 L133.0,398.8 L138.3,396.4 L143.6,394.1 L148.9,391.7 L154.2,389.4 L159.5,387.0 L164.8,384.7 L170.1,382.3 L175.4,380.0 L180.7,377.6 L186.0,375.3 L191.3,373.0 L196.6,370.6 L201.9,368.3 L207.2,366.0 L212.6,363.7 L217.9,361.3 L223.2,359.0 L228.5,356.7 L233.8,354.4 L239.1,352.1 L244.4,349.8 L249.7,347.5 L255.0,345.2 L260.3,342.9 L265.6,340.6 L270.9,338.3 L276.2,336.0 L281.5,333.7 L286.8,331.4 L292.1,329.1 L297.4,326.9 L302.7,324.6 L308.0,322.3 L313.3,320.0 L318.6,317.8 L323.9,315.5 L329.2,313.2 L334.5,311.0 L339.8,308.7 L345.1,306.5 L350.4,304.2 L355.7,302.0 L361.0,299.7 L366.3,297.5 L371.6,295.2 L376.9,293.0 L382.2,290.8 L387.5,288.5 L392.8,286.3 L398.1,284.1 L403.4,281.8 L408.7,279.6 L414.0,277.4 L419.3,275.2 L424.6,273.0 L429.9,270.8 L435.2,268.6 L440.5,266.3 L445.8,264.1 L451.1,261.9 L456.4,259.7 L461.7,257.5 L467.0,255.4 L472.3,253.2 L477.7,251.0 L483.0,248.8 L488.3,246.6 L493.6,244.4 L498.9,242.3 L504.2,240.1 L509.5,237.9 L514.8,235.7 L520.1,233.6 L525.4,231.4 L530.7,229.3 L536.0,227.1 L541.3,224.9 L546.6,222.8 L551.9,220.6 L557.2,218.5 L562.5,216.3 L567.8,214.2 L573.1,212.1 L578.4,209.9 L583.7,207.8 L589.0,205.7 L594.3,203.5 L599.6,201.4 L604.9,199.3 L610.2,197.1 L615.5,195.0 L620.8,192.9 L626.1,190.8 L631.4,188.7 L636.7,186.6 L642.0,184.5 L647.3,182.4 L652.6,180.3 L657.9,178.2 L663.2,176.1 L668.5,174.0 L673.8,171.9 L679.1,169.8 L684.4,167.7 L689.7,165.6 L695.0,163.5 L700.3,161.5 L705.6,159.4 L710.9,157.3 L716.2,155.2 L721.5,153.2 L726.8,151.1 L732.1,149.0 L737.4,147.0 L742.8,144.9 L748.1,142.9 L753.4,140.8 L758.7,138.8 L764.0,136.7 L769.3,134.7 L774.6,132.6 L779.9,130.6 L785.2,128.5 L790.5,126.5 L795.8,124.5 L801.1,122.4 L806.4,120.4 L811.7,118.4 L817.0,116.4 L822.3,114.3 L827.6,112.3 L832.9,110.3 L838.2,108.3 L843.5,106.3 L848.8,104.3 L854.1,102.3 L859.4,100.3 L864.7,98.3 L870.0,96.3" fill="none" stroke="#2ca02c" stroke-width="2.4"/>
<line x1="620" y1="124" x2="646" y2="124" stroke="#2ca02c" stroke-width="2.4"/>
<text x="654" y="128" font-family="Arial" font-size="12">sample_A_kinetic_with_attenuation</text>
<path d="M80.0,423.8 L85.3,422.6 L90.6,421.4 L95.9,420.2 L101.2,419.0 L106.5,417.8 L111.8,416.6 L117.1,415.5 L122.4,414.3 L127.7,413.1 L133.0,411.9 L138.3,410.7 L143.6,409.5 L148.9,408.4 L154.2,407.2 L159.5,406.0 L164.8,404.8 L170.1,403.7 L175.4,402.5 L180.7,401.3 L186.0,400.1 L191.3,399.0 L196.6,397.8 L201.9,396.6 L207.2,395.5 L212.6,394.3 L217.9,393.2 L223.2,392.0 L228.5,390.8 L233.8,389.7 L239.1,388.5 L244.4,387.4 L249.7,386.2 L255.0,385.1 L260.3,383.9 L265.6,382.8 L270.9,381.6 L276.2,380.5 L281.5,379.3 L286.8,378.2 L292.1,377.1 L297.4,375.9 L302.7,374.8 L308.0,373.6 L313.3,372.5 L318.6,371.4 L323.9,370.2 L329.2,369.1 L334.5,368.0 L339.8,366.9 L345.1,365.7 L350.4,364.6 L355.7,363.5 L361.0,362.4 L366.3,361.2 L371.6,360.1 L376.9,359.0 L382.2,357.9 L387.5,356.8 L392.8,355.6 L398.1,354.5 L403.4,353.4 L408.7,352.3 L414.0,351.2 L419.3,350.1 L424.6,349.0 L429.9,347.9 L435.2,346.8 L440.5,345.7 L445.8,344.6 L451.1,343.5 L456.4,342.4 L461.7,341.3 L467.0,340.2 L472.3,339.1 L477.7,338.0 L483.0,336.9 L488.3,335.8 L493.6,334.7 L498.9,333.6 L504.2,332.5 L509.5,331.4 L514.8,330.4 L520.1,329.3 L525.4,328.2 L530.7,327.1 L536.0,326.0 L541.3,325.0 L546.6,323.9 L551.9,322.8 L557.2,321.7 L562.5,320.7 L567.8,319.6 L573.1,318.5 L578.4,317.5 L583.7,316.4 L589.0,315.3 L594.3,314.3 L599.6,313.2 L604.9,312.1 L610.2,311.1 L615.5,310.0 L620.8,309.0 L626.1,307.9 L631.4,306.8 L636.7,305.8 L642.0,304.7 L647.3,303.7 L652.6,302.6 L657.9,301.6 L663.2,300.5 L668.5,299.5 L673.8,298.4 L679.1,297.4 L684.4,296.3 L689.7,295.3 L695.0,294.3 L700.3,293.2 L705.6,292.2 L710.9,291.1 L716.2,290.1 L721.5,289.1 L726.8,288.0 L732.1,287.0 L737.4,286.0 L742.8,285.0 L748.1,283.9 L753.4,282.9 L758.7,281.9 L764.0,280.8 L769.3,279.8 L774.6,278.8 L779.9,277.8 L785.2,276.8 L790.5,275.7 L795.8,274.7 L801.1,273.7 L806.4,272.7 L811.7,271.7 L817.0,270.7 L822.3,269.7 L827.6,268.7 L832.9,267.6 L838.2,266.6 L843.5,265.6 L848.8,264.6 L854.1,263.6 L859.4,262.6 L864.7,261.6 L870.0,260.6" fill="none" stroke="#9467bd" stroke-width="2.4"/>
<line x1="620" y1="146" x2="646" y2="146" stroke="#9467bd" stroke-width="2.4"/>
<text x="654" y="150" font-family="Arial" font-size="12">sample_B_trace_carbonate_proxy</text>
</svg>