<svg xmlns="http://www.w3.org/2000/svg" width="1000" height="560" viewBox="0 0 1000 560">
<rect width="100%" height="100%" fill="white"/>
<text x="110" y="35" font-family="Arial" font-size="22" font-weight="700" fill="#12313b">U(VI) selected species fractions from LLNL PHREEQC envelope</text>
<line x1="110" y1="70" x2="110" y2="400" stroke="#233" stroke-width="1.5"/>
<line x1="110" y1="400" x2="930" y2="400" stroke="#233" stroke-width="1.5"/>
<line x1="110" y1="400.0" x2="930" y2="400.0" stroke="#e5eef2"/>
<text x="65" y="404.0" font-family="Arial" font-size="12">0.0</text>
<line x1="110" y1="334.0" x2="930" y2="334.0" stroke="#e5eef2"/>
<text x="65" y="338.0" font-family="Arial" font-size="12">0.2</text>
<line x1="110" y1="268.0" x2="930" y2="268.0" stroke="#e5eef2"/>
<text x="65" y="272.0" font-family="Arial" font-size="12">0.4</text>
<line x1="110" y1="202.0" x2="930" y2="202.0" stroke="#e5eef2"/>
<text x="65" y="206.0" font-family="Arial" font-size="12">0.6</text>
<line x1="110" y1="136.0" x2="930" y2="136.0" stroke="#e5eef2"/>
<text x="65" y="140.0" font-family="Arial" font-size="12">0.8</text>
<line x1="110" y1="70.0" x2="930" y2="70.0" stroke="#e5eef2"/>
<text x="65" y="74.0" font-family="Arial" font-size="12">1.0</text>
<rect x="141.2" y="323.0" width="101.7" height="77.0" fill="#1f77b4" opacity="0.86"/>
<rect x="141.2" y="70.3" width="101.7" height="252.7" fill="#d62728" opacity="0.86"/>
<rect x="141.2" y="70.3" width="101.7" height="0.0" fill="#2ca02c" opacity="0.86"/>
<rect x="141.2" y="70.0" width="101.7" height="0.3" fill="#9467bd" opacity="0.86"/>
<text x="192.0" y="422" transform="rotate(30 192.0,422)" font-family="Arial" font-size="11">pH3_sulfate_rich_low_carbonate</text>
<rect x="305.2" y="325.7" width="101.7" height="74.3" fill="#1f77b4" opacity="0.86"/>
<rect x="305.2" y="73.1" width="101.7" height="252.6" fill="#d62728" opacity="0.86"/>
<rect x="305.2" y="73.1" width="101.7" height="0.0" fill="#2ca02c" opacity="0.86"/>
<rect x="305.2" y="70.0" width="101.7" height="3.1" fill="#9467bd" opacity="0.86"/>
<text x="356.0" y="422" transform="rotate(30 356.0,422)" font-family="Arial" font-size="11">pH4_sulfate_rich_low_carbonate</text>
<rect x="469.2" y="397.1" width="101.7" height="2.9" fill="#1f77b4" opacity="0.86"/>
<rect x="469.2" y="394.9" width="101.7" height="2.2" fill="#d62728" opacity="0.86"/>
<rect x="469.2" y="195.9" width="101.7" height="199.0" fill="#2ca02c" opacity="0.86"/>
<rect x="469.2" y="70.0" width="101.7" height="125.9" fill="#9467bd" opacity="0.86"/>
<text x="520.0" y="422" transform="rotate(30 520.0,422)" font-family="Arial" font-size="11">pH6_mixed_sulfate_carbonate</text>
<rect x="633.2" y="400.0" width="101.7" height="0.0" fill="#1f77b4" opacity="0.86"/>
<rect x="633.2" y="400.0" width="101.7" height="0.0" fill="#d62728" opacity="0.86"/>
<rect x="633.2" y="92.6" width="101.7" height="307.4" fill="#2ca02c" opacity="0.86"/>
<rect x="633.2" y="70.0" width="101.7" height="22.6" fill="#9467bd" opacity="0.86"/>
<text x="684.0" y="422" transform="rotate(30 684.0,422)" font-family="Arial" font-size="11">pH7_carbonate_rich</text>
<rect x="797.2" y="400.0" width="101.7" height="0.0" fill="#1f77b4" opacity="0.86"/>
<rect x="797.2" y="400.0" width="101.7" height="0.0" fill="#d62728" opacity="0.86"/>
<rect x="797.2" y="79.9" width="101.7" height="320.1" fill="#2ca02c" opacity="0.86"/>
<rect x="797.2" y="70.0" width="101.7" height="9.9" fill="#9467bd" opacity="0.86"/>
<text x="848.0" y="422" transform="rotate(30 848.0,422)" font-family="Arial" font-size="11">pH8_carbonate_rich</text>
<rect x="110" y="510" width="18" height="12" fill="#1f77b4"/>
<text x="135" y="521" font-family="Arial" font-size="13">free UO2+2</text>
<rect x="320" y="510" width="18" height="12" fill="#d62728"/>
<text x="345" y="521" font-family="Arial" font-size="13">uranyl sulfate</text>
<rect x="530" y="510" width="18" height="12" fill="#2ca02c"/>
<text x="555" y="521" font-family="Arial" font-size="13">uranyl carbonate</text>
<rect x="740" y="510" width="18" height="12" fill="#9467bd"/>
<text x="765" y="521" font-family="Arial" font-size="13">hydrolysis</text>
</svg>