<svg xmlns="http://www.w3.org/2000/svg" width="900" height="520" viewBox="0 0 900 520">
<rect width="100%" height="100%" fill="white"/>
<text x="80" y="35" font-family="Arial" font-size="22" font-weight="700" fill="#12313b">Kinetic PHREEQC paths: pH</text>
<line x1="80" y1="70" x2="80" y2="450" stroke="#233" stroke-width="1.5"/>
<line x1="80" y1="450" x2="870" y2="450" stroke="#233" stroke-width="1.5"/>
<text x="18" y="260.0" transform="rotate(-90 18,260.0)" font-family="Arial" font-size="15">pH</text>
<text x="440.0" y="500" font-family="Arial" font-size="15">HCT-equivalent time (weeks)</text>
<line x1="74.7" y1="450" x2="74.7" y2="456" stroke="#233"/>
<text x="64.7" y="474" font-family="Arial" font-size="12">0</text>
<line x1="233.8" y1="450" x2="233.8" y2="456" stroke="#233"/>
<text x="223.8" y="474" font-family="Arial" font-size="12">30</text>
<line x1="392.8" y1="450" x2="392.8" y2="456" stroke="#233"/>
<text x="382.8" y="474" font-family="Arial" font-size="12">60</text>
<line x1="551.9" y1="450" x2="551.9" y2="456" stroke="#233"/>
<text x="541.9" y="474" font-family="Arial" font-size="12">90</text>
<line x1="710.9" y1="450" x2="710.9" y2="456" stroke="#233"/>
<text x="700.9" y="474" font-family="Arial" font-size="12">120</text>
<line x1="870.0" y1="450" x2="870.0" y2="456" stroke="#233"/>
<text x="860.0" y="474" font-family="Arial" font-size="12">150</text>
<line x1="80" y1="450.0" x2="870" y2="450.0" stroke="#e5eef2" stroke-width="1"/>
<text x="25" y="454.0" font-family="Arial" font-size="12">1.8</text>
<line x1="80" y1="355.0" x2="870" y2="355.0" stroke="#e5eef2" stroke-width="1"/>
<text x="25" y="359.0" font-family="Arial" font-size="12">3.2</text>
<line x1="80" y1="260.0" x2="870" y2="260.0" stroke="#e5eef2" stroke-width="1"/>
<text x="25" y="264.0" font-family="Arial" font-size="12">4.5</text>
<line x1="80" y1="165.0" x2="870" y2="165.0" stroke="#e5eef2" stroke-width="1"/>
<text x="25" y="169.0" font-family="Arial" font-size="12">5.8</text>
<line x1="80" y1="70.0" x2="870" y2="70.0" stroke="#e5eef2" stroke-width="1"/>
<text x="25" y="74.0" font-family="Arial" font-size="12">7.1</text>
<path d="M80.0,276.1 L85.3,297.7 L90.6,310.3 L95.9,319.2 L101.2,326.1 L106.5,331.7 L111.8,336.4 L117.1,340.5 L122.4,344.1 L127.7,347.3 L133.0,350.2 L138.3,352.8 L143.6,355.2 L148.9,357.4 L154.2,359.5 L159.5,361.4 L164.8,363.2 L170.1,364.9 L175.4,366.5 L180.7,368.0 L186.0,369.5 L191.3,370.9 L196.6,372.2 L201.9,373.4 L207.2,374.6 L212.6,375.7 L217.9,376.8 L223.2,377.9 L228.5,378.9 L233.8,379.9 L239.1,380.9 L244.4,381.8 L249.7,382.7 L255.0,383.5 L260.3,384.3 L265.6,385.2 L270.9,385.9 L276.2,386.7 L281.5,387.4 L286.8,388.2 L292.1,388.9 L297.4,389.5 L302.7,390.2 L308.0,390.9 L313.3,391.5 L318.6,392.1 L323.9,392.7 L329.2,393.3 L334.5,393.9 L339.8,394.5 L345.1,395.0 L350.4,395.6 L355.7,396.1 L361.0,396.6 L366.3,397.1 L371.6,397.6 L376.9,398.1 L382.2,398.6 L387.5,399.1 L392.8,399.5 L398.1,400.0 L403.4,400.4 L408.7,400.9 L414.0,401.3 L419.3,401.7 L424.6,402.2 L429.9,402.6 L435.2,403.0 L440.5,403.4 L445.8,403.8 L451.1,404.2 L456.4,404.5 L461.7,404.9 L467.0,405.3 L472.3,405.6 L477.7,406.0 L483.0,406.4 L488.3,406.7 L493.6,407.0 L498.9,407.4 L504.2,407.7 L509.5,408.1 L514.8,408.4 L520.1,408.7 L525.4,409.0 L530.7,409.3 L536.0,409.6 L541.3,409.9 L546.6,410.2 L551.9,410.5 L557.2,410.8 L562.5,411.1 L567.8,411.4 L573.1,411.7 L578.4,412.0 L583.7,412.3 L589.0,412.5 L594.3,412.8 L599.6,413.1 L604.9,413.3 L610.2,413.6 L615.5,413.9 L620.8,414.1 L626.1,414.4 L631.4,414.6 L636.7,414.9 L642.0,415.1 L647.3,415.4 L652.6,415.6 L657.9,415.8 L663.2,416.1 L668.5,416.3 L673.8,416.5 L679.1,416.8 L684.4,417.0 L689.7,417.2 L695.0,417.4 L700.3,417.7 L705.6,417.9 L710.9,418.1 L716.2,418.3 L721.5,418.5 L726.8,418.7 L732.1,418.9 L737.4,419.2 L742.8,419.4 L748.1,419.6 L753.4,419.8 L758.7,420.0 L764.0,420.2 L769.3,420.4 L774.6,420.5 L779.9,420.7 L785.2,420.9 L790.5,421.1 L795.8,421.3 L801.1,421.5 L806.4,421.7 L811.7,421.9 L817.0,422.0 L822.3,422.2 L827.6,422.4 L832.9,422.6 L838.2,422.8 L843.5,422.9 L848.8,423.1 L854.1,423.3 L859.4,423.5 L864.7,423.6 L870.0,423.8" fill="none" stroke="#1f77b4" stroke-width="2.4"/>
<line x1="620" y1="80" x2="646" y2="80" stroke="#1f77b4" stroke-width="2.4"/>
<text x="654" y="84" font-family="Arial" font-size="12">acid_only_accessible_pyrite</text>
<path d="M80.0,136.3 L85.3,136.3 L90.6,136.2 L95.9,136.1 L101.2,136.0 L106.5,136.0 L111.8,135.9 L117.1,135.8 L122.4,135.8 L127.7,135.7 L133.0,135.6 L138.3,135.6 L143.6,135.5 L148.9,135.4 L154.2,135.4 L159.5,135.3 L164.8,135.2 L170.1,135.2 L175.4,135.1 L180.7,135.1 L186.0,135.0 L191.3,134.9 L196.6,134.9 L201.9,134.8 L207.2,134.8 L212.6,134.7 L217.9,134.6 L223.2,134.6 L228.5,134.5 L233.8,134.5 L239.1,134.4 L244.4,134.4 L249.7,134.3 L255.0,134.3 L260.3,134.2 L265.6,134.1 L270.9,134.1 L276.2,134.0 L281.5,134.0 L286.8,133.9 L292.1,133.9 L297.4,133.8 L302.7,133.8 L308.0,133.7 L313.3,133.7 L318.6,133.6 L323.9,133.6 L329.2,133.5 L334.5,133.5 L339.8,133.4 L345.1,133.4 L350.4,133.3 L355.7,133.3 L361.0,133.2 L366.3,133.2 L371.6,133.1 L376.9,133.1 L382.2,133.0 L387.5,133.0 L392.8,132.9 L398.1,132.9 L403.4,132.8 L408.7,132.8 L414.0,132.7 L419.3,132.7 L424.6,132.6 L429.9,132.6 L435.2,132.6 L440.5,132.5 L445.8,132.5 L451.1,132.4 L456.4,132.4 L461.7,132.3 L467.0,132.3 L472.3,132.2 L477.7,132.2 L483.0,132.1 L488.3,132.1 L493.6,132.0 L498.9,132.0 L504.2,131.9 L509.5,131.9 L514.8,131.9 L520.1,131.8 L525.4,131.8 L530.7,131.7 L536.0,131.7 L541.3,131.6 L546.6,131.6 L551.9,131.5 L557.2,131.5 L562.5,131.5 L567.8,131.4 L573.1,131.4 L578.4,131.3 L583.7,131.3 L589.0,131.2 L594.3,131.2 L599.6,131.2 L604.9,131.1 L610.2,131.1 L615.5,131.0 L620.8,131.0 L626.1,130.9 L631.4,130.9 L636.7,130.9 L642.0,130.8 L647.3,130.8 L652.6,130.7 L657.9,130.7 L663.2,130.6 L668.5,130.6 L673.8,130.6 L679.1,130.5 L684.4,130.5 L689.7,130.4 L695.0,130.4 L700.3,130.3 L705.6,130.3 L710.9,130.3 L716.2,130.2 L721.5,130.2 L726.8,130.1 L732.1,130.1 L737.4,130.1 L742.8,130.0 L748.1,130.0 L753.4,129.9 L758.7,129.9 L764.0,129.8 L769.3,129.8 L774.6,129.8 L779.9,129.7 L785.2,129.7 L790.5,129.6 L795.8,129.6 L801.1,129.6 L806.4,129.5 L811.7,129.5 L817.0,129.4 L822.3,129.4 L827.6,129.4 L832.9,129.3 L838.2,129.3 L843.5,129.2 L848.8,129.2 L854.1,129.2 L859.4,129.1 L864.7,129.1 L870.0,129.0" fill="none" stroke="#d62728" stroke-width="2.4"/>
<line x1="620" y1="102" x2="646" y2="102" stroke="#d62728" stroke-width="2.4"/>
<text x="654" y="106" font-family="Arial" font-size="12">sample_A_kinetic_no_attenuation</text>
<path d="M80.0,136.8 L85.3,137.4 L90.6,137.8 L95.9,138.3 L101.2,138.8 L106.5,139.3 L111.8,139.7 L117.1,140.2 L122.4,140.7 L127.7,141.2 L133.0,141.7 L138.3,142.2 L143.6,142.7 L148.9,143.2 L154.2,143.7 L159.5,144.2 L164.8,144.7 L170.1,145.2 L175.4,145.7 L180.7,146.2 L186.0,146.7 L191.3,147.2 L196.6,147.8 L201.9,148.3 L207.2,148.8 L212.6,149.4 L217.9,149.9 L223.2,150.4 L228.5,151.0 L233.8,151.5 L239.1,152.0 L244.4,152.6 L249.7,153.1 L255.0,153.7 L260.3,154.2 L265.6,154.8 L270.9,155.3 L276.2,155.9 L281.5,156.4 L286.8,157.0 L292.1,157.5 L297.4,158.1 L302.7,158.6 L308.0,159.2 L313.3,159.8 L318.6,160.3 L323.9,160.9 L329.2,161.4 L334.5,162.0 L339.8,162.5 L345.1,163.1 L350.4,163.7 L355.7,164.2 L361.0,164.8 L366.3,165.3 L371.6,165.9 L376.9,166.4 L382.2,167.0 L387.5,167.5 L392.8,168.1 L398.1,168.6 L403.4,169.2 L408.7,169.7 L414.0,170.3 L419.3,170.8 L424.6,171.4 L429.9,171.9 L435.2,172.5 L440.5,173.0 L445.8,173.6 L451.1,174.1 L456.4,174.7 L461.7,175.2 L467.0,175.8 L472.3,176.3 L477.7,176.9 L483.0,177.4 L488.3,177.9 L493.6,178.5 L498.9,179.0 L504.2,179.6 L509.5,180.1 L514.8,180.7 L520.1,181.3 L525.4,181.8 L530.7,182.4 L536.0,182.9 L541.3,183.5 L546.6,184.0 L551.9,184.6 L557.2,185.2 L562.5,185.8 L567.8,186.3 L573.1,186.9 L578.4,187.5 L583.7,188.1 L589.0,188.7 L594.3,189.3 L599.6,189.9 L604.9,190.5 L610.2,191.1 L615.5,191.7 L620.8,192.4 L626.1,193.0 L631.4,193.6 L636.7,194.3 L642.0,194.9 L647.3,195.6 L652.6,196.3 L657.9,197.0 L663.2,197.7 L668.5,198.4 L673.8,199.1 L679.1,199.8 L684.4,200.6 L689.7,201.4 L695.0,202.1 L700.3,202.9 L705.6,203.8 L710.9,204.6 L716.2,205.4 L721.5,206.3 L726.8,207.2 L732.1,208.1 L737.4,209.1 L742.8,210.1 L748.1,211.1 L753.4,212.1 L758.7,213.2 L764.0,214.4 L769.3,215.5 L774.6,216.7 L779.9,218.0 L785.2,219.4 L790.5,220.8 L795.8,222.2 L801.1,223.8 L806.4,225.4 L811.7,227.2 L817.0,229.0 L822.3,231.0 L827.6,233.2 L832.9,235.5 L838.2,238.0 L843.5,240.7 L848.8,243.7 L854.1,247.0 L859.4,250.6 L864.7,254.5 L870.0,258.8" fill="none" stroke="#2ca02c" stroke-width="2.4"/>
<line x1="620" y1="124" x2="646" y2="124" stroke="#2ca02c" stroke-width="2.4"/>
<text x="654" y="128" font-family="Arial" font-size="12">sample_A_kinetic_with_attenuation</text>
<path d="M80.0,96.2 L85.3,96.9 L90.6,97.5 L95.9,98.1 L101.2,98.7 L106.5,99.2 L111.8,99.8 L117.1,100.4 L122.4,100.9 L127.7,101.5 L133.0,102.0 L138.3,102.6 L143.6,103.1 L148.9,103.6 L154.2,104.1 L159.5,104.6 L164.8,105.1 L170.1,105.6 L175.4,106.1 L180.7,106.6 L186.0,107.0 L191.3,107.5 L196.6,108.0 L201.9,108.4 L207.2,108.9 L212.6,109.3 L217.9,109.8 L223.2,110.2 L228.5,110.6 L233.8,111.1 L239.1,111.5 L244.4,111.9 L249.7,112.4 L255.0,112.8 L260.3,113.2 L265.6,113.6 L270.9,114.0 L276.2,114.4 L281.5,114.8 L286.8,115.2 L292.1,115.6 L297.4,116.0 L302.7,116.4 L308.0,116.8 L313.3,117.2 L318.6,117.6 L323.9,118.0 L329.2,118.4 L334.5,118.8 L339.8,119.2 L345.1,119.5 L350.4,119.9 L355.7,120.3 L361.0,120.7 L366.3,121.1 L371.6,121.4 L376.9,121.8 L382.2,122.2 L387.5,122.5 L392.8,122.9 L398.1,123.3 L403.4,123.7 L408.7,124.0 L414.0,124.4 L419.3,124.8 L424.6,125.1 L429.9,125.5 L435.2,125.9 L440.5,126.2 L445.8,126.6 L451.1,127.0 L456.4,127.3 L461.7,127.7 L467.0,128.1 L472.3,128.4 L477.7,128.8 L483.0,129.2 L488.3,129.5 L493.6,129.9 L498.9,130.3 L504.2,130.6 L509.5,131.0 L514.8,131.4 L520.1,131.7 L525.4,132.1 L530.7,132.5 L536.0,132.8 L541.3,133.2 L546.6,133.6 L551.9,134.0 L557.2,134.3 L562.5,134.7 L567.8,135.1 L573.1,135.4 L578.4,135.8 L583.7,136.2 L589.0,136.6 L594.3,137.0 L599.6,137.3 L604.9,137.7 L610.2,138.1 L615.5,138.5 L620.8,138.9 L626.1,139.2 L631.4,139.6 L636.7,140.0 L642.0,140.4 L647.3,140.8 L652.6,141.2 L657.9,141.6 L663.2,142.0 L668.5,142.4 L673.8,142.8 L679.1,143.2 L684.4,143.6 L689.7,144.0 L695.0,144.4 L700.3,144.8 L705.6,145.2 L710.9,145.6 L716.2,146.0 L721.5,146.4 L726.8,146.8 L732.1,147.2 L737.4,147.7 L742.8,148.1 L748.1,148.5 L753.4,148.9 L758.7,149.3 L764.0,149.8 L769.3,150.2 L774.6,150.6 L779.9,151.0 L785.2,151.5 L790.5,151.9 L795.8,152.3 L801.1,152.8 L806.4,153.2 L811.7,153.6 L817.0,154.1 L822.3,154.5 L827.6,155.0 L832.9,155.4 L838.2,155.8 L843.5,156.3 L848.8,156.7 L854.1,157.2 L859.4,157.6 L864.7,158.1 L870.0,158.5" fill="none" stroke="#9467bd" stroke-width="2.4"/>
<line x1="620" y1="146" x2="646" y2="146" stroke="#9467bd" stroke-width="2.4"/>
<text x="654" y="150" font-family="Arial" font-size="12">sample_B_trace_carbonate_proxy</text>
</svg>