<svg xmlns="http://www.w3.org/2000/svg" width="860" height="820" viewBox="0 0 860 820" role="img">
<style>text{font-family:-apple-system,BlinkMacSystemFont,'Segoe UI',Arial,sans-serif;fill:#172026}.small{font-size:12px;fill:#52616a}.title{font-size:18px;font-weight:700}.axis{stroke:#172026;stroke-width:1}.grid{stroke:#d7e0e5;stroke-width:1}.label{font-size:13px;fill:#172026}.legend{font-size:12px;fill:#52616a}</style>
<rect x="0.0" y="0.0" width="860.0" height="820.0" fill="#ffffff" stroke="none" opacity="1"/>
<text x="28.0" y="36.0" font-size="18" text-anchor="start" font-weight="700">Figure 1. Correlation matrix for PHREEQC screening inputs and mechanism scores</text>
<text x="138.0" y="185.0" font-size="12" text-anchor="end" font-weight="400">pH</text>
<text x="179.0" y="134.0" font-size="12" text-anchor="middle" font-weight="400">pH</text>
<rect x="150.0" y="150.0" width="56.0" height="56.0" fill="#1f6f9f" stroke="#ffffff" opacity="1"/>
<text x="179.0" y="185.0" font-size="10" text-anchor="middle" font-weight="400">+1.00</text>
<rect x="208.0" y="150.0" width="56.0" height="56.0" fill="#adc9d9" stroke="#ffffff" opacity="1"/>
<text x="237.0" y="185.0" font-size="10" text-anchor="middle" font-weight="400">+0.35</text>
<rect x="266.0" y="150.0" width="56.0" height="56.0" fill="#1f6f9f" stroke="#ffffff" opacity="1"/>
<text x="295.0" y="185.0" font-size="10" text-anchor="middle" font-weight="400">+1.00</text>
<rect x="324.0" y="150.0" width="56.0" height="56.0" fill="#d16d64" stroke="#ffffff" opacity="1"/>
<text x="353.0" y="185.0" font-size="10" text-anchor="middle" font-weight="400">-0.82</text>
<rect x="382.0" y="150.0" width="56.0" height="56.0" fill="#f1f6f6" stroke="#ffffff" opacity="1"/>
<text x="411.0" y="185.0" font-size="10" text-anchor="middle" font-weight="400">+0.03</text>
<rect x="440.0" y="150.0" width="56.0" height="56.0" fill="#d98b83" stroke="#ffffff" opacity="1"/>
<text x="469.0" y="185.0" font-size="10" text-anchor="middle" font-weight="400">-0.65</text>
<rect x="498.0" y="150.0" width="56.0" height="56.0" fill="#8bb4cc" stroke="#ffffff" opacity="1"/>
<text x="527.0" y="185.0" font-size="10" text-anchor="middle" font-weight="400">+0.50</text>
<rect x="556.0" y="150.0" width="56.0" height="56.0" fill="#ebcbc7" stroke="#ffffff" opacity="1"/>
<text x="585.0" y="185.0" font-size="10" text-anchor="middle" font-weight="400">-0.27</text>
<rect x="614.0" y="150.0" width="56.0" height="56.0" fill="#327ba7" stroke="#ffffff" opacity="1"/>
<text x="643.0" y="185.0" font-size="10" text-anchor="middle" font-weight="400">+0.91</text>
<rect x="672.0" y="150.0" width="56.0" height="56.0" fill="#cc5b51" stroke="#ffffff" opacity="1"/>
<text x="701.0" y="185.0" font-size="10" text-anchor="middle" font-weight="400">-0.93</text>
<text x="138.0" y="243.0" font-size="12" text-anchor="end" font-weight="400">pe</text>
<text x="237.0" y="134.0" font-size="12" text-anchor="middle" font-weight="400">pe</text>
<rect x="150.0" y="208.0" width="56.0" height="56.0" fill="#adc9d9" stroke="#ffffff" opacity="1"/>
<text x="179.0" y="243.0" font-size="10" text-anchor="middle" font-weight="400">+0.35</text>
<rect x="208.0" y="208.0" width="56.0" height="56.0" fill="#1f6f9f" stroke="#ffffff" opacity="1"/>
<text x="237.0" y="243.0" font-size="10" text-anchor="middle" font-weight="400">+1.00</text>
<rect x="266.0" y="208.0" width="56.0" height="56.0" fill="#a6c5d7" stroke="#ffffff" opacity="1"/>
<text x="295.0" y="243.0" font-size="10" text-anchor="middle" font-weight="400">+0.38</text>
<rect x="324.0" y="208.0" width="56.0" height="56.0" fill="#c1d7e2" stroke="#ffffff" opacity="1"/>
<text x="353.0" y="243.0" font-size="10" text-anchor="middle" font-weight="400">+0.25</text>
<rect x="382.0" y="208.0" width="56.0" height="56.0" fill="#cc5b50" stroke="#ffffff" opacity="1"/>
<text x="411.0" y="243.0" font-size="10" text-anchor="middle" font-weight="400">-0.93</text>
<rect x="440.0" y="208.0" width="56.0" height="56.0" fill="#cb594f" stroke="#ffffff" opacity="1"/>
<text x="469.0" y="243.0" font-size="10" text-anchor="middle" font-weight="400">-0.94</text>
<rect x="498.0" y="208.0" width="56.0" height="56.0" fill="#2270a0" stroke="#ffffff" opacity="1"/>
<text x="527.0" y="243.0" font-size="10" text-anchor="middle" font-weight="400">+0.99</text>
<rect x="556.0" y="208.0" width="56.0" height="56.0" fill="#c94f44" stroke="#ffffff" opacity="1"/>
<text x="585.0" y="243.0" font-size="10" text-anchor="middle" font-weight="400">-1.00</text>
<rect x="614.0" y="208.0" width="56.0" height="56.0" fill="#5e97b9" stroke="#ffffff" opacity="1"/>
<text x="643.0" y="243.0" font-size="10" text-anchor="middle" font-weight="400">+0.71</text>
<rect x="672.0" y="208.0" width="56.0" height="56.0" fill="#e2aca7" stroke="#ffffff" opacity="1"/>
<text x="701.0" y="243.0" font-size="10" text-anchor="middle" font-weight="400">-0.45</text>
<text x="138.0" y="301.0" font-size="12" text-anchor="end" font-weight="400">Alk</text>
<text x="295.0" y="134.0" font-size="12" text-anchor="middle" font-weight="400">Alk</text>
<rect x="150.0" y="266.0" width="56.0" height="56.0" fill="#1f6f9f" stroke="#ffffff" opacity="1"/>
<text x="179.0" y="301.0" font-size="10" text-anchor="middle" font-weight="400">+1.00</text>
<rect x="208.0" y="266.0" width="56.0" height="56.0" fill="#a6c5d7" stroke="#ffffff" opacity="1"/>
<text x="237.0" y="301.0" font-size="10" text-anchor="middle" font-weight="400">+0.38</text>
<rect x="266.0" y="266.0" width="56.0" height="56.0" fill="#1f6f9f" stroke="#ffffff" opacity="1"/>
<text x="295.0" y="301.0" font-size="10" text-anchor="middle" font-weight="400">+1.00</text>
<rect x="324.0" y="266.0" width="56.0" height="56.0" fill="#d27067" stroke="#ffffff" opacity="1"/>
<text x="353.0" y="301.0" font-size="10" text-anchor="middle" font-weight="400">-0.80</text>
<rect x="382.0" y="266.0" width="56.0" height="56.0" fill="#f7f9f8" stroke="#ffffff" opacity="1"/>
<text x="411.0" y="301.0" font-size="10" text-anchor="middle" font-weight="400">-0.01</text>
<rect x="440.0" y="266.0" width="56.0" height="56.0" fill="#d8877f" stroke="#ffffff" opacity="1"/>
<text x="469.0" y="301.0" font-size="10" text-anchor="middle" font-weight="400">-0.67</text>
<rect x="498.0" y="266.0" width="56.0" height="56.0" fill="#85b0c9" stroke="#ffffff" opacity="1"/>
<text x="527.0" y="301.0" font-size="10" text-anchor="middle" font-weight="400">+0.53</text>
<rect x="556.0" y="266.0" width="56.0" height="56.0" fill="#e9c6c1" stroke="#ffffff" opacity="1"/>
<text x="585.0" y="301.0" font-size="10" text-anchor="middle" font-weight="400">-0.30</text>
<rect x="614.0" y="266.0" width="56.0" height="56.0" fill="#2f79a5" stroke="#ffffff" opacity="1"/>
<text x="643.0" y="301.0" font-size="10" text-anchor="middle" font-weight="400">+0.92</text>
<rect x="672.0" y="266.0" width="56.0" height="56.0" fill="#cc5a50" stroke="#ffffff" opacity="1"/>
<text x="701.0" y="301.0" font-size="10" text-anchor="middle" font-weight="400">-0.93</text>
<text x="138.0" y="359.0" font-size="12" text-anchor="end" font-weight="400">SO4</text>
<text x="353.0" y="134.0" font-size="12" text-anchor="middle" font-weight="400">SO4</text>
<rect x="150.0" y="324.0" width="56.0" height="56.0" fill="#d16d64" stroke="#ffffff" opacity="1"/>
<text x="179.0" y="359.0" font-size="10" text-anchor="middle" font-weight="400">-0.82</text>
<rect x="208.0" y="324.0" width="56.0" height="56.0" fill="#c1d7e2" stroke="#ffffff" opacity="1"/>
<text x="237.0" y="359.0" font-size="10" text-anchor="middle" font-weight="400">+0.25</text>
<rect x="266.0" y="324.0" width="56.0" height="56.0" fill="#d27067" stroke="#ffffff" opacity="1"/>
<text x="295.0" y="359.0" font-size="10" text-anchor="middle" font-weight="400">-0.80</text>
<rect x="324.0" y="324.0" width="56.0" height="56.0" fill="#1f6f9f" stroke="#ffffff" opacity="1"/>
<text x="353.0" y="359.0" font-size="10" text-anchor="middle" font-weight="400">+1.00</text>
<rect x="382.0" y="324.0" width="56.0" height="56.0" fill="#dc948d" stroke="#ffffff" opacity="1"/>
<text x="411.0" y="359.0" font-size="10" text-anchor="middle" font-weight="400">-0.59</text>
<rect x="440.0" y="324.0" width="56.0" height="56.0" fill="#e2ecf0" stroke="#ffffff" opacity="1"/>
<text x="469.0" y="359.0" font-size="10" text-anchor="middle" font-weight="400">+0.10</text>
<rect x="498.0" y="324.0" width="56.0" height="56.0" fill="#e5eef1" stroke="#ffffff" opacity="1"/>
<text x="527.0" y="359.0" font-size="10" text-anchor="middle" font-weight="400">+0.08</text>
<rect x="556.0" y="324.0" width="56.0" height="56.0" fill="#e8c2be" stroke="#ffffff" opacity="1"/>
<text x="585.0" y="359.0" font-size="10" text-anchor="middle" font-weight="400">-0.32</text>
<rect x="614.0" y="324.0" width="56.0" height="56.0" fill="#e0a29c" stroke="#ffffff" opacity="1"/>
<text x="643.0" y="359.0" font-size="10" text-anchor="middle" font-weight="400">-0.51</text>
<rect x="672.0" y="324.0" width="56.0" height="56.0" fill="#639bbb" stroke="#ffffff" opacity="1"/>
<text x="701.0" y="359.0" font-size="10" text-anchor="middle" font-weight="400">+0.68</text>
<text x="138.0" y="417.0" font-size="12" text-anchor="end" font-weight="400">Ba</text>
<text x="411.0" y="134.0" font-size="12" text-anchor="middle" font-weight="400">Ba</text>
<rect x="150.0" y="382.0" width="56.0" height="56.0" fill="#f1f6f6" stroke="#ffffff" opacity="1"/>
<text x="179.0" y="417.0" font-size="10" text-anchor="middle" font-weight="400">+0.03</text>
<rect x="208.0" y="382.0" width="56.0" height="56.0" fill="#cc5b50" stroke="#ffffff" opacity="1"/>
<text x="237.0" y="417.0" font-size="10" text-anchor="middle" font-weight="400">-0.93</text>
<rect x="266.0" y="382.0" width="56.0" height="56.0" fill="#f7f9f8" stroke="#ffffff" opacity="1"/>
<text x="295.0" y="417.0" font-size="10" text-anchor="middle" font-weight="400">-0.01</text>
<rect x="324.0" y="382.0" width="56.0" height="56.0" fill="#dc948d" stroke="#ffffff" opacity="1"/>
<text x="353.0" y="417.0" font-size="10" text-anchor="middle" font-weight="400">-0.59</text>
<rect x="382.0" y="382.0" width="56.0" height="56.0" fill="#1f6f9f" stroke="#ffffff" opacity="1"/>
<text x="411.0" y="417.0" font-size="10" text-anchor="middle" font-weight="400">+1.00</text>
<rect x="440.0" y="382.0" width="56.0" height="56.0" fill="#5692b6" stroke="#ffffff" opacity="1"/>
<text x="469.0" y="417.0" font-size="10" text-anchor="middle" font-weight="400">+0.74</text>
<rect x="498.0" y="382.0" width="56.0" height="56.0" fill="#cf685e" stroke="#ffffff" opacity="1"/>
<text x="527.0" y="417.0" font-size="10" text-anchor="middle" font-weight="400">-0.85</text>
<rect x="556.0" y="382.0" width="56.0" height="56.0" fill="#2875a3" stroke="#ffffff" opacity="1"/>
<text x="585.0" y="417.0" font-size="10" text-anchor="middle" font-weight="400">+0.95</text>
<rect x="614.0" y="382.0" width="56.0" height="56.0" fill="#e5b7b2" stroke="#ffffff" opacity="1"/>
<text x="643.0" y="417.0" font-size="10" text-anchor="middle" font-weight="400">-0.39</text>
<rect x="672.0" y="382.0" width="56.0" height="56.0" fill="#dfeaee" stroke="#ffffff" opacity="1"/>
<text x="701.0" y="417.0" font-size="10" text-anchor="middle" font-weight="400">+0.11</text>
<text x="138.0" y="475.0" font-size="12" text-anchor="end" font-weight="400">Sr</text>
<text x="469.0" y="134.0" font-size="12" text-anchor="middle" font-weight="400">Sr</text>
<rect x="150.0" y="440.0" width="56.0" height="56.0" fill="#d98b83" stroke="#ffffff" opacity="1"/>
<text x="179.0" y="475.0" font-size="10" text-anchor="middle" font-weight="400">-0.65</text>
<rect x="208.0" y="440.0" width="56.0" height="56.0" fill="#cb594f" stroke="#ffffff" opacity="1"/>
<text x="237.0" y="475.0" font-size="10" text-anchor="middle" font-weight="400">-0.94</text>
<rect x="266.0" y="440.0" width="56.0" height="56.0" fill="#d8877f" stroke="#ffffff" opacity="1"/>
<text x="295.0" y="475.0" font-size="10" text-anchor="middle" font-weight="400">-0.67</text>
<rect x="324.0" y="440.0" width="56.0" height="56.0" fill="#e2ecf0" stroke="#ffffff" opacity="1"/>
<text x="353.0" y="475.0" font-size="10" text-anchor="middle" font-weight="400">+0.10</text>
<rect x="382.0" y="440.0" width="56.0" height="56.0" fill="#5692b6" stroke="#ffffff" opacity="1"/>
<text x="411.0" y="475.0" font-size="10" text-anchor="middle" font-weight="400">+0.74</text>
<rect x="440.0" y="440.0" width="56.0" height="56.0" fill="#1f6f9f" stroke="#ffffff" opacity="1"/>
<text x="469.0" y="475.0" font-size="10" text-anchor="middle" font-weight="400">+1.00</text>
<rect x="498.0" y="440.0" width="56.0" height="56.0" fill="#c95146" stroke="#ffffff" opacity="1"/>
<text x="527.0" y="475.0" font-size="10" text-anchor="middle" font-weight="400">-0.98</text>
<rect x="556.0" y="440.0" width="56.0" height="56.0" fill="#327ba7" stroke="#ffffff" opacity="1"/>
<text x="585.0" y="475.0" font-size="10" text-anchor="middle" font-weight="400">+0.91</text>
<rect x="614.0" y="440.0" width="56.0" height="56.0" fill="#cd5f55" stroke="#ffffff" opacity="1"/>
<text x="643.0" y="475.0" font-size="10" text-anchor="middle" font-weight="400">-0.91</text>
<rect x="672.0" y="440.0" width="56.0" height="56.0" fill="#5e97b9" stroke="#ffffff" opacity="1"/>
<text x="701.0" y="475.0" font-size="10" text-anchor="middle" font-weight="400">+0.71</text>
<text x="138.0" y="533.0" font-size="12" text-anchor="end" font-weight="400">U</text>
<text x="527.0" y="134.0" font-size="12" text-anchor="middle" font-weight="400">U</text>
<rect x="150.0" y="498.0" width="56.0" height="56.0" fill="#8bb4cc" stroke="#ffffff" opacity="1"/>
<text x="179.0" y="533.0" font-size="10" text-anchor="middle" font-weight="400">+0.50</text>
<rect x="208.0" y="498.0" width="56.0" height="56.0" fill="#2270a0" stroke="#ffffff" opacity="1"/>
<text x="237.0" y="533.0" font-size="10" text-anchor="middle" font-weight="400">+0.99</text>
<rect x="266.0" y="498.0" width="56.0" height="56.0" fill="#85b0c9" stroke="#ffffff" opacity="1"/>
<text x="295.0" y="533.0" font-size="10" text-anchor="middle" font-weight="400">+0.53</text>
<rect x="324.0" y="498.0" width="56.0" height="56.0" fill="#e5eef1" stroke="#ffffff" opacity="1"/>
<text x="353.0" y="533.0" font-size="10" text-anchor="middle" font-weight="400">+0.08</text>
<rect x="382.0" y="498.0" width="56.0" height="56.0" fill="#cf685e" stroke="#ffffff" opacity="1"/>
<text x="411.0" y="533.0" font-size="10" text-anchor="middle" font-weight="400">-0.85</text>
<rect x="440.0" y="498.0" width="56.0" height="56.0" fill="#c95146" stroke="#ffffff" opacity="1"/>
<text x="469.0" y="533.0" font-size="10" text-anchor="middle" font-weight="400">-0.98</text>
<rect x="498.0" y="498.0" width="56.0" height="56.0" fill="#1f6f9f" stroke="#ffffff" opacity="1"/>
<text x="527.0" y="533.0" font-size="10" text-anchor="middle" font-weight="400">+1.00</text>
<rect x="556.0" y="498.0" width="56.0" height="56.0" fill="#ca5449" stroke="#ffffff" opacity="1"/>
<text x="585.0" y="533.0" font-size="10" text-anchor="middle" font-weight="400">-0.97</text>
<rect x="614.0" y="498.0" width="56.0" height="56.0" fill="#4788af" stroke="#ffffff" opacity="1"/>
<text x="643.0" y="533.0" font-size="10" text-anchor="middle" font-weight="400">+0.81</text>
<rect x="672.0" y="498.0" width="56.0" height="56.0" fill="#dc968f" stroke="#ffffff" opacity="1"/>
<text x="701.0" y="533.0" font-size="10" text-anchor="middle" font-weight="400">-0.58</text>
<text x="138.0" y="591.0" font-size="12" text-anchor="end" font-weight="400">Ra226</text>
<text x="585.0" y="134.0" font-size="12" text-anchor="middle" font-weight="400">Ra226</text>
<rect x="150.0" y="556.0" width="56.0" height="56.0" fill="#ebcbc7" stroke="#ffffff" opacity="1"/>
<text x="179.0" y="591.0" font-size="10" text-anchor="middle" font-weight="400">-0.27</text>
<rect x="208.0" y="556.0" width="56.0" height="56.0" fill="#c94f44" stroke="#ffffff" opacity="1"/>
<text x="237.0" y="591.0" font-size="10" text-anchor="middle" font-weight="400">-1.00</text>
<rect x="266.0" y="556.0" width="56.0" height="56.0" fill="#e9c6c1" stroke="#ffffff" opacity="1"/>
<text x="295.0" y="591.0" font-size="10" text-anchor="middle" font-weight="400">-0.30</text>
<rect x="324.0" y="556.0" width="56.0" height="56.0" fill="#e8c2be" stroke="#ffffff" opacity="1"/>
<text x="353.0" y="591.0" font-size="10" text-anchor="middle" font-weight="400">-0.32</text>
<rect x="382.0" y="556.0" width="56.0" height="56.0" fill="#2875a3" stroke="#ffffff" opacity="1"/>
<text x="411.0" y="591.0" font-size="10" text-anchor="middle" font-weight="400">+0.95</text>
<rect x="440.0" y="556.0" width="56.0" height="56.0" fill="#327ba7" stroke="#ffffff" opacity="1"/>
<text x="469.0" y="591.0" font-size="10" text-anchor="middle" font-weight="400">+0.91</text>
<rect x="498.0" y="556.0" width="56.0" height="56.0" fill="#ca5449" stroke="#ffffff" opacity="1"/>
<text x="527.0" y="591.0" font-size="10" text-anchor="middle" font-weight="400">-0.97</text>
<rect x="556.0" y="556.0" width="56.0" height="56.0" fill="#1f6f9f" stroke="#ffffff" opacity="1"/>
<text x="585.0" y="591.0" font-size="10" text-anchor="middle" font-weight="400">+1.00</text>
<rect x="614.0" y="556.0" width="56.0" height="56.0" fill="#d98b83" stroke="#ffffff" opacity="1"/>
<text x="643.0" y="591.0" font-size="10" text-anchor="middle" font-weight="400">-0.65</text>
<rect x="672.0" y="556.0" width="56.0" height="56.0" fill="#a3c4d6" stroke="#ffffff" opacity="1"/>
<text x="701.0" y="591.0" font-size="10" text-anchor="middle" font-weight="400">+0.39</text>
<text x="138.0" y="649.0" font-size="12" text-anchor="end" font-weight="400">U score</text>
<text x="643.0" y="134.0" font-size="12" text-anchor="middle" font-weight="400">U score</text>
<rect x="150.0" y="614.0" width="56.0" height="56.0" fill="#327ba7" stroke="#ffffff" opacity="1"/>
<text x="179.0" y="649.0" font-size="10" text-anchor="middle" font-weight="400">+0.91</text>
<rect x="208.0" y="614.0" width="56.0" height="56.0" fill="#5e97b9" stroke="#ffffff" opacity="1"/>
<text x="237.0" y="649.0" font-size="10" text-anchor="middle" font-weight="400">+0.71</text>
<rect x="266.0" y="614.0" width="56.0" height="56.0" fill="#2f79a5" stroke="#ffffff" opacity="1"/>
<text x="295.0" y="649.0" font-size="10" text-anchor="middle" font-weight="400">+0.92</text>
<rect x="324.0" y="614.0" width="56.0" height="56.0" fill="#e0a29c" stroke="#ffffff" opacity="1"/>
<text x="353.0" y="649.0" font-size="10" text-anchor="middle" font-weight="400">-0.51</text>
<rect x="382.0" y="614.0" width="56.0" height="56.0" fill="#e5b7b2" stroke="#ffffff" opacity="1"/>
<text x="411.0" y="649.0" font-size="10" text-anchor="middle" font-weight="400">-0.39</text>
<rect x="440.0" y="614.0" width="56.0" height="56.0" fill="#cd5f55" stroke="#ffffff" opacity="1"/>
<text x="469.0" y="649.0" font-size="10" text-anchor="middle" font-weight="400">-0.91</text>
<rect x="498.0" y="614.0" width="56.0" height="56.0" fill="#4788af" stroke="#ffffff" opacity="1"/>
<text x="527.0" y="649.0" font-size="10" text-anchor="middle" font-weight="400">+0.81</text>
<rect x="556.0" y="614.0" width="56.0" height="56.0" fill="#d98b83" stroke="#ffffff" opacity="1"/>
<text x="585.0" y="649.0" font-size="10" text-anchor="middle" font-weight="400">-0.65</text>
<rect x="614.0" y="614.0" width="56.0" height="56.0" fill="#1f6f9f" stroke="#ffffff" opacity="1"/>
<text x="643.0" y="649.0" font-size="10" text-anchor="middle" font-weight="400">+1.00</text>
<rect x="672.0" y="614.0" width="56.0" height="56.0" fill="#cd5f55" stroke="#ffffff" opacity="1"/>
<text x="701.0" y="649.0" font-size="10" text-anchor="middle" font-weight="400">-0.90</text>
<text x="138.0" y="707.0" font-size="12" text-anchor="end" font-weight="400">Ra score</text>
<text x="701.0" y="134.0" font-size="12" text-anchor="middle" font-weight="400">Ra score</text>
<rect x="150.0" y="672.0" width="56.0" height="56.0" fill="#cc5b51" stroke="#ffffff" opacity="1"/>
<text x="179.0" y="707.0" font-size="10" text-anchor="middle" font-weight="400">-0.93</text>
<rect x="208.0" y="672.0" width="56.0" height="56.0" fill="#e2aca7" stroke="#ffffff" opacity="1"/>
<text x="237.0" y="707.0" font-size="10" text-anchor="middle" font-weight="400">-0.45</text>
<rect x="266.0" y="672.0" width="56.0" height="56.0" fill="#cc5a50" stroke="#ffffff" opacity="1"/>
<text x="295.0" y="707.0" font-size="10" text-anchor="middle" font-weight="400">-0.93</text>
<rect x="324.0" y="672.0" width="56.0" height="56.0" fill="#639bbb" stroke="#ffffff" opacity="1"/>
<text x="353.0" y="707.0" font-size="10" text-anchor="middle" font-weight="400">+0.68</text>
<rect x="382.0" y="672.0" width="56.0" height="56.0" fill="#dfeaee" stroke="#ffffff" opacity="1"/>
<text x="411.0" y="707.0" font-size="10" text-anchor="middle" font-weight="400">+0.11</text>
<rect x="440.0" y="672.0" width="56.0" height="56.0" fill="#5e97b9" stroke="#ffffff" opacity="1"/>
<text x="469.0" y="707.0" font-size="10" text-anchor="middle" font-weight="400">+0.71</text>
<rect x="498.0" y="672.0" width="56.0" height="56.0" fill="#dc968f" stroke="#ffffff" opacity="1"/>
<text x="527.0" y="707.0" font-size="10" text-anchor="middle" font-weight="400">-0.58</text>
<rect x="556.0" y="672.0" width="56.0" height="56.0" fill="#a3c4d6" stroke="#ffffff" opacity="1"/>
<text x="585.0" y="707.0" font-size="10" text-anchor="middle" font-weight="400">+0.39</text>
<rect x="614.0" y="672.0" width="56.0" height="56.0" fill="#cd5f55" stroke="#ffffff" opacity="1"/>
<text x="643.0" y="707.0" font-size="10" text-anchor="middle" font-weight="400">-0.90</text>
<rect x="672.0" y="672.0" width="56.0" height="56.0" fill="#1f6f9f" stroke="#ffffff" opacity="1"/>
<text x="701.0" y="707.0" font-size="10" text-anchor="middle" font-weight="400">+1.00</text>
<text x="28.0" y="756.0" font-size="12" text-anchor="start" font-weight="400" class="small">Note: scenarios are synthetic end-members and mixtures for workflow testing; correlations are not field evidence.</text>
</svg>
