<svg xmlns="http://www.w3.org/2000/svg" width="940" height="560" viewBox="0 0 940 560" role="img">
<style>text{font-family:-apple-system,BlinkMacSystemFont,'Segoe UI',Arial,sans-serif;fill:#172026}.small{font-size:12px;fill:#52616a}.title{font-size:18px;font-weight:700}.axis{stroke:#172026;stroke-width:1}.grid{stroke:#d7e0e5;stroke-width:1}.label{font-size:13px;fill:#172026}.legend{font-size:12px;fill:#52616a}</style>
<rect x="0.0" y="0.0" width="940.0" height="560.0" fill="#ffffff" stroke="none" opacity="1"/>
<text x="28.0" y="36.0" font-size="18" text-anchor="start" font-weight="700">Figure 4. Mechanism-score decomposition for representative waters</text>
<text x="174.0" y="98.0" font-size="12" text-anchor="end" font-weight="400">OX-CARB-01</text>
<rect x="190.0" y="82.0" width="590.0" height="24.0" fill="#eef4f5" stroke="#d7e0e5" opacity="1"/>
<rect x="190.0" y="82.0" width="590.0" height="24.0" fill="#1f6f9f" stroke="none" opacity="1"/>
<text x="198.0" y="98.0" font-size="11" text-anchor="start" font-weight="400" class="small">U carbonate/redox</text>
<text x="790.0" y="98.0" font-size="11" text-anchor="start" font-weight="400" class="small">1.00</text>
<rect x="190.0" y="109.0" width="590.0" height="24.0" fill="#eef4f5" stroke="#d7e0e5" opacity="1"/>
<rect x="190.0" y="109.0" width="111.5" height="24.0" fill="#6f5aa7" stroke="none" opacity="1"/>
<text x="198.0" y="125.0" font-size="11" text-anchor="start" font-weight="400" class="small">Ra sulfate-Ba/Sr</text>
<text x="790.0" y="125.0" font-size="11" text-anchor="start" font-weight="400" class="small">0.19</text>
<rect x="190.0" y="136.0" width="590.0" height="24.0" fill="#eef4f5" stroke="#d7e0e5" opacity="1"/>
<rect x="190.0" y="136.0" width="90.4" height="24.0" fill="#c94f44" stroke="none" opacity="1"/>
<text x="198.0" y="152.0" font-size="11" text-anchor="start" font-weight="400" class="small">tailings signature</text>
<text x="790.0" y="152.0" font-size="11" text-anchor="start" font-weight="400" class="small">0.15</text>
<text x="174.0" y="196.0" font-size="12" text-anchor="end" font-weight="400">RED-BRINE-01</text>
<rect x="190.0" y="180.0" width="590.0" height="24.0" fill="#eef4f5" stroke="#d7e0e5" opacity="1"/>
<rect x="190.0" y="180.0" width="165.3" height="24.0" fill="#1f6f9f" stroke="none" opacity="1"/>
<text x="198.0" y="196.0" font-size="11" text-anchor="start" font-weight="400" class="small">U carbonate/redox</text>
<text x="790.0" y="196.0" font-size="11" text-anchor="start" font-weight="400" class="small">0.28</text>
<rect x="190.0" y="207.0" width="590.0" height="24.0" fill="#eef4f5" stroke="#d7e0e5" opacity="1"/>
<rect x="190.0" y="207.0" width="324.5" height="24.0" fill="#6f5aa7" stroke="none" opacity="1"/>
<text x="198.0" y="223.0" font-size="11" text-anchor="start" font-weight="400" class="small">Ra sulfate-Ba/Sr</text>
<text x="790.0" y="223.0" font-size="11" text-anchor="start" font-weight="400" class="small">0.55</text>
<rect x="190.0" y="234.0" width="590.0" height="24.0" fill="#eef4f5" stroke="#d7e0e5" opacity="1"/>
<rect x="190.0" y="234.0" width="324.5" height="24.0" fill="#c94f44" stroke="none" opacity="1"/>
<text x="198.0" y="250.0" font-size="11" text-anchor="start" font-weight="400" class="small">tailings signature</text>
<text x="790.0" y="250.0" font-size="11" text-anchor="start" font-weight="400" class="small">0.55</text>
<text x="174.0" y="294.0" font-size="12" text-anchor="end" font-weight="400">TAIL-SO4-01</text>
<rect x="190.0" y="278.0" width="590.0" height="24.0" fill="#eef4f5" stroke="#d7e0e5" opacity="1"/>
<rect x="190.0" y="278.0" width="135.2" height="24.0" fill="#1f6f9f" stroke="none" opacity="1"/>
<text x="198.0" y="294.0" font-size="11" text-anchor="start" font-weight="400" class="small">U carbonate/redox</text>
<text x="790.0" y="294.0" font-size="11" text-anchor="start" font-weight="400" class="small">0.23</text>
<rect x="190.0" y="305.0" width="590.0" height="24.0" fill="#eef4f5" stroke="#d7e0e5" opacity="1"/>
<rect x="190.0" y="305.0" width="412.0" height="24.0" fill="#6f5aa7" stroke="none" opacity="1"/>
<text x="198.0" y="321.0" font-size="11" text-anchor="start" font-weight="400" class="small">Ra sulfate-Ba/Sr</text>
<text x="790.0" y="321.0" font-size="11" text-anchor="start" font-weight="400" class="small">0.70</text>
<rect x="190.0" y="332.0" width="590.0" height="24.0" fill="#eef4f5" stroke="#d7e0e5" opacity="1"/>
<rect x="190.0" y="332.0" width="454.5" height="24.0" fill="#c94f44" stroke="none" opacity="1"/>
<text x="198.0" y="348.0" font-size="11" text-anchor="start" font-weight="400" class="small">tailings signature</text>
<text x="790.0" y="348.0" font-size="11" text-anchor="start" font-weight="400" class="small">0.77</text>
<text x="174.0" y="392.0" font-size="12" text-anchor="end" font-weight="400">MIX-TAIL-03</text>
<rect x="190.0" y="376.0" width="590.0" height="24.0" fill="#eef4f5" stroke="#d7e0e5" opacity="1"/>
<rect x="190.0" y="376.0" width="362.6" height="24.0" fill="#1f6f9f" stroke="none" opacity="1"/>
<text x="198.0" y="392.0" font-size="11" text-anchor="start" font-weight="400" class="small">U carbonate/redox</text>
<text x="790.0" y="392.0" font-size="11" text-anchor="start" font-weight="400" class="small">0.61</text>
<rect x="190.0" y="403.0" width="590.0" height="24.0" fill="#eef4f5" stroke="#d7e0e5" opacity="1"/>
<rect x="190.0" y="403.0" width="344.1" height="24.0" fill="#6f5aa7" stroke="none" opacity="1"/>
<text x="198.0" y="419.0" font-size="11" text-anchor="start" font-weight="400" class="small">Ra sulfate-Ba/Sr</text>
<text x="790.0" y="419.0" font-size="11" text-anchor="start" font-weight="400" class="small">0.58</text>
<rect x="190.0" y="430.0" width="590.0" height="24.0" fill="#eef4f5" stroke="#d7e0e5" opacity="1"/>
<rect x="190.0" y="430.0" width="373.2" height="24.0" fill="#c94f44" stroke="none" opacity="1"/>
<text x="198.0" y="446.0" font-size="11" text-anchor="start" font-weight="400" class="small">tailings signature</text>
<text x="790.0" y="446.0" font-size="11" text-anchor="start" font-weight="400" class="small">0.63</text>
<text x="174.0" y="490.0" font-size="12" text-anchor="end" font-weight="400">MIX-RED-03</text>
<rect x="190.0" y="474.0" width="590.0" height="24.0" fill="#eef4f5" stroke="#d7e0e5" opacity="1"/>
<rect x="190.0" y="474.0" width="377.6" height="24.0" fill="#1f6f9f" stroke="none" opacity="1"/>
<text x="198.0" y="490.0" font-size="11" text-anchor="start" font-weight="400" class="small">U carbonate/redox</text>
<text x="790.0" y="490.0" font-size="11" text-anchor="start" font-weight="400" class="small">0.64</text>
<rect x="190.0" y="501.0" width="590.0" height="24.0" fill="#eef4f5" stroke="#d7e0e5" opacity="1"/>
<rect x="190.0" y="501.0" width="303.3" height="24.0" fill="#6f5aa7" stroke="none" opacity="1"/>
<text x="198.0" y="517.0" font-size="11" text-anchor="start" font-weight="400" class="small">Ra sulfate-Ba/Sr</text>
<text x="790.0" y="517.0" font-size="11" text-anchor="start" font-weight="400" class="small">0.51</text>
<rect x="190.0" y="528.0" width="590.0" height="24.0" fill="#eef4f5" stroke="#d7e0e5" opacity="1"/>
<rect x="190.0" y="528.0" width="333.4" height="24.0" fill="#c94f44" stroke="none" opacity="1"/>
<text x="198.0" y="544.0" font-size="11" text-anchor="start" font-weight="400" class="small">tailings signature</text>
<text x="790.0" y="544.0" font-size="11" text-anchor="start" font-weight="400" class="small">0.57</text>
<text x="28.0" y="525.0" font-size="12" text-anchor="start" font-weight="400" class="small">Scores are transparent screening indices derived from input chemistry; they are not calibrated risk probabilities.</text>
</svg>
