<svg xmlns="http://www.w3.org/2000/svg" width="930" height="560" viewBox="0 0 930 560" role="img">
<style>text{font-family:-apple-system,BlinkMacSystemFont,'Segoe UI',Arial,sans-serif;fill:#172026}.small{font-size:12px;fill:#52616a}.title{font-size:18px;font-weight:700}.axis{stroke:#172026;stroke-width:1}.grid{stroke:#d7e0e5;stroke-width:1}.label{font-size:13px;fill:#172026}.legend{font-size:12px;fill:#52616a}</style>
<rect x="0.0" y="0.0" width="930.0" height="560.0" fill="#ffffff" stroke="none" opacity="1"/>
<text x="28.0" y="36.0" font-size="18" text-anchor="start" font-weight="700">Figure 5. Saturation-index heatmap from PHREEQC selected output</text>
<text x="219.0" y="80.0" font-size="12" text-anchor="middle" font-weight="400">Calcite</text>
<text x="317.0" y="80.0" font-size="12" text-anchor="middle" font-weight="400">Barite</text>
<text x="415.0" y="80.0" font-size="12" text-anchor="middle" font-weight="400">Celestite</text>
<text x="513.0" y="80.0" font-size="12" text-anchor="middle" font-weight="400">Gypsum</text>
<text x="611.0" y="80.0" font-size="12" text-anchor="middle" font-weight="400">Uraninite</text>
<text x="709.0" y="80.0" font-size="12" text-anchor="middle" font-weight="400">Coffinite</text>
<text x="807.0" y="80.0" font-size="12" text-anchor="middle" font-weight="400">RaSO4</text>
<text x="156.0" y="132.0" font-size="12" text-anchor="end" font-weight="400">OX-CARB-01</text>
<rect x="170.0" y="96.0" width="96.0" height="56.0" fill="#f3e9e7" stroke="#ffffff" opacity="1"/>
<text x="219.0" y="131.0" font-size="11" text-anchor="middle" font-weight="400">+0.47</text>
<rect x="268.0" y="96.0" width="96.0" height="56.0" fill="#ecf2f4" stroke="#ffffff" opacity="1"/>
<text x="317.0" y="131.0" font-size="11" text-anchor="middle" font-weight="400">-0.27</text>
<rect x="366.0" y="96.0" width="96.0" height="56.0" fill="#629aba" stroke="#ffffff" opacity="1"/>
<text x="415.0" y="131.0" font-size="11" text-anchor="middle" font-weight="400">-3.45</text>
<rect x="464.0" y="96.0" width="96.0" height="56.0" fill="#9fc1d4" stroke="#ffffff" opacity="1"/>
<text x="513.0" y="131.0" font-size="11" text-anchor="middle" font-weight="400">-2.04</text>
<rect x="562.0" y="96.0" width="96.0" height="56.0" fill="#1f6f9f" stroke="#ffffff" opacity="1"/>
<text x="611.0" y="131.0" font-size="11" text-anchor="middle" font-weight="400">-16.06</text>
<rect x="660.0" y="96.0" width="96.0" height="56.0" fill="#1f6f9f" stroke="#ffffff" opacity="1"/>
<text x="709.0" y="131.0" font-size="11" text-anchor="middle" font-weight="400">-1000.00</text>
<rect x="758.0" y="96.0" width="96.0" height="56.0" fill="#1f6f9f" stroke="#ffffff" opacity="1"/>
<text x="807.0" y="131.0" font-size="11" text-anchor="middle" font-weight="400">-6.94</text>
<text x="156.0" y="190.0" font-size="12" text-anchor="end" font-weight="400">RED-BRINE-01</text>
<rect x="170.0" y="154.0" width="96.0" height="56.0" fill="#f7f9f8" stroke="#ffffff" opacity="1"/>
<text x="219.0" y="189.0" font-size="11" text-anchor="middle" font-weight="400">+0.01</text>
<rect x="268.0" y="154.0" width="96.0" height="56.0" fill="#dae6ec" stroke="#ffffff" opacity="1"/>
<text x="317.0" y="189.0" font-size="11" text-anchor="middle" font-weight="400">-0.69</text>
<rect x="366.0" y="154.0" width="96.0" height="56.0" fill="#5b96b8" stroke="#ffffff" opacity="1"/>
<text x="415.0" y="189.0" font-size="11" text-anchor="middle" font-weight="400">-3.59</text>
<rect x="464.0" y="154.0" width="96.0" height="56.0" fill="#81aec7" stroke="#ffffff" opacity="1"/>
<text x="513.0" y="189.0" font-size="11" text-anchor="middle" font-weight="400">-2.73</text>
<rect x="562.0" y="154.0" width="96.0" height="56.0" fill="#ecd1ce" stroke="#ffffff" opacity="1"/>
<text x="611.0" y="189.0" font-size="11" text-anchor="middle" font-weight="400">+1.17</text>
<rect x="660.0" y="154.0" width="96.0" height="56.0" fill="#1f6f9f" stroke="#ffffff" opacity="1"/>
<text x="709.0" y="189.0" font-size="11" text-anchor="middle" font-weight="400">-1000.00</text>
<rect x="758.0" y="154.0" width="96.0" height="56.0" fill="#1f6f9f" stroke="#ffffff" opacity="1"/>
<text x="807.0" y="189.0" font-size="11" text-anchor="middle" font-weight="400">-7.22</text>
<text x="156.0" y="248.0" font-size="12" text-anchor="end" font-weight="400">TAIL-SO4-01</text>
<rect x="170.0" y="212.0" width="96.0" height="56.0" fill="#dae7ec" stroke="#ffffff" opacity="1"/>
<text x="219.0" y="247.0" font-size="11" text-anchor="middle" font-weight="400">-0.68</text>
<rect x="268.0" y="212.0" width="96.0" height="56.0" fill="#f2e4e2" stroke="#ffffff" opacity="1"/>
<text x="317.0" y="247.0" font-size="11" text-anchor="middle" font-weight="400">+0.62</text>
<rect x="366.0" y="212.0" width="96.0" height="56.0" fill="#adcada" stroke="#ffffff" opacity="1"/>
<text x="415.0" y="247.0" font-size="11" text-anchor="middle" font-weight="400">-1.71</text>
<rect x="464.0" y="212.0" width="96.0" height="56.0" fill="#e4edf1" stroke="#ffffff" opacity="1"/>
<text x="513.0" y="247.0" font-size="11" text-anchor="middle" font-weight="400">-0.44</text>
<rect x="562.0" y="212.0" width="96.0" height="56.0" fill="#1f6f9f" stroke="#ffffff" opacity="1"/>
<text x="611.0" y="247.0" font-size="11" text-anchor="middle" font-weight="400">-5.22</text>
<rect x="660.0" y="212.0" width="96.0" height="56.0" fill="#1f6f9f" stroke="#ffffff" opacity="1"/>
<text x="709.0" y="247.0" font-size="11" text-anchor="middle" font-weight="400">-1000.00</text>
<rect x="758.0" y="212.0" width="96.0" height="56.0" fill="#1f6f9f" stroke="#ffffff" opacity="1"/>
<text x="807.0" y="247.0" font-size="11" text-anchor="middle" font-weight="400">-5.33</text>
<text x="156.0" y="306.0" font-size="12" text-anchor="end" font-weight="400">MIX-TAIL-03</text>
<rect x="170.0" y="270.0" width="96.0" height="56.0" fill="#f7f9f8" stroke="#ffffff" opacity="1"/>
<text x="219.0" y="305.0" font-size="11" text-anchor="middle" font-weight="400">+0.01</text>
<rect x="268.0" y="270.0" width="96.0" height="56.0" fill="#f2e7e4" stroke="#ffffff" opacity="1"/>
<text x="317.0" y="305.0" font-size="11" text-anchor="middle" font-weight="400">+0.56</text>
<rect x="366.0" y="270.0" width="96.0" height="56.0" fill="#9ec0d3" stroke="#ffffff" opacity="1"/>
<text x="415.0" y="305.0" font-size="11" text-anchor="middle" font-weight="400">-2.07</text>
<rect x="464.0" y="270.0" width="96.0" height="56.0" fill="#d5e4ea" stroke="#ffffff" opacity="1"/>
<text x="513.0" y="305.0" font-size="11" text-anchor="middle" font-weight="400">-0.79</text>
<rect x="562.0" y="270.0" width="96.0" height="56.0" fill="#1f6f9f" stroke="#ffffff" opacity="1"/>
<text x="611.0" y="305.0" font-size="11" text-anchor="middle" font-weight="400">-10.66</text>
<rect x="660.0" y="270.0" width="96.0" height="56.0" fill="#1f6f9f" stroke="#ffffff" opacity="1"/>
<text x="709.0" y="305.0" font-size="11" text-anchor="middle" font-weight="400">-1000.00</text>
<rect x="758.0" y="270.0" width="96.0" height="56.0" fill="#1f6f9f" stroke="#ffffff" opacity="1"/>
<text x="807.0" y="305.0" font-size="11" text-anchor="middle" font-weight="400">-5.66</text>
<text x="156.0" y="364.0" font-size="12" text-anchor="end" font-weight="400">MIX-RED-03</text>
<rect x="170.0" y="328.0" width="96.0" height="56.0" fill="#f5f0ef" stroke="#ffffff" opacity="1"/>
<text x="219.0" y="363.0" font-size="11" text-anchor="middle" font-weight="400">+0.27</text>
<rect x="268.0" y="328.0" width="96.0" height="56.0" fill="#eef4f5" stroke="#ffffff" opacity="1"/>
<text x="317.0" y="363.0" font-size="11" text-anchor="middle" font-weight="400">-0.21</text>
<rect x="366.0" y="328.0" width="96.0" height="56.0" fill="#6ca0bf" stroke="#ffffff" opacity="1"/>
<text x="415.0" y="363.0" font-size="11" text-anchor="middle" font-weight="400">-3.21</text>
<rect x="464.0" y="328.0" width="96.0" height="56.0" fill="#96bbd0" stroke="#ffffff" opacity="1"/>
<text x="513.0" y="363.0" font-size="11" text-anchor="middle" font-weight="400">-2.25</text>
<rect x="562.0" y="328.0" width="96.0" height="56.0" fill="#2d78a5" stroke="#ffffff" opacity="1"/>
<text x="611.0" y="363.0" font-size="11" text-anchor="middle" font-weight="400">-4.65</text>
<rect x="660.0" y="328.0" width="96.0" height="56.0" fill="#1f6f9f" stroke="#ffffff" opacity="1"/>
<text x="709.0" y="363.0" font-size="11" text-anchor="middle" font-weight="400">-1000.00</text>
<rect x="758.0" y="328.0" width="96.0" height="56.0" fill="#1f6f9f" stroke="#ffffff" opacity="1"/>
<text x="807.0" y="363.0" font-size="11" text-anchor="middle" font-weight="400">-6.73</text>
<text x="28.0" y="510.0" font-size="12" text-anchor="start" font-weight="400" class="small">Warm colors indicate supersaturation tendency; blue colors indicate undersaturation. Interpretation depends on database coverage and equilibrium assumptions.</text>
</svg>
