<svg xmlns="http://www.w3.org/2000/svg" width="670" height="410" viewBox="0 0 670 410" role="img">
<style>text{font-family:-apple-system,BlinkMacSystemFont,'Segoe UI',Arial,sans-serif;fill:#172026} .small{font-size:12px;fill:#52616a}.label{font-size:14px}.title{font-size:18px;font-weight:700}.axis{stroke:#172026;stroke-width:1.1}.grid{stroke:#d7e0e5;stroke-width:1}</style>
<text x="75.0" y="54.0" font-size="18" text-anchor="start" fill="#172026" font-weight="700" class="title">Heat decay and screening canister temperature</text>
<line x1="75.0" y1="342.0" x2="595.0" y2="342.0" stroke="#172026" stroke-width="1.2"/>
<line x1="75.0" y1="72.0" x2="75.0" y2="342.0" stroke="#172026" stroke-width="1.2"/>
<text x="335.0" y="384.0" font-size="13" text-anchor="middle" fill="#172026" font-weight="400" class="small">time after closure (yr, log scale)</text>
<text x="27.0" y="207.0" font-size="13" text-anchor="middle" fill="#172026" font-weight="400" class="small">temperature / heat</text>
<line x1="75.0" y1="72.0" x2="595.0" y2="72.0" stroke="#d7e0e5" stroke-width="1"/>
<line x1="75.0" y1="139.5" x2="595.0" y2="139.5" stroke="#d7e0e5" stroke-width="1"/>
<line x1="75.0" y1="207.0" x2="595.0" y2="207.0" stroke="#d7e0e5" stroke-width="1"/>
<line x1="75.0" y1="274.5" x2="595.0" y2="274.5" stroke="#d7e0e5" stroke-width="1"/>
<line x1="75.0" y1="342.0" x2="595.0" y2="342.0" stroke="#d7e0e5" stroke-width="1"/>
<polyline points="75.0,92.8 114.1,97.4 176.2,114.8 210.4,134.0 258.9,178.5 297.0,223.3 319.5,247.9 335.6,262.2 374.4,286.8 426.0,311.5 465.1,322.9 555.9,337.3 595.0,341.1" fill="none" stroke="#c94f44" stroke-width="2.5"/>
<polyline points="75.0,142.6 114.1,146.3 176.2,160.2 210.4,175.6 258.9,211.2 297.0,247.0 319.5,266.7 335.6,278.2 374.4,297.8 426.0,317.6 465.1,326.7 555.9,338.2 595.0,341.3" fill="none" stroke="#1f6f9f" stroke-width="2.5"/>
<line x1="75.0" y1="342.0" x2="75.0" y2="347.0" stroke="#172026" stroke-width="1.0"/>
<text x="75.0" y="364.0" font-size="11" text-anchor="middle" fill="#172026" font-weight="400" class="small">0</text>
<line x1="210.4" y1="342.0" x2="210.4" y2="347.0" stroke="#172026" stroke-width="1.0"/>
<text x="210.4" y="364.0" font-size="11" text-anchor="middle" fill="#172026" font-weight="400" class="small">10</text>
<line x1="335.6" y1="342.0" x2="335.6" y2="347.0" stroke="#172026" stroke-width="1.0"/>
<text x="335.6" y="364.0" font-size="11" text-anchor="middle" fill="#172026" font-weight="400" class="small">100</text>
<line x1="465.1" y1="342.0" x2="465.1" y2="347.0" stroke="#172026" stroke-width="1.0"/>
<text x="465.1" y="364.0" font-size="11" text-anchor="middle" fill="#172026" font-weight="400" class="small">1000</text>
<line x1="595.0" y1="342.0" x2="595.0" y2="347.0" stroke="#172026" stroke-width="1.0"/>
<text x="595.0" y="364.0" font-size="11" text-anchor="middle" fill="#172026" font-weight="400" class="small">10000</text>
<text x="67.0" y="346.0" font-size="11" text-anchor="end" fill="#172026" font-weight="400" class="small">20 C</text>
<text x="67.0" y="238.0" font-size="11" text-anchor="end" fill="#172026" font-weight="400" class="small">40 C</text>
<text x="67.0" y="130.0" font-size="11" text-anchor="end" fill="#172026" font-weight="400" class="small">60 C</text>
<text x="402.0" y="96.0" font-size="13" text-anchor="start" fill="#c94f44" font-weight="700">red: Q&#x27; W/m</text>
<text x="402.0" y="118.0" font-size="13" text-anchor="start" fill="#1f6f9f" font-weight="700">blue: T surface C</text>
<line x1="75.0" y1="-90.0" x2="595.0" y2="-90.0" stroke="#d08b2f" stroke-width="1.5" stroke-dasharray="5 4"/>
<text x="424.0" y="82.0" font-size="12" text-anchor="start" fill="#d08b2f" font-weight="400">NWMO design FAQ: surface &lt;100 C</text>
</svg>
