<svg xmlns="http://www.w3.org/2000/svg" width="700" height="410" viewBox="0 0 700 410" role="img">
<style>text{font-family:-apple-system,BlinkMacSystemFont,'Segoe UI',Arial,sans-serif;fill:#172026} .small{font-size:12px;fill:#52616a}.label{font-size:14px}.title{font-size:18px;font-weight:700}.axis{stroke:#172026;stroke-width:1.1}.grid{stroke:#d7e0e5;stroke-width:1}</style>
<text x="82.0" y="52.0" font-size="18" text-anchor="start" fill="#172026" font-weight="700" class="title">Sulfide transport-limited copper corrosion envelope</text>
<line x1="82.0" y1="340.0" x2="602.0" y2="340.0" stroke="#172026" stroke-width="1.2"/>
<line x1="82.0" y1="70.0" x2="82.0" y2="340.0" stroke="#172026" stroke-width="1.2"/>
<text x="342.0" y="382.0" font-size="13" text-anchor="middle" fill="#172026" font-weight="400" class="small">HS- concentration (umol/L, log scale)</text>
<text x="34.0" y="205.0" font-size="13" text-anchor="middle" fill="#172026" font-weight="400" class="small">Cu penetration over 100 kyr (mm, log scale)</text>
<line x1="82.0" y1="323.0" x2="602.0" y2="323.0" stroke="#d7e0e5" stroke-width="1"/>
<text x="74.0" y="327.0" font-size="10" text-anchor="end" fill="#172026" font-weight="400" class="small">0.001</text>
<line x1="82.0" y1="266.5" x2="602.0" y2="266.5" stroke="#d7e0e5" stroke-width="1"/>
<text x="74.0" y="270.5" font-size="10" text-anchor="end" fill="#172026" font-weight="400" class="small">0.01</text>
<line x1="82.0" y1="210.0" x2="602.0" y2="210.0" stroke="#d7e0e5" stroke-width="1"/>
<text x="74.0" y="214.0" font-size="10" text-anchor="end" fill="#172026" font-weight="400" class="small">0.1</text>
<line x1="82.0" y1="153.5" x2="602.0" y2="153.5" stroke="#d7e0e5" stroke-width="1"/>
<text x="74.0" y="157.5" font-size="10" text-anchor="end" fill="#172026" font-weight="400" class="small">1</text>
<line x1="82.0" y1="126.5" x2="602.0" y2="126.5" stroke="#d7e0e5" stroke-width="1"/>
<text x="74.0" y="130.5" font-size="10" text-anchor="end" fill="#172026" font-weight="400" class="small">3</text>
<line x1="82.0" y1="97.0" x2="602.0" y2="97.0" stroke="#d7e0e5" stroke-width="1"/>
<text x="74.0" y="101.0" font-size="10" text-anchor="end" fill="#172026" font-weight="400" class="small">10</text>
<polyline points="82.0,340.0 201.3,340.0 332.1,317.0 451.4,290.0 582.2,260.4 602.0,256.0" fill="none" stroke="#5d8f3a" stroke-width="2.5"/>
<text x="430.0" y="278.9" font-size="12" text-anchor="start" fill="#5d8f3a" font-weight="700">De=1e-12</text>
<polyline points="82.0,317.0 201.3,290.0 332.1,260.4 451.4,233.5 582.2,203.9 602.0,199.5" fill="none" stroke="#1f6f9f" stroke-width="2.5"/>
<text x="430.0" y="222.4" font-size="12" text-anchor="start" fill="#1f6f9f" font-weight="700">De=1e-11</text>
<polyline points="82.0,260.4 201.3,233.5 332.1,203.9 451.4,177.0 582.2,147.4 602.0,143.0" fill="none" stroke="#c94f44" stroke-width="2.5"/>
<text x="430.0" y="165.9" font-size="12" text-anchor="start" fill="#c94f44" font-weight="700">De=1e-10</text>
<polyline points="82.0,233.5 201.3,206.5 332.1,177.0 451.4,150.0 582.2,120.5 602.0,116.0" fill="none" stroke="#6f5aa7" stroke-width="2.5"/>
<text x="430.0" y="139.0" font-size="12" text-anchor="start" fill="#6f5aa7" font-weight="700">De=3e-10</text>
<line x1="82.0" y1="126.5" x2="602.0" y2="126.5" stroke="#d08b2f" stroke-width="1.5" stroke-dasharray="6 4"/>
<text x="385.0" y="119.5" font-size="12" text-anchor="start" fill="#d08b2f" font-weight="400">3 mm coating reference</text>
<line x1="82.0" y1="340.0" x2="82.0" y2="345.0" stroke="#172026" stroke-width="1.0"/>
<text x="82.0" y="362.0" font-size="11" text-anchor="middle" fill="#172026" font-weight="400" class="small">1</text>
<line x1="332.1" y1="340.0" x2="332.1" y2="345.0" stroke="#172026" stroke-width="1.0"/>
<text x="332.1" y="362.0" font-size="11" text-anchor="middle" fill="#172026" font-weight="400" class="small">10</text>
<line x1="582.2" y1="340.0" x2="582.2" y2="345.0" stroke="#172026" stroke-width="1.0"/>
<text x="582.2" y="362.0" font-size="11" text-anchor="middle" fill="#172026" font-weight="400" class="small">100</text>
<line x1="602.0" y1="340.0" x2="602.0" y2="345.0" stroke="#172026" stroke-width="1.0"/>
<text x="602.0" y="362.0" font-size="11" text-anchor="middle" fill="#172026" font-weight="400" class="small">120</text>
</svg>
