<svg xmlns="http://www.w3.org/2000/svg" width="700" height="410" viewBox="0 0 700 410" role="img">
<style>text{font-family:-apple-system,BlinkMacSystemFont,'Segoe UI',Arial,sans-serif;fill:#172026} .small{font-size:12px;fill:#52616a}.label{font-size:14px}.title{font-size:18px;font-weight:700}.axis{stroke:#172026;stroke-width:1.1}.grid{stroke:#d7e0e5;stroke-width:1}</style>
<text x="75.0" y="52.0" font-size="18" text-anchor="start" fill="#172026" font-weight="700" class="title">No-loss H2 pressure envelope from corrosion current</text>
<line x1="75.0" y1="340.0" x2="595.0" y2="340.0" stroke="#172026" stroke-width="1.2"/>
<line x1="75.0" y1="70.0" x2="75.0" y2="340.0" stroke="#172026" stroke-width="1.2"/>
<text x="335.0" y="382.0" font-size="13" text-anchor="middle" fill="#172026" font-weight="400" class="small">time (yr)</text>
<text x="27.0" y="205.0" font-size="13" text-anchor="middle" fill="#172026" font-weight="400" class="small">gas pressure (MPa)</text>
<line x1="75.0" y1="340.0" x2="595.0" y2="340.0" stroke="#d7e0e5" stroke-width="1"/>
<text x="67.0" y="344.0" font-size="11" text-anchor="end" fill="#172026" font-weight="400" class="small">0</text>
<line x1="75.0" y1="286.0" x2="595.0" y2="286.0" stroke="#d7e0e5" stroke-width="1"/>
<text x="67.0" y="290.0" font-size="11" text-anchor="end" fill="#172026" font-weight="400" class="small">1</text>
<line x1="75.0" y1="232.0" x2="595.0" y2="232.0" stroke="#d7e0e5" stroke-width="1"/>
<text x="67.0" y="236.0" font-size="11" text-anchor="end" fill="#172026" font-weight="400" class="small">2</text>
<line x1="75.0" y1="178.0" x2="595.0" y2="178.0" stroke="#d7e0e5" stroke-width="1"/>
<text x="67.0" y="182.0" font-size="11" text-anchor="end" fill="#172026" font-weight="400" class="small">3</text>
<line x1="75.0" y1="124.0" x2="595.0" y2="124.0" stroke="#d7e0e5" stroke-width="1"/>
<text x="67.0" y="128.0" font-size="11" text-anchor="end" fill="#172026" font-weight="400" class="small">4</text>
<line x1="75.0" y1="70.0" x2="595.0" y2="70.0" stroke="#d7e0e5" stroke-width="1"/>
<text x="67.0" y="74.0" font-size="11" text-anchor="end" fill="#172026" font-weight="400" class="small">5</text>
<polyline points="75.0,340.0 85.4,339.8 101.0,339.4 127.0,338.9 179.0,337.8 283.0,335.6 595.0,329.0" fill="none" stroke="#5d8f3a" stroke-width="2.5"/>
<text x="430.0" y="328.4" font-size="12" text-anchor="start" fill="#5d8f3a" font-weight="700">0.1 uA/m2</text>
<polyline points="75.0,340.0 85.4,337.8 101.0,334.5 127.0,329.0 179.0,318.0 283.0,295.9 595.0,229.9" fill="none" stroke="#1f6f9f" stroke-width="2.5"/>
<text x="430.0" y="268.9" font-size="12" text-anchor="start" fill="#1f6f9f" font-weight="700">1 uA/m2</text>
<polyline points="75.0,340.0 85.4,318.0 101.0,284.9 127.0,229.9 179.0,119.7 283.0,70.0 595.0,70.0" fill="none" stroke="#c94f44" stroke-width="2.5"/>
<text x="430.0" y="65.0" font-size="12" text-anchor="start" fill="#c94f44" font-weight="700">10 uA/m2</text>
<line x1="75.0" y1="232.0" x2="595.0" y2="232.0" stroke="#d08b2f" stroke-width="1.5" stroke-dasharray="6 4"/>
<text x="395.0" y="225.0" font-size="12" text-anchor="start" fill="#d08b2f" font-weight="400">example gas-entry threshold</text>
<line x1="75.0" y1="340.0" x2="75.0" y2="345.0" stroke="#172026" stroke-width="1.0"/>
<text x="75.0" y="362.0" font-size="11" text-anchor="middle" fill="#172026" font-weight="400" class="small">0</text>
<line x1="179.0" y1="340.0" x2="179.0" y2="345.0" stroke="#172026" stroke-width="1.0"/>
<text x="179.0" y="362.0" font-size="11" text-anchor="middle" fill="#172026" font-weight="400" class="small">1000</text>
<line x1="283.0" y1="340.0" x2="283.0" y2="345.0" stroke="#172026" stroke-width="1.0"/>
<text x="283.0" y="362.0" font-size="11" text-anchor="middle" fill="#172026" font-weight="400" class="small">2000</text>
<line x1="595.0" y1="340.0" x2="595.0" y2="345.0" stroke="#172026" stroke-width="1.0"/>
<text x="595.0" y="362.0" font-size="11" text-anchor="middle" fill="#172026" font-weight="400" class="small">5000</text>
<text x="116.0" y="103.0" font-size="12" text-anchor="start" fill="#172026" font-weight="400" class="small">upper bound: no dissolution, diffusion, or microbial consumption</text>
</svg>
