<svg xmlns="http://www.w3.org/2000/svg" width="1180" height="640" viewBox="0 0 1180 640">
  <rect width="1180" height="640" fill="#ffffff"/>
  <text x="36" y="42" font-size="24" font-weight="700" fill="#172033">Revell groundwater chemistry depth framework</text>
  <line x1="170" y1="90" x2="170" y2="545" stroke="#172033" stroke-width="2"/>
  <text x="48" y="82" font-size="14" fill="#475569">Depth, m bgs</text>
  <line x1="163" y1="90.0" x2="177" y2="90.0" stroke="#172033"/>
  <text x="112" y="95.0" font-size="12" fill="#475569">0</text>
  <line x1="163" y1="135.5" x2="177" y2="135.5" stroke="#172033"/>
  <text x="112" y="140.5" font-size="12" fill="#475569">100</text>
  <line x1="163" y1="181.0" x2="177" y2="181.0" stroke="#172033"/>
  <text x="112" y="186.0" font-size="12" fill="#475569">200</text>
  <line x1="163" y1="226.5" x2="177" y2="226.5" stroke="#172033"/>
  <text x="112" y="231.5" font-size="12" fill="#475569">300</text>
  <line x1="163" y1="272.0" x2="177" y2="272.0" stroke="#172033"/>
  <text x="112" y="277.0" font-size="12" fill="#475569">400</text>
  <line x1="163" y1="317.5" x2="177" y2="317.5" stroke="#172033"/>
  <text x="112" y="322.5" font-size="12" fill="#475569">500</text>
  <line x1="163" y1="363.0" x2="177" y2="363.0" stroke="#172033"/>
  <text x="112" y="368.0" font-size="12" fill="#475569">600</text>
  <line x1="163" y1="408.5" x2="177" y2="408.5" stroke="#172033"/>
  <text x="112" y="413.5" font-size="12" fill="#475569">700</text>
  <line x1="163" y1="454.0" x2="177" y2="454.0" stroke="#172033"/>
  <text x="112" y="459.0" font-size="12" fill="#475569">800</text>
  <line x1="163" y1="499.5" x2="177" y2="499.5" stroke="#172033"/>
  <text x="112" y="504.5" font-size="12" fill="#475569">900</text>
  <line x1="163" y1="545.0" x2="177" y2="545.0" stroke="#172033"/>
  <text x="112" y="550.0" font-size="12" fill="#475569">1000</text>
  <rect x="235" y="90.0" width="180" height="136.5" rx="4" fill="#dbeafe" stroke="#64748b"/>
  <text x="325" y="112.0" text-anchor="middle" font-size="13" font-weight="700" fill="#172033">Shallow recharge water</text>
  <text x="245" y="136.0" font-size="12" fill="#172033">Ca-HCO3 type,</text>
  <text x="245" y="153.0" font-size="12" fill="#172033">comparatively dilute</text>
  <rect x="445" y="226.5" width="180" height="136.5" rx="4" fill="#e0f2fe" stroke="#64748b"/>
  <text x="535" y="248.5" text-anchor="middle" font-size="13" font-weight="700" fill="#172033">Transition / mixed fracture water</text>
  <text x="455" y="272.5" font-size="12" fill="#172033">Mixing between shallow</text>
  <text x="455" y="289.5" font-size="12" fill="#172033">recharge and deeper</text>
  <text x="455" y="306.5" font-size="12" fill="#172033">Ca-Na-Cl-HCO3 water</text>
  <rect x="655" y="317.5" width="180" height="136.5" rx="4" fill="#fef3c7" stroke="#64748b"/>
  <text x="745" y="339.5" text-anchor="middle" font-size="13" font-weight="700" fill="#172033">Repository-depth crystalline-rock water</text>
  <text x="665" y="363.5" font-size="12" fill="#172033">Ca-Na-Cl-HCO3 and</text>
  <text x="665" y="380.5" font-size="12" fill="#172033">deeper saline</text>
  <text x="665" y="397.5" font-size="12" fill="#172033">fracture-water</text>
  <rect x="865" y="363.0" width="180" height="182.0" rx="4" fill="#fee2e2" stroke="#64748b"/>
  <text x="955" y="385.0" text-anchor="middle" font-size="13" font-weight="700" fill="#172033">Deep saline end-member</text>
  <text x="875" y="409.0" font-size="12" fill="#172033">Ca-Na-Cl dominated</text>
  <text x="875" y="426.0" font-size="12" fill="#172033">deep fracture water /</text>
  <text x="875" y="443.0" font-size="12" fill="#172033">brine tendency</text>
  <rect x="220" y="317.5" width="880" height="136.5" fill="none" stroke="#dc2626" stroke-width="3" stroke-dasharray="8 7"/>
  <text x="672" y="322.05" text-anchor="middle" font-size="15" fill="#dc2626">500-800 m repository-depth screening window</text>
  <text x="48" y="590" font-size="14" fill="#475569">Quantitative pH/Eh/Cl-Br sample values require raw NWMO tables; this figure preserves only public framework-level constraints.</text>
</svg>
