<svg xmlns="http://www.w3.org/2000/svg" width="900" height="430" viewBox="0 0 900 430">
<rect width="100%" height="100%" fill="#ffffff"/>
<text x="40.0" y="38.0" font-size="19" font-family="Arial, sans-serif" fill="#102030" text-anchor="start" font-weight="700">Health Canada 放射性饮用水参考浓度/MAC（对数轴）</text>
<line x1="170" y1="340" x2="810" y2="340" stroke="#333"/>
<line x1="170" y1="70" x2="170" y2="340" stroke="#333"/>
<line x1="170.0" y1="70" x2="170.0" y2="340" stroke="#e5e8ec"/>
<text x="170.0" y="365.0" font-size="11" font-family="Arial, sans-serif" fill="#555" text-anchor="middle" font-weight="400">10^-1</text>
<line x1="298.0" y1="70" x2="298.0" y2="340" stroke="#e5e8ec"/>
<text x="298.0" y="365.0" font-size="11" font-family="Arial, sans-serif" fill="#555" text-anchor="middle" font-weight="400">10^0</text>
<line x1="426.0" y1="70" x2="426.0" y2="340" stroke="#e5e8ec"/>
<text x="426.0" y="365.0" font-size="11" font-family="Arial, sans-serif" fill="#555" text-anchor="middle" font-weight="400">10^1</text>
<line x1="554.0" y1="70" x2="554.0" y2="340" stroke="#e5e8ec"/>
<text x="554.0" y="365.0" font-size="11" font-family="Arial, sans-serif" fill="#555" text-anchor="middle" font-weight="400">10^2</text>
<line x1="682.0" y1="70" x2="682.0" y2="340" stroke="#e5e8ec"/>
<text x="682.0" y="365.0" font-size="11" font-family="Arial, sans-serif" fill="#555" text-anchor="middle" font-weight="400">10^3</text>
<line x1="810.0" y1="70" x2="810.0" y2="340" stroke="#e5e8ec"/>
<text x="810.0" y="365.0" font-size="11" font-family="Arial, sans-serif" fill="#555" text-anchor="middle" font-weight="400">10^4</text>
<text x="158.0" y="116.0" font-size="13" font-family="Arial, sans-serif" fill="#223" text-anchor="end" font-weight="400">Lead-210</text>
<rect x="170" y="96" width="166.5" height="30" fill="#2f6f73"/>
<text x="344.5" y="117.0" font-size="12" font-family="Arial, sans-serif" fill="#223" text-anchor="start" font-weight="400">2 Bq/L</text>
<text x="158.0" y="164.0" font-size="13" font-family="Arial, sans-serif" fill="#223" text-anchor="end" font-weight="400">Radium-226</text>
<rect x="170" y="144" width="217.5" height="30" fill="#7b4f9f"/>
<text x="395.5" y="165.0" font-size="12" font-family="Arial, sans-serif" fill="#223" text-anchor="start" font-weight="400">5 Bq/L</text>
<text x="158.0" y="212.0" font-size="13" font-family="Arial, sans-serif" fill="#223" text-anchor="end" font-weight="400">Radium-228</text>
<rect x="170" y="192" width="166.5" height="30" fill="#b96f36"/>
<text x="344.5" y="213.0" font-size="12" font-family="Arial, sans-serif" fill="#223" text-anchor="start" font-weight="400">2 Bq/L</text>
<text x="158.0" y="260.0" font-size="13" font-family="Arial, sans-serif" fill="#223" text-anchor="end" font-weight="400">Polonium-210</text>
<rect x="170" y="240" width="128.0" height="30" fill="#4b79a8"/>
<text x="306.0" y="261.0" font-size="12" font-family="Arial, sans-serif" fill="#223" text-anchor="start" font-weight="400">1 Bq/L</text>
<text x="158.0" y="308.0" font-size="13" font-family="Arial, sans-serif" fill="#223" text-anchor="end" font-weight="400">Radon-222</text>
<rect x="170" y="288" width="550.5" height="30" fill="#9b3f4e"/>
<text x="728.5" y="309.0" font-size="12" font-family="Arial, sans-serif" fill="#223" text-anchor="start" font-weight="400">2000 Bq/L</text>
<text x="40.0" y="395.0" font-size="12" font-family="Arial, sans-serif" fill="#445" text-anchor="start" font-weight="400">注：U 的 20 ug/L 为化学毒性基准，不与 Bq/L 图同轴绘制；Rn-222 参考浓度主要用于解释水向室内空气释氡场景。</text>
</svg>
