<svg xmlns="http://www.w3.org/2000/svg" width="1040" height="620" viewBox="0 0 1040 620">
<rect width="100%" height="100%" fill="#fff"/>
<text x="40.0" y="38.0" font-size="20" font-family="Arial, sans-serif" fill="#102030" text-anchor="start" font-weight="700">SKB Forsmark Kd：核素吸附强度跨越 5 个以上数量级</text>
<line x1="277.9" y1="62" x2="277.9" y2="543" stroke="#e1e6ea"/>
<text x="277.9" y="565.0" font-size="11" font-family="Arial, sans-serif" fill="#59636b" text-anchor="middle" font-weight="400">10^-7</text>
<line x1="363.6" y1="62" x2="363.6" y2="543" stroke="#e1e6ea"/>
<text x="363.6" y="565.0" font-size="11" font-family="Arial, sans-serif" fill="#59636b" text-anchor="middle" font-weight="400">10^-6</text>
<line x1="449.3" y1="62" x2="449.3" y2="543" stroke="#e1e6ea"/>
<text x="449.3" y="565.0" font-size="11" font-family="Arial, sans-serif" fill="#59636b" text-anchor="middle" font-weight="400">10^-5</text>
<line x1="535.0" y1="62" x2="535.0" y2="543" stroke="#e1e6ea"/>
<text x="535.0" y="565.0" font-size="11" font-family="Arial, sans-serif" fill="#59636b" text-anchor="middle" font-weight="400">10^-4</text>
<line x1="620.7" y1="62" x2="620.7" y2="543" stroke="#e1e6ea"/>
<text x="620.7" y="565.0" font-size="11" font-family="Arial, sans-serif" fill="#59636b" text-anchor="middle" font-weight="400">10^-3</text>
<line x1="706.4" y1="62" x2="706.4" y2="543" stroke="#e1e6ea"/>
<text x="706.4" y="565.0" font-size="11" font-family="Arial, sans-serif" fill="#59636b" text-anchor="middle" font-weight="400">10^-2</text>
<line x1="792.1" y1="62" x2="792.1" y2="543" stroke="#e1e6ea"/>
<text x="792.1" y="565.0" font-size="11" font-family="Arial, sans-serif" fill="#59636b" text-anchor="middle" font-weight="400">10^-1</text>
<line x1="877.9" y1="62" x2="877.9" y2="543" stroke="#e1e6ea"/>
<text x="877.9" y="565.0" font-size="11" font-family="Arial, sans-serif" fill="#59636b" text-anchor="middle" font-weight="400">10^0</text>
<line x1="235" y1="543" x2="895" y2="543" stroke="#333"/>
<text x="221.0" y="98.0" font-size="12" font-family="Arial, sans-serif" fill="#223" text-anchor="end" font-weight="400">I(-I)</text>
<line x1="192.1" y1="93" x2="192.1" y2="93" stroke="#888" stroke-width="2"/>
<circle cx="192.1" cy="93" r="6" fill="#8ba6b3"/>
<text x="202.1" y="97.0" font-size="10" font-family="Arial, sans-serif" fill="#334" text-anchor="start" font-weight="400">0</text>
<text x="221.0" y="133.0" font-size="12" font-family="Arial, sans-serif" fill="#223" text-anchor="end" font-weight="400">Tc(VII)</text>
<line x1="192.1" y1="128" x2="192.1" y2="128" stroke="#888" stroke-width="2"/>
<circle cx="192.1" cy="128" r="6" fill="#8ba6b3"/>
<text x="202.1" y="132.0" font-size="10" font-family="Arial, sans-serif" fill="#334" text-anchor="start" font-weight="400">0</text>
<text x="221.0" y="168.0" font-size="12" font-family="Arial, sans-serif" fill="#223" text-anchor="end" font-weight="400">Sr(II)</text>
<line x1="242.2" y1="163" x2="576.5" y2="163" stroke="#888" stroke-width="2"/>
<circle cx="409.3" cy="163" r="6" fill="#8ba6b3"/>
<text x="419.3" y="167.0" font-size="10" font-family="Arial, sans-serif" fill="#334" text-anchor="start" font-weight="400">3.420e-06</text>
<text x="221.0" y="203.0" font-size="12" font-family="Arial, sans-serif" fill="#223" text-anchor="end" font-weight="400">U(VI)</text>
<line x1="427.2" y1="198" x2="647.4" y2="198" stroke="#888" stroke-width="2"/>
<circle cx="537.2" cy="198" r="6" fill="#b7834f"/>
<text x="547.2" y="202.0" font-size="10" font-family="Arial, sans-serif" fill="#334" text-anchor="start" font-weight="400">1.060e-04</text>
<text x="221.0" y="238.0" font-size="12" font-family="Arial, sans-serif" fill="#223" text-anchor="end" font-weight="400">Ra(II)</text>
<line x1="499.7" y1="233" x2="636.1" y2="233" stroke="#888" stroke-width="2"/>
<circle cx="567.9" cy="233" r="6" fill="#b7834f"/>
<text x="577.9" y="237.0" font-size="10" font-family="Arial, sans-serif" fill="#334" text-anchor="start" font-weight="400">2.420e-04</text>
<text x="221.0" y="273.0" font-size="12" font-family="Arial, sans-serif" fill="#223" text-anchor="end" font-weight="400">Se(-II/IV/VI)</text>
<line x1="483.4" y1="268" x2="667.1" y2="268" stroke="#888" stroke-width="2"/>
<circle cx="575.3" cy="268" r="6" fill="#b7834f"/>
<text x="585.3" y="272.0" font-size="10" font-family="Arial, sans-serif" fill="#334" text-anchor="start" font-weight="400">2.950e-04</text>
<text x="221.0" y="308.0" font-size="12" font-family="Arial, sans-serif" fill="#223" text-anchor="end" font-weight="400">Cs(I)</text>
<line x1="495.5" y1="303" x2="667.6" y2="303" stroke="#888" stroke-width="2"/>
<circle cx="581.5" cy="303" r="6" fill="#b7834f"/>
<text x="591.5" y="307.0" font-size="10" font-family="Arial, sans-serif" fill="#334" text-anchor="start" font-weight="400">3.490e-04</text>
<text x="221.0" y="343.0" font-size="12" font-family="Arial, sans-serif" fill="#223" text-anchor="end" font-weight="400">Np(V)</text>
<line x1="463.9" y1="338" x2="711.6" y2="338" stroke="#888" stroke-width="2"/>
<circle cx="587.8" cy="338" r="6" fill="#b7834f"/>
<text x="597.8" y="342.0" font-size="10" font-family="Arial, sans-serif" fill="#334" text-anchor="start" font-weight="400">4.130e-04</text>
<text x="221.0" y="378.0" font-size="12" font-family="Arial, sans-serif" fill="#223" text-anchor="end" font-weight="400">Am(III)</text>
<line x1="600.0" y1="373" x2="842.1" y2="373" stroke="#888" stroke-width="2"/>
<circle cx="721.0" cy="373" r="6" fill="#6e5aa8"/>
<text x="731.0" y="377.0" font-size="10" font-family="Arial, sans-serif" fill="#334" text-anchor="start" font-weight="400">1.480e-02</text>
<text x="221.0" y="413.0" font-size="12" font-family="Arial, sans-serif" fill="#223" text-anchor="end" font-weight="400">Pu(IV)</text>
<line x1="659.6" y1="408" x2="877.3" y2="408" stroke="#888" stroke-width="2"/>
<circle cx="768.4" cy="408" r="6" fill="#6e5aa8"/>
<text x="778.4" y="412.0" font-size="10" font-family="Arial, sans-serif" fill="#334" text-anchor="start" font-weight="400">5.290e-02</text>
<text x="221.0" y="448.0" font-size="12" font-family="Arial, sans-serif" fill="#223" text-anchor="end" font-weight="400">Th(IV)</text>
<line x1="659.6" y1="443" x2="877.3" y2="443" stroke="#888" stroke-width="2"/>
<circle cx="768.4" cy="443" r="6" fill="#6e5aa8"/>
<text x="778.4" y="447.0" font-size="10" font-family="Arial, sans-serif" fill="#334" text-anchor="start" font-weight="400">5.290e-02</text>
<text x="221.0" y="483.0" font-size="12" font-family="Arial, sans-serif" fill="#223" text-anchor="end" font-weight="400">U(IV)</text>
<line x1="659.6" y1="478" x2="877.3" y2="478" stroke="#888" stroke-width="2"/>
<circle cx="768.4" cy="478" r="6" fill="#6e5aa8"/>
<text x="778.4" y="482.0" font-size="10" font-family="Arial, sans-serif" fill="#334" text-anchor="start" font-weight="400">5.290e-02</text>
<text x="221.0" y="518.0" font-size="12" font-family="Arial, sans-serif" fill="#223" text-anchor="end" font-weight="400">Tc(IV)</text>
<line x1="659.6" y1="513" x2="877.3" y2="513" stroke="#888" stroke-width="2"/>
<circle cx="768.4" cy="513" r="6" fill="#6e5aa8"/>
<text x="778.4" y="517.0" font-size="10" font-family="Arial, sans-serif" fill="#334" text-anchor="start" font-weight="400">5.290e-02</text>
<text x="55.0" y="585.0" font-size="12" font-family="Arial, sans-serif" fill="#445" text-anchor="start" font-weight="400">点为 best estimate，中线为 2.5%-97.5% Kd 区间；I(-I) 与 Tc(VII) 的 Kd=0 用 1e-8 作绘图下限。</text>
</svg>
