<svg xmlns="http://www.w3.org/2000/svg" width="980" height="520" viewBox="0 0 980 520">
<rect width="100%" height="100%" fill="#ffffff"/>
<text x="30.0" y="34.0" font-family="Arial, Helvetica, sans-serif" font-size="18" font-weight="700" text-anchor="start" fill="#222">Figure 7. Theoretical controls on dissolved versus particle-facilitated mobility</text>
<text x="30.0" y="56.0" font-family="Arial, Helvetica, sans-serif" font-size="12" font-weight="400" text-anchor="start" fill="#555">Curves are dimensionless theory plots, not calibrated field results. They show how Kd and suspended solids alter first-flush transport.</text>
<line x1="78" x2="902" y1="442" y2="442" stroke="#111827"/>
<line x1="78" x2="78" y1="78" y2="442" stroke="#111827"/>
<line x1="78.0" y1="192.2" x2="89.0" y2="206.5" stroke="#2563eb" stroke-width="2"/>
<line x1="89.0" y1="206.5" x2="100.0" y2="221.6" stroke="#2563eb" stroke-width="2"/>
<line x1="100.0" y1="221.6" x2="111.0" y2="237.5" stroke="#2563eb" stroke-width="2"/>
<line x1="111.0" y1="237.5" x2="121.9" y2="253.7" stroke="#2563eb" stroke-width="2"/>
<line x1="121.9" y1="253.7" x2="132.9" y2="270.1" stroke="#2563eb" stroke-width="2"/>
<line x1="132.9" y1="270.1" x2="143.9" y2="286.5" stroke="#2563eb" stroke-width="2"/>
<line x1="143.9" y1="286.5" x2="154.9" y2="302.4" stroke="#2563eb" stroke-width="2"/>
<line x1="154.9" y1="302.4" x2="165.9" y2="317.7" stroke="#2563eb" stroke-width="2"/>
<line x1="165.9" y1="317.7" x2="176.9" y2="332.2" stroke="#2563eb" stroke-width="2"/>
<line x1="176.9" y1="332.2" x2="187.9" y2="345.7" stroke="#2563eb" stroke-width="2"/>
<line x1="187.9" y1="345.7" x2="198.9" y2="358.0" stroke="#2563eb" stroke-width="2"/>
<line x1="198.9" y1="358.0" x2="209.8" y2="369.3" stroke="#2563eb" stroke-width="2"/>
<line x1="209.8" y1="369.3" x2="220.8" y2="379.4" stroke="#2563eb" stroke-width="2"/>
<line x1="220.8" y1="379.4" x2="231.8" y2="388.3" stroke="#2563eb" stroke-width="2"/>
<line x1="231.8" y1="388.3" x2="242.8" y2="396.2" stroke="#2563eb" stroke-width="2"/>
<line x1="242.8" y1="396.2" x2="253.8" y2="403.1" stroke="#2563eb" stroke-width="2"/>
<line x1="253.8" y1="403.1" x2="264.8" y2="409.0" stroke="#2563eb" stroke-width="2"/>
<line x1="264.8" y1="409.0" x2="275.8" y2="414.1" stroke="#2563eb" stroke-width="2"/>
<line x1="275.8" y1="414.1" x2="286.7" y2="418.5" stroke="#2563eb" stroke-width="2"/>
<line x1="286.7" y1="418.5" x2="297.7" y2="422.2" stroke="#2563eb" stroke-width="2"/>
<line x1="297.7" y1="422.2" x2="308.7" y2="425.4" stroke="#2563eb" stroke-width="2"/>
<line x1="308.7" y1="425.4" x2="319.7" y2="428.1" stroke="#2563eb" stroke-width="2"/>
<line x1="319.7" y1="428.1" x2="330.7" y2="430.4" stroke="#2563eb" stroke-width="2"/>
<line x1="330.7" y1="430.4" x2="341.7" y2="432.3" stroke="#2563eb" stroke-width="2"/>
<line x1="341.7" y1="432.3" x2="352.7" y2="433.9" stroke="#2563eb" stroke-width="2"/>
<line x1="352.7" y1="433.9" x2="363.7" y2="435.2" stroke="#2563eb" stroke-width="2"/>
<line x1="363.7" y1="435.2" x2="374.6" y2="436.3" stroke="#2563eb" stroke-width="2"/>
<line x1="374.6" y1="436.3" x2="385.6" y2="437.3" stroke="#2563eb" stroke-width="2"/>
<line x1="385.6" y1="437.3" x2="396.6" y2="438.1" stroke="#2563eb" stroke-width="2"/>
<line x1="396.6" y1="438.1" x2="407.6" y2="438.7" stroke="#2563eb" stroke-width="2"/>
<line x1="407.6" y1="438.7" x2="418.6" y2="439.3" stroke="#2563eb" stroke-width="2"/>
<line x1="418.6" y1="439.3" x2="429.6" y2="439.7" stroke="#2563eb" stroke-width="2"/>
<line x1="429.6" y1="439.7" x2="440.6" y2="440.1" stroke="#2563eb" stroke-width="2"/>
<line x1="440.6" y1="440.1" x2="451.5" y2="440.4" stroke="#2563eb" stroke-width="2"/>
<line x1="451.5" y1="440.4" x2="462.5" y2="440.7" stroke="#2563eb" stroke-width="2"/>
<line x1="462.5" y1="440.7" x2="473.5" y2="440.9" stroke="#2563eb" stroke-width="2"/>
<line x1="473.5" y1="440.9" x2="484.5" y2="441.1" stroke="#2563eb" stroke-width="2"/>
<line x1="484.5" y1="441.1" x2="495.5" y2="441.2" stroke="#2563eb" stroke-width="2"/>
<line x1="495.5" y1="441.2" x2="506.5" y2="441.4" stroke="#2563eb" stroke-width="2"/>
<line x1="506.5" y1="441.4" x2="517.5" y2="441.5" stroke="#2563eb" stroke-width="2"/>
<line x1="517.5" y1="441.5" x2="528.5" y2="441.6" stroke="#2563eb" stroke-width="2"/>
<line x1="528.5" y1="441.6" x2="539.4" y2="441.6" stroke="#2563eb" stroke-width="2"/>
<line x1="539.4" y1="441.6" x2="550.4" y2="441.7" stroke="#2563eb" stroke-width="2"/>
<line x1="550.4" y1="441.7" x2="561.4" y2="441.7" stroke="#2563eb" stroke-width="2"/>
<line x1="561.4" y1="441.7" x2="572.4" y2="441.8" stroke="#2563eb" stroke-width="2"/>
<line x1="572.4" y1="441.8" x2="583.4" y2="441.8" stroke="#2563eb" stroke-width="2"/>
<line x1="583.4" y1="441.8" x2="594.4" y2="441.9" stroke="#2563eb" stroke-width="2"/>
<line x1="594.4" y1="441.9" x2="605.4" y2="441.9" stroke="#2563eb" stroke-width="2"/>
<line x1="605.4" y1="441.9" x2="616.3" y2="441.9" stroke="#2563eb" stroke-width="2"/>
<line x1="616.3" y1="441.9" x2="627.3" y2="441.9" stroke="#2563eb" stroke-width="2"/>
<line x1="627.3" y1="441.9" x2="638.3" y2="441.9" stroke="#2563eb" stroke-width="2"/>
<line x1="638.3" y1="441.9" x2="649.3" y2="441.9" stroke="#2563eb" stroke-width="2"/>
<line x1="649.3" y1="441.9" x2="660.3" y2="441.9" stroke="#2563eb" stroke-width="2"/>
<line x1="660.3" y1="441.9" x2="671.3" y2="442.0" stroke="#2563eb" stroke-width="2"/>
<line x1="671.3" y1="442.0" x2="682.3" y2="442.0" stroke="#2563eb" stroke-width="2"/>
<line x1="682.3" y1="442.0" x2="693.3" y2="442.0" stroke="#2563eb" stroke-width="2"/>
<line x1="693.3" y1="442.0" x2="704.2" y2="442.0" stroke="#2563eb" stroke-width="2"/>
<line x1="704.2" y1="442.0" x2="715.2" y2="442.0" stroke="#2563eb" stroke-width="2"/>
<line x1="715.2" y1="442.0" x2="726.2" y2="442.0" stroke="#2563eb" stroke-width="2"/>
<line x1="726.2" y1="442.0" x2="737.2" y2="442.0" stroke="#2563eb" stroke-width="2"/>
<line x1="737.2" y1="442.0" x2="748.2" y2="442.0" stroke="#2563eb" stroke-width="2"/>
<line x1="748.2" y1="442.0" x2="759.2" y2="442.0" stroke="#2563eb" stroke-width="2"/>
<line x1="759.2" y1="442.0" x2="770.2" y2="442.0" stroke="#2563eb" stroke-width="2"/>
<line x1="770.2" y1="442.0" x2="781.1" y2="442.0" stroke="#2563eb" stroke-width="2"/>
<line x1="781.1" y1="442.0" x2="792.1" y2="442.0" stroke="#2563eb" stroke-width="2"/>
<line x1="792.1" y1="442.0" x2="803.1" y2="442.0" stroke="#2563eb" stroke-width="2"/>
<line x1="803.1" y1="442.0" x2="814.1" y2="442.0" stroke="#2563eb" stroke-width="2"/>
<line x1="814.1" y1="442.0" x2="825.1" y2="442.0" stroke="#2563eb" stroke-width="2"/>
<line x1="825.1" y1="442.0" x2="836.1" y2="442.0" stroke="#2563eb" stroke-width="2"/>
<line x1="836.1" y1="442.0" x2="847.1" y2="442.0" stroke="#2563eb" stroke-width="2"/>
<line x1="847.1" y1="442.0" x2="858.1" y2="442.0" stroke="#2563eb" stroke-width="2"/>
<line x1="858.1" y1="442.0" x2="869.0" y2="442.0" stroke="#2563eb" stroke-width="2"/>
<line x1="869.0" y1="442.0" x2="880.0" y2="442.0" stroke="#2563eb" stroke-width="2"/>
<line x1="880.0" y1="442.0" x2="891.0" y2="442.0" stroke="#2563eb" stroke-width="2"/>
<line x1="891.0" y1="442.0" x2="902.0" y2="442.0" stroke="#2563eb" stroke-width="2"/>
<text x="822.0" y="436.0" font-family="Arial, Helvetica, sans-serif" font-size="11" font-weight="400" text-anchor="start" fill="#2563eb">TSS=0.05 kg m^-3</text>
<line x1="78.0" y1="192.2" x2="89.0" y2="206.5" stroke="#16a34a" stroke-width="2"/>
<line x1="89.0" y1="206.5" x2="100.0" y2="221.6" stroke="#16a34a" stroke-width="2"/>
<line x1="100.0" y1="221.6" x2="111.0" y2="237.5" stroke="#16a34a" stroke-width="2"/>
<line x1="111.0" y1="237.5" x2="121.9" y2="253.7" stroke="#16a34a" stroke-width="2"/>
<line x1="121.9" y1="253.7" x2="132.9" y2="270.1" stroke="#16a34a" stroke-width="2"/>
<line x1="132.9" y1="270.1" x2="143.9" y2="286.4" stroke="#16a34a" stroke-width="2"/>
<line x1="143.9" y1="286.4" x2="154.9" y2="302.4" stroke="#16a34a" stroke-width="2"/>
<line x1="154.9" y1="302.4" x2="165.9" y2="317.7" stroke="#16a34a" stroke-width="2"/>
<line x1="165.9" y1="317.7" x2="176.9" y2="332.2" stroke="#16a34a" stroke-width="2"/>
<line x1="176.9" y1="332.2" x2="187.9" y2="345.6" stroke="#16a34a" stroke-width="2"/>
<line x1="187.9" y1="345.6" x2="198.9" y2="358.0" stroke="#16a34a" stroke-width="2"/>
<line x1="198.9" y1="358.0" x2="209.8" y2="369.3" stroke="#16a34a" stroke-width="2"/>
<line x1="209.8" y1="369.3" x2="220.8" y2="379.4" stroke="#16a34a" stroke-width="2"/>
<line x1="220.8" y1="379.4" x2="231.8" y2="388.3" stroke="#16a34a" stroke-width="2"/>
<line x1="231.8" y1="388.3" x2="242.8" y2="396.2" stroke="#16a34a" stroke-width="2"/>
<line x1="242.8" y1="396.2" x2="253.8" y2="403.1" stroke="#16a34a" stroke-width="2"/>
<line x1="253.8" y1="403.1" x2="264.8" y2="409.0" stroke="#16a34a" stroke-width="2"/>
<line x1="264.8" y1="409.0" x2="275.8" y2="414.1" stroke="#16a34a" stroke-width="2"/>
<line x1="275.8" y1="414.1" x2="286.7" y2="418.5" stroke="#16a34a" stroke-width="2"/>
<line x1="286.7" y1="418.5" x2="297.7" y2="422.2" stroke="#16a34a" stroke-width="2"/>
<line x1="297.7" y1="422.2" x2="308.7" y2="425.4" stroke="#16a34a" stroke-width="2"/>
<line x1="308.7" y1="425.4" x2="319.7" y2="428.1" stroke="#16a34a" stroke-width="2"/>
<line x1="319.7" y1="428.1" x2="330.7" y2="430.3" stroke="#16a34a" stroke-width="2"/>
<line x1="330.7" y1="430.3" x2="341.7" y2="432.2" stroke="#16a34a" stroke-width="2"/>
<line x1="341.7" y1="432.2" x2="352.7" y2="433.8" stroke="#16a34a" stroke-width="2"/>
<line x1="352.7" y1="433.8" x2="363.7" y2="435.2" stroke="#16a34a" stroke-width="2"/>
<line x1="363.7" y1="435.2" x2="374.6" y2="436.3" stroke="#16a34a" stroke-width="2"/>
<line x1="374.6" y1="436.3" x2="385.6" y2="437.3" stroke="#16a34a" stroke-width="2"/>
<line x1="385.6" y1="437.3" x2="396.6" y2="438.0" stroke="#16a34a" stroke-width="2"/>
<line x1="396.6" y1="438.0" x2="407.6" y2="438.7" stroke="#16a34a" stroke-width="2"/>
<line x1="407.6" y1="438.7" x2="418.6" y2="439.2" stroke="#16a34a" stroke-width="2"/>
<line x1="418.6" y1="439.2" x2="429.6" y2="439.7" stroke="#16a34a" stroke-width="2"/>
<line x1="429.6" y1="439.7" x2="440.6" y2="440.1" stroke="#16a34a" stroke-width="2"/>
<line x1="440.6" y1="440.1" x2="451.5" y2="440.4" stroke="#16a34a" stroke-width="2"/>
<line x1="451.5" y1="440.4" x2="462.5" y2="440.7" stroke="#16a34a" stroke-width="2"/>
<line x1="462.5" y1="440.7" x2="473.5" y2="440.9" stroke="#16a34a" stroke-width="2"/>
<line x1="473.5" y1="440.9" x2="484.5" y2="441.1" stroke="#16a34a" stroke-width="2"/>
<line x1="484.5" y1="441.1" x2="495.5" y2="441.2" stroke="#16a34a" stroke-width="2"/>
<line x1="495.5" y1="441.2" x2="506.5" y2="441.4" stroke="#16a34a" stroke-width="2"/>
<line x1="506.5" y1="441.4" x2="517.5" y2="441.5" stroke="#16a34a" stroke-width="2"/>
<line x1="517.5" y1="441.5" x2="528.5" y2="441.5" stroke="#16a34a" stroke-width="2"/>
<line x1="528.5" y1="441.5" x2="539.4" y2="441.6" stroke="#16a34a" stroke-width="2"/>
<line x1="539.4" y1="441.6" x2="550.4" y2="441.7" stroke="#16a34a" stroke-width="2"/>
<line x1="550.4" y1="441.7" x2="561.4" y2="441.7" stroke="#16a34a" stroke-width="2"/>
<line x1="561.4" y1="441.7" x2="572.4" y2="441.8" stroke="#16a34a" stroke-width="2"/>
<line x1="572.4" y1="441.8" x2="583.4" y2="441.8" stroke="#16a34a" stroke-width="2"/>
<line x1="583.4" y1="441.8" x2="594.4" y2="441.8" stroke="#16a34a" stroke-width="2"/>
<line x1="594.4" y1="441.8" x2="605.4" y2="441.9" stroke="#16a34a" stroke-width="2"/>
<line x1="605.4" y1="441.9" x2="616.3" y2="441.9" stroke="#16a34a" stroke-width="2"/>
<line x1="616.3" y1="441.9" x2="627.3" y2="441.9" stroke="#16a34a" stroke-width="2"/>
<line x1="627.3" y1="441.9" x2="638.3" y2="441.9" stroke="#16a34a" stroke-width="2"/>
<line x1="638.3" y1="441.9" x2="649.3" y2="441.9" stroke="#16a34a" stroke-width="2"/>
<line x1="649.3" y1="441.9" x2="660.3" y2="441.9" stroke="#16a34a" stroke-width="2"/>
<line x1="660.3" y1="441.9" x2="671.3" y2="441.9" stroke="#16a34a" stroke-width="2"/>
<line x1="671.3" y1="441.9" x2="682.3" y2="442.0" stroke="#16a34a" stroke-width="2"/>
<line x1="682.3" y1="442.0" x2="693.3" y2="442.0" stroke="#16a34a" stroke-width="2"/>
<line x1="693.3" y1="442.0" x2="704.2" y2="442.0" stroke="#16a34a" stroke-width="2"/>
<line x1="704.2" y1="442.0" x2="715.2" y2="442.0" stroke="#16a34a" stroke-width="2"/>
<line x1="715.2" y1="442.0" x2="726.2" y2="442.0" stroke="#16a34a" stroke-width="2"/>
<line x1="726.2" y1="442.0" x2="737.2" y2="442.0" stroke="#16a34a" stroke-width="2"/>
<line x1="737.2" y1="442.0" x2="748.2" y2="442.0" stroke="#16a34a" stroke-width="2"/>
<line x1="748.2" y1="442.0" x2="759.2" y2="442.0" stroke="#16a34a" stroke-width="2"/>
<line x1="759.2" y1="442.0" x2="770.2" y2="442.0" stroke="#16a34a" stroke-width="2"/>
<line x1="770.2" y1="442.0" x2="781.1" y2="442.0" stroke="#16a34a" stroke-width="2"/>
<line x1="781.1" y1="442.0" x2="792.1" y2="442.0" stroke="#16a34a" stroke-width="2"/>
<line x1="792.1" y1="442.0" x2="803.1" y2="442.0" stroke="#16a34a" stroke-width="2"/>
<line x1="803.1" y1="442.0" x2="814.1" y2="442.0" stroke="#16a34a" stroke-width="2"/>
<line x1="814.1" y1="442.0" x2="825.1" y2="442.0" stroke="#16a34a" stroke-width="2"/>
<line x1="825.1" y1="442.0" x2="836.1" y2="442.0" stroke="#16a34a" stroke-width="2"/>
<line x1="836.1" y1="442.0" x2="847.1" y2="442.0" stroke="#16a34a" stroke-width="2"/>
<line x1="847.1" y1="442.0" x2="858.1" y2="442.0" stroke="#16a34a" stroke-width="2"/>
<line x1="858.1" y1="442.0" x2="869.0" y2="442.0" stroke="#16a34a" stroke-width="2"/>
<line x1="869.0" y1="442.0" x2="880.0" y2="442.0" stroke="#16a34a" stroke-width="2"/>
<line x1="880.0" y1="442.0" x2="891.0" y2="442.0" stroke="#16a34a" stroke-width="2"/>
<line x1="891.0" y1="442.0" x2="902.0" y2="442.0" stroke="#16a34a" stroke-width="2"/>
<text x="822.0" y="436.0" font-family="Arial, Helvetica, sans-serif" font-size="11" font-weight="400" text-anchor="start" fill="#16a34a">TSS=0.2 kg m^-3</text>
<line x1="78.0" y1="192.2" x2="89.0" y2="206.5" stroke="#dc2626" stroke-width="2"/>
<line x1="89.0" y1="206.5" x2="100.0" y2="221.6" stroke="#dc2626" stroke-width="2"/>
<line x1="100.0" y1="221.6" x2="111.0" y2="237.4" stroke="#dc2626" stroke-width="2"/>
<line x1="111.0" y1="237.4" x2="121.9" y2="253.7" stroke="#dc2626" stroke-width="2"/>
<line x1="121.9" y1="253.7" x2="132.9" y2="270.1" stroke="#dc2626" stroke-width="2"/>
<line x1="132.9" y1="270.1" x2="143.9" y2="286.4" stroke="#dc2626" stroke-width="2"/>
<line x1="143.9" y1="286.4" x2="154.9" y2="302.3" stroke="#dc2626" stroke-width="2"/>
<line x1="154.9" y1="302.3" x2="165.9" y2="317.6" stroke="#dc2626" stroke-width="2"/>
<line x1="165.9" y1="317.6" x2="176.9" y2="332.1" stroke="#dc2626" stroke-width="2"/>
<line x1="176.9" y1="332.1" x2="187.9" y2="345.6" stroke="#dc2626" stroke-width="2"/>
<line x1="187.9" y1="345.6" x2="198.9" y2="358.0" stroke="#dc2626" stroke-width="2"/>
<line x1="198.9" y1="358.0" x2="209.8" y2="369.2" stroke="#dc2626" stroke-width="2"/>
<line x1="209.8" y1="369.2" x2="220.8" y2="379.3" stroke="#dc2626" stroke-width="2"/>
<line x1="220.8" y1="379.3" x2="231.8" y2="388.3" stroke="#dc2626" stroke-width="2"/>
<line x1="231.8" y1="388.3" x2="242.8" y2="396.1" stroke="#dc2626" stroke-width="2"/>
<line x1="242.8" y1="396.1" x2="253.8" y2="403.0" stroke="#dc2626" stroke-width="2"/>
<line x1="253.8" y1="403.0" x2="264.8" y2="408.9" stroke="#dc2626" stroke-width="2"/>
<line x1="264.8" y1="408.9" x2="275.8" y2="414.1" stroke="#dc2626" stroke-width="2"/>
<line x1="275.8" y1="414.1" x2="286.7" y2="418.4" stroke="#dc2626" stroke-width="2"/>
<line x1="286.7" y1="418.4" x2="297.7" y2="422.2" stroke="#dc2626" stroke-width="2"/>
<line x1="297.7" y1="422.2" x2="308.7" y2="425.3" stroke="#dc2626" stroke-width="2"/>
<line x1="308.7" y1="425.3" x2="319.7" y2="428.0" stroke="#dc2626" stroke-width="2"/>
<line x1="319.7" y1="428.0" x2="330.7" y2="430.3" stroke="#dc2626" stroke-width="2"/>
<line x1="330.7" y1="430.3" x2="341.7" y2="432.2" stroke="#dc2626" stroke-width="2"/>
<line x1="341.7" y1="432.2" x2="352.7" y2="433.8" stroke="#dc2626" stroke-width="2"/>
<line x1="352.7" y1="433.8" x2="363.7" y2="435.1" stroke="#dc2626" stroke-width="2"/>
<line x1="363.7" y1="435.1" x2="374.6" y2="436.2" stroke="#dc2626" stroke-width="2"/>
<line x1="374.6" y1="436.2" x2="385.6" y2="437.2" stroke="#dc2626" stroke-width="2"/>
<line x1="385.6" y1="437.2" x2="396.6" y2="438.0" stroke="#dc2626" stroke-width="2"/>
<line x1="396.6" y1="438.0" x2="407.6" y2="438.6" stroke="#dc2626" stroke-width="2"/>
<line x1="407.6" y1="438.6" x2="418.6" y2="439.2" stroke="#dc2626" stroke-width="2"/>
<line x1="418.6" y1="439.2" x2="429.6" y2="439.6" stroke="#dc2626" stroke-width="2"/>
<line x1="429.6" y1="439.6" x2="440.6" y2="440.0" stroke="#dc2626" stroke-width="2"/>
<line x1="440.6" y1="440.0" x2="451.5" y2="440.3" stroke="#dc2626" stroke-width="2"/>
<line x1="451.5" y1="440.3" x2="462.5" y2="440.6" stroke="#dc2626" stroke-width="2"/>
<line x1="462.5" y1="440.6" x2="473.5" y2="440.8" stroke="#dc2626" stroke-width="2"/>
<line x1="473.5" y1="440.8" x2="484.5" y2="441.0" stroke="#dc2626" stroke-width="2"/>
<line x1="484.5" y1="441.0" x2="495.5" y2="441.2" stroke="#dc2626" stroke-width="2"/>
<line x1="495.5" y1="441.2" x2="506.5" y2="441.3" stroke="#dc2626" stroke-width="2"/>
<line x1="506.5" y1="441.3" x2="517.5" y2="441.4" stroke="#dc2626" stroke-width="2"/>
<line x1="517.5" y1="441.4" x2="528.5" y2="441.5" stroke="#dc2626" stroke-width="2"/>
<line x1="528.5" y1="441.5" x2="539.4" y2="441.6" stroke="#dc2626" stroke-width="2"/>
<line x1="539.4" y1="441.6" x2="550.4" y2="441.6" stroke="#dc2626" stroke-width="2"/>
<line x1="550.4" y1="441.6" x2="561.4" y2="441.7" stroke="#dc2626" stroke-width="2"/>
<line x1="561.4" y1="441.7" x2="572.4" y2="441.7" stroke="#dc2626" stroke-width="2"/>
<line x1="572.4" y1="441.7" x2="583.4" y2="441.7" stroke="#dc2626" stroke-width="2"/>
<line x1="583.4" y1="441.7" x2="594.4" y2="441.8" stroke="#dc2626" stroke-width="2"/>
<line x1="594.4" y1="441.8" x2="605.4" y2="441.8" stroke="#dc2626" stroke-width="2"/>
<line x1="605.4" y1="441.8" x2="616.3" y2="441.8" stroke="#dc2626" stroke-width="2"/>
<line x1="616.3" y1="441.8" x2="627.3" y2="441.8" stroke="#dc2626" stroke-width="2"/>
<line x1="627.3" y1="441.8" x2="638.3" y2="441.8" stroke="#dc2626" stroke-width="2"/>
<line x1="638.3" y1="441.8" x2="649.3" y2="441.9" stroke="#dc2626" stroke-width="2"/>
<line x1="649.3" y1="441.9" x2="660.3" y2="441.9" stroke="#dc2626" stroke-width="2"/>
<line x1="660.3" y1="441.9" x2="671.3" y2="441.9" stroke="#dc2626" stroke-width="2"/>
<line x1="671.3" y1="441.9" x2="682.3" y2="441.9" stroke="#dc2626" stroke-width="2"/>
<line x1="682.3" y1="441.9" x2="693.3" y2="441.9" stroke="#dc2626" stroke-width="2"/>
<line x1="693.3" y1="441.9" x2="704.2" y2="441.9" stroke="#dc2626" stroke-width="2"/>
<line x1="704.2" y1="441.9" x2="715.2" y2="441.9" stroke="#dc2626" stroke-width="2"/>
<line x1="715.2" y1="441.9" x2="726.2" y2="441.9" stroke="#dc2626" stroke-width="2"/>
<line x1="726.2" y1="441.9" x2="737.2" y2="441.9" stroke="#dc2626" stroke-width="2"/>
<line x1="737.2" y1="441.9" x2="748.2" y2="441.9" stroke="#dc2626" stroke-width="2"/>
<line x1="748.2" y1="441.9" x2="759.2" y2="441.9" stroke="#dc2626" stroke-width="2"/>
<line x1="759.2" y1="441.9" x2="770.2" y2="441.9" stroke="#dc2626" stroke-width="2"/>
<line x1="770.2" y1="441.9" x2="781.1" y2="441.9" stroke="#dc2626" stroke-width="2"/>
<line x1="781.1" y1="441.9" x2="792.1" y2="441.9" stroke="#dc2626" stroke-width="2"/>
<line x1="792.1" y1="441.9" x2="803.1" y2="441.9" stroke="#dc2626" stroke-width="2"/>
<line x1="803.1" y1="441.9" x2="814.1" y2="441.9" stroke="#dc2626" stroke-width="2"/>
<line x1="814.1" y1="441.9" x2="825.1" y2="441.9" stroke="#dc2626" stroke-width="2"/>
<line x1="825.1" y1="441.9" x2="836.1" y2="441.9" stroke="#dc2626" stroke-width="2"/>
<line x1="836.1" y1="441.9" x2="847.1" y2="441.9" stroke="#dc2626" stroke-width="2"/>
<line x1="847.1" y1="441.9" x2="858.1" y2="441.9" stroke="#dc2626" stroke-width="2"/>
<line x1="858.1" y1="441.9" x2="869.0" y2="441.9" stroke="#dc2626" stroke-width="2"/>
<line x1="869.0" y1="441.9" x2="880.0" y2="441.9" stroke="#dc2626" stroke-width="2"/>
<line x1="880.0" y1="441.9" x2="891.0" y2="441.9" stroke="#dc2626" stroke-width="2"/>
<line x1="891.0" y1="441.9" x2="902.0" y2="441.9" stroke="#dc2626" stroke-width="2"/>
<text x="822.0" y="435.9" font-family="Arial, Helvetica, sans-serif" font-size="11" font-weight="400" text-anchor="start" fill="#dc2626">TSS=1 kg m^-3</text>
<line x1="78.0" x2="78.0" y1="78" y2="442" stroke="#e5e7eb"/>
<text x="78.0" y="462.0" font-family="Arial, Helvetica, sans-serif" font-size="10" font-weight="400" text-anchor="middle" fill="#374151">1e-4</text>
<line x1="215.3" x2="215.3" y1="78" y2="442" stroke="#e5e7eb"/>
<text x="215.3" y="462.0" font-family="Arial, Helvetica, sans-serif" font-size="10" font-weight="400" text-anchor="middle" fill="#374151">1e-3</text>
<line x1="352.7" x2="352.7" y1="78" y2="442" stroke="#e5e7eb"/>
<text x="352.7" y="462.0" font-family="Arial, Helvetica, sans-serif" font-size="10" font-weight="400" text-anchor="middle" fill="#374151">1e-2</text>
<line x1="490.0" x2="490.0" y1="78" y2="442" stroke="#e5e7eb"/>
<text x="490.0" y="462.0" font-family="Arial, Helvetica, sans-serif" font-size="10" font-weight="400" text-anchor="middle" fill="#374151">1e-1</text>
<line x1="627.3" x2="627.3" y1="78" y2="442" stroke="#e5e7eb"/>
<text x="627.3" y="462.0" font-family="Arial, Helvetica, sans-serif" font-size="10" font-weight="400" text-anchor="middle" fill="#374151">1e0</text>
<line x1="764.7" x2="764.7" y1="78" y2="442" stroke="#e5e7eb"/>
<text x="764.7" y="462.0" font-family="Arial, Helvetica, sans-serif" font-size="10" font-weight="400" text-anchor="middle" fill="#374151">1e1</text>
<line x1="902.0" x2="902.0" y1="78" y2="442" stroke="#e5e7eb"/>
<text x="902.0" y="462.0" font-family="Arial, Helvetica, sans-serif" font-size="10" font-weight="400" text-anchor="middle" fill="#374151">1e2</text>
<line x1="78" x2="902" y1="442.0" y2="442.0" stroke="#e5e7eb"/>
<text x="68.0" y="446.0" font-family="Arial, Helvetica, sans-serif" font-size="10" font-weight="400" text-anchor="end" fill="#374151">0.00</text>
<line x1="78" x2="902" y1="351.0" y2="351.0" stroke="#e5e7eb"/>
<text x="68.0" y="355.0" font-family="Arial, Helvetica, sans-serif" font-size="10" font-weight="400" text-anchor="end" fill="#374151">0.25</text>
<line x1="78" x2="902" y1="260.0" y2="260.0" stroke="#e5e7eb"/>
<text x="68.0" y="264.0" font-family="Arial, Helvetica, sans-serif" font-size="10" font-weight="400" text-anchor="end" fill="#374151">0.50</text>
<line x1="78" x2="902" y1="169.0" y2="169.0" stroke="#e5e7eb"/>
<text x="68.0" y="173.0" font-family="Arial, Helvetica, sans-serif" font-size="10" font-weight="400" text-anchor="end" fill="#374151">0.75</text>
<line x1="78" x2="902" y1="78.0" y2="78.0" stroke="#e5e7eb"/>
<text x="68.0" y="82.0" font-family="Arial, Helvetica, sans-serif" font-size="10" font-weight="400" text-anchor="end" fill="#374151">1.00</text>
<text x="490.0" y="498.0" font-family="Arial, Helvetica, sans-serif" font-size="12" font-weight="400" text-anchor="middle" fill="#222">Distribution coefficient Kd (m3 kg^-1)</text>
<text x="18.0" y="260.0" font-family="Arial, Helvetica, sans-serif" font-size="12" font-weight="400" text-anchor="middle" fill="#222">Relative mobile load fraction</text>
</svg>