<svg xmlns="http://www.w3.org/2000/svg" width="980" height="520" viewBox="0 0 980 520">
<rect width="100%" height="100%" fill="#ffffff"/>
<text x="30.0" y="34.0" font-family="Arial, Helvetica, sans-serif" font-size="18" font-weight="700" text-anchor="start" fill="#222">Figure 2. Annual NBAC fire exposure in the Athabasca screening AOI</text>
<text x="30.0" y="56.0" font-family="Arial, Helvetica, sans-serif" font-size="12" font-weight="400" text-anchor="start" fill="#555">Bars show total full-polygon area of fires intersecting the AOI; line shows feature count. Areas are not clipped to the AOI.</text>
<line x1="70" x2="910" y1="450" y2="450" stroke="#111827"/>
<line x1="70" x2="70" y1="70" y2="450" stroke="#111827"/>
<rect x="72.2" y="440.0" width="11.4" height="10.0" fill="#f4a261" fill-opacity="0.75"/>
<circle cx="77.9" cy="416.8" r="2.8" fill="#111827"/>
<rect x="88.1" y="384.7" width="11.4" height="65.3" fill="#f4a261" fill-opacity="0.75"/>
<circle cx="93.8" cy="321.8" r="2.8" fill="#111827"/>
<line x1="77.9" y1="416.8" x2="93.8" y2="321.8" stroke="#111827" stroke-width="1.2"/>
<rect x="103.9" y="443.2" width="11.4" height="6.8" fill="#f4a261" fill-opacity="0.75"/>
<circle cx="109.6" cy="431.0" r="2.8" fill="#111827"/>
<line x1="93.8" y1="321.8" x2="109.6" y2="431.0" stroke="#111827" stroke-width="1.2"/>
<rect x="119.8" y="439.6" width="11.4" height="10.4" fill="#f4a261" fill-opacity="0.75"/>
<text x="125.5" y="468.0" font-family="Arial, Helvetica, sans-serif" font-size="9" font-weight="400" text-anchor="middle" fill="#374151">1975</text>
<circle cx="125.5" cy="435.8" r="2.8" fill="#111827"/>
<line x1="109.6" y1="431.0" x2="125.5" y2="435.8" stroke="#111827" stroke-width="1.2"/>
<rect x="135.6" y="436.6" width="11.4" height="13.4" fill="#f4a261" fill-opacity="0.75"/>
<circle cx="141.3" cy="421.5" r="2.8" fill="#111827"/>
<line x1="125.5" y1="435.8" x2="141.3" y2="421.5" stroke="#111827" stroke-width="1.2"/>
<rect x="151.5" y="449.2" width="11.4" height="0.8" fill="#f4a261" fill-opacity="0.75"/>
<circle cx="157.2" cy="435.8" r="2.8" fill="#111827"/>
<line x1="141.3" y1="421.5" x2="157.2" y2="435.8" stroke="#111827" stroke-width="1.2"/>
<rect x="167.3" y="435.4" width="11.4" height="14.6" fill="#f4a261" fill-opacity="0.75"/>
<circle cx="173.0" cy="435.8" r="2.8" fill="#111827"/>
<line x1="157.2" y1="435.8" x2="173.0" y2="435.8" stroke="#111827" stroke-width="1.2"/>
<rect x="183.2" y="390.5" width="11.4" height="59.5" fill="#f4a261" fill-opacity="0.75"/>
<circle cx="188.9" cy="359.8" r="2.8" fill="#111827"/>
<line x1="173.0" y1="435.8" x2="188.9" y2="359.8" stroke="#111827" stroke-width="1.2"/>
<rect x="199.0" y="309.4" width="11.4" height="140.6" fill="#f4a261" fill-opacity="0.75"/>
<text x="204.7" y="468.0" font-family="Arial, Helvetica, sans-serif" font-size="9" font-weight="400" text-anchor="middle" fill="#374151">1980</text>
<circle cx="204.7" cy="307.5" r="2.8" fill="#111827"/>
<line x1="188.9" y1="359.8" x2="204.7" y2="307.5" stroke="#111827" stroke-width="1.2"/>
<rect x="214.9" y="156.6" width="11.4" height="293.4" fill="#f4a261" fill-opacity="0.75"/>
<circle cx="220.6" cy="226.8" r="2.8" fill="#111827"/>
<line x1="204.7" y1="307.5" x2="220.6" y2="226.8" stroke="#111827" stroke-width="1.2"/>
<rect x="230.7" y="437.9" width="11.4" height="12.1" fill="#f4a261" fill-opacity="0.75"/>
<circle cx="236.4" cy="402.5" r="2.8" fill="#111827"/>
<line x1="220.6" y1="226.8" x2="236.4" y2="402.5" stroke="#111827" stroke-width="1.2"/>
<rect x="246.6" y="442.6" width="11.4" height="7.4" fill="#f4a261" fill-opacity="0.75"/>
<circle cx="252.3" cy="407.2" r="2.8" fill="#111827"/>
<line x1="236.4" y1="402.5" x2="252.3" y2="407.2" stroke="#111827" stroke-width="1.2"/>
<rect x="262.4" y="410.1" width="11.4" height="39.9" fill="#f4a261" fill-opacity="0.75"/>
<circle cx="268.1" cy="364.5" r="2.8" fill="#111827"/>
<line x1="252.3" y1="407.2" x2="268.1" y2="364.5" stroke="#111827" stroke-width="1.2"/>
<rect x="278.3" y="442.4" width="11.4" height="7.6" fill="#f4a261" fill-opacity="0.75"/>
<text x="284.0" y="468.0" font-family="Arial, Helvetica, sans-serif" font-size="9" font-weight="400" text-anchor="middle" fill="#374151">1985</text>
<circle cx="284.0" cy="412.0" r="2.8" fill="#111827"/>
<line x1="268.1" y1="364.5" x2="284.0" y2="412.0" stroke="#111827" stroke-width="1.2"/>
<rect x="294.1" y="449.7" width="11.4" height="0.3" fill="#f4a261" fill-opacity="0.75"/>
<circle cx="299.8" cy="407.2" r="2.8" fill="#111827"/>
<line x1="284.0" y1="412.0" x2="299.8" y2="407.2" stroke="#111827" stroke-width="1.2"/>
<rect x="310.0" y="434.2" width="11.4" height="15.8" fill="#f4a261" fill-opacity="0.75"/>
<circle cx="315.7" cy="283.8" r="2.8" fill="#111827"/>
<line x1="299.8" y1="407.2" x2="315.7" y2="283.8" stroke="#111827" stroke-width="1.2"/>
<rect x="325.8" y="443.5" width="11.4" height="6.5" fill="#f4a261" fill-opacity="0.75"/>
<circle cx="331.5" cy="340.8" r="2.8" fill="#111827"/>
<line x1="315.7" y1="283.8" x2="331.5" y2="340.8" stroke="#111827" stroke-width="1.2"/>
<rect x="341.7" y="411.7" width="11.4" height="38.3" fill="#f4a261" fill-opacity="0.75"/>
<circle cx="347.4" cy="131.8" r="2.8" fill="#111827"/>
<line x1="331.5" y1="340.8" x2="347.4" y2="131.8" stroke="#111827" stroke-width="1.2"/>
<rect x="357.5" y="426.4" width="11.4" height="23.6" fill="#f4a261" fill-opacity="0.75"/>
<text x="363.2" y="468.0" font-family="Arial, Helvetica, sans-serif" font-size="9" font-weight="400" text-anchor="middle" fill="#374151">1990</text>
<circle cx="363.2" cy="355.0" r="2.8" fill="#111827"/>
<line x1="347.4" y1="131.8" x2="363.2" y2="355.0" stroke="#111827" stroke-width="1.2"/>
<rect x="373.4" y="426.1" width="11.4" height="23.9" fill="#f4a261" fill-opacity="0.75"/>
<circle cx="379.1" cy="393.0" r="2.8" fill="#111827"/>
<line x1="363.2" y1="355.0" x2="379.1" y2="393.0" stroke="#111827" stroke-width="1.2"/>
<rect x="389.2" y="428.3" width="11.4" height="21.7" fill="#f4a261" fill-opacity="0.75"/>
<circle cx="394.9" cy="388.2" r="2.8" fill="#111827"/>
<line x1="379.1" y1="393.0" x2="394.9" y2="388.2" stroke="#111827" stroke-width="1.2"/>
<rect x="405.0" y="387.8" width="11.4" height="62.2" fill="#f4a261" fill-opacity="0.75"/>
<circle cx="410.8" cy="369.2" r="2.8" fill="#111827"/>
<line x1="394.9" y1="388.2" x2="410.8" y2="369.2" stroke="#111827" stroke-width="1.2"/>
<rect x="420.9" y="250.8" width="11.4" height="199.2" fill="#f4a261" fill-opacity="0.75"/>
<circle cx="426.6" cy="260.0" r="2.8" fill="#111827"/>
<line x1="410.8" y1="369.2" x2="426.6" y2="260.0" stroke="#111827" stroke-width="1.2"/>
<rect x="436.7" y="360.2" width="11.4" height="89.8" fill="#f4a261" fill-opacity="0.75"/>
<text x="442.5" y="468.0" font-family="Arial, Helvetica, sans-serif" font-size="9" font-weight="400" text-anchor="middle" fill="#374151">1995</text>
<circle cx="442.5" cy="345.5" r="2.8" fill="#111827"/>
<line x1="426.6" y1="260.0" x2="442.5" y2="345.5" stroke="#111827" stroke-width="1.2"/>
<rect x="452.6" y="445.0" width="11.4" height="5.0" fill="#f4a261" fill-opacity="0.75"/>
<circle cx="458.3" cy="393.0" r="2.8" fill="#111827"/>
<line x1="442.5" y1="345.5" x2="458.3" y2="393.0" stroke="#111827" stroke-width="1.2"/>
<rect x="468.4" y="449.5" width="11.4" height="0.5" fill="#f4a261" fill-opacity="0.75"/>
<circle cx="474.2" cy="388.2" r="2.8" fill="#111827"/>
<line x1="458.3" y1="393.0" x2="474.2" y2="388.2" stroke="#111827" stroke-width="1.2"/>
<rect x="484.3" y="323.0" width="11.4" height="127.0" fill="#f4a261" fill-opacity="0.75"/>
<circle cx="490.0" cy="188.8" r="2.8" fill="#111827"/>
<line x1="474.2" y1="388.2" x2="490.0" y2="188.8" stroke="#111827" stroke-width="1.2"/>
<rect x="500.1" y="442.4" width="11.4" height="7.6" fill="#f4a261" fill-opacity="0.75"/>
<circle cx="505.8" cy="312.2" r="2.8" fill="#111827"/>
<line x1="490.0" y1="188.8" x2="505.8" y2="312.2" stroke="#111827" stroke-width="1.2"/>
<rect x="516.0" y="439.6" width="11.4" height="10.4" fill="#f4a261" fill-opacity="0.75"/>
<text x="521.7" y="468.0" font-family="Arial, Helvetica, sans-serif" font-size="9" font-weight="400" text-anchor="middle" fill="#374151">2000</text>
<circle cx="521.7" cy="350.2" r="2.8" fill="#111827"/>
<line x1="505.8" y1="312.2" x2="521.7" y2="350.2" stroke="#111827" stroke-width="1.2"/>
<rect x="531.8" y="412.0" width="11.4" height="38.0" fill="#f4a261" fill-opacity="0.75"/>
<circle cx="537.5" cy="212.5" r="2.8" fill="#111827"/>
<line x1="521.7" y1="350.2" x2="537.5" y2="212.5" stroke="#111827" stroke-width="1.2"/>
<rect x="547.7" y="348.3" width="11.4" height="101.7" fill="#f4a261" fill-opacity="0.75"/>
<circle cx="553.4" cy="288.5" r="2.8" fill="#111827"/>
<line x1="537.5" y1="212.5" x2="553.4" y2="288.5" stroke="#111827" stroke-width="1.2"/>
<rect x="563.5" y="442.1" width="11.4" height="7.9" fill="#f4a261" fill-opacity="0.75"/>
<circle cx="569.2" cy="331.2" r="2.8" fill="#111827"/>
<line x1="553.4" y1="288.5" x2="569.2" y2="331.2" stroke="#111827" stroke-width="1.2"/>
<rect x="579.4" y="396.0" width="11.4" height="54.0" fill="#f4a261" fill-opacity="0.75"/>
<circle cx="585.1" cy="231.5" r="2.8" fill="#111827"/>
<line x1="569.2" y1="331.2" x2="585.1" y2="231.5" stroke="#111827" stroke-width="1.2"/>
<rect x="595.2" y="437.3" width="11.4" height="12.7" fill="#f4a261" fill-opacity="0.75"/>
<text x="600.9" y="468.0" font-family="Arial, Helvetica, sans-serif" font-size="9" font-weight="400" text-anchor="middle" fill="#374151">2005</text>
<circle cx="600.9" cy="269.5" r="2.8" fill="#111827"/>
<line x1="585.1" y1="231.5" x2="600.9" y2="269.5" stroke="#111827" stroke-width="1.2"/>
<rect x="611.1" y="294.5" width="11.4" height="155.5" fill="#f4a261" fill-opacity="0.75"/>
<circle cx="616.8" cy="264.8" r="2.8" fill="#111827"/>
<line x1="600.9" y1="269.5" x2="616.8" y2="264.8" stroke="#111827" stroke-width="1.2"/>
<rect x="626.9" y="420.7" width="11.4" height="29.3" fill="#f4a261" fill-opacity="0.75"/>
<circle cx="632.6" cy="355.0" r="2.8" fill="#111827"/>
<line x1="616.8" y1="264.8" x2="632.6" y2="355.0" stroke="#111827" stroke-width="1.2"/>
<rect x="642.8" y="323.3" width="11.4" height="126.7" fill="#f4a261" fill-opacity="0.75"/>
<circle cx="648.5" cy="283.8" r="2.8" fill="#111827"/>
<line x1="632.6" y1="355.0" x2="648.5" y2="283.8" stroke="#111827" stroke-width="1.2"/>
<rect x="658.6" y="447.9" width="11.4" height="2.1" fill="#f4a261" fill-opacity="0.75"/>
<circle cx="664.3" cy="426.2" r="2.8" fill="#111827"/>
<line x1="648.5" y1="283.8" x2="664.3" y2="426.2" stroke="#111827" stroke-width="1.2"/>
<rect x="674.5" y="70.0" width="11.4" height="380.0" fill="#f4a261" fill-opacity="0.75"/>
<text x="680.2" y="468.0" font-family="Arial, Helvetica, sans-serif" font-size="9" font-weight="400" text-anchor="middle" fill="#374151">2010</text>
<circle cx="680.2" cy="70.0" r="2.8" fill="#111827"/>
<line x1="664.3" y1="426.2" x2="680.2" y2="70.0" stroke="#111827" stroke-width="1.2"/>
<rect x="690.3" y="435.8" width="11.4" height="14.2" fill="#f4a261" fill-opacity="0.75"/>
<circle cx="696.0" cy="402.5" r="2.8" fill="#111827"/>
<line x1="680.2" y1="70.0" x2="696.0" y2="402.5" stroke="#111827" stroke-width="1.2"/>
<rect x="706.2" y="422.8" width="11.4" height="27.2" fill="#f4a261" fill-opacity="0.75"/>
<circle cx="711.9" cy="274.2" r="2.8" fill="#111827"/>
<line x1="696.0" y1="402.5" x2="711.9" y2="274.2" stroke="#111827" stroke-width="1.2"/>
<rect x="722.0" y="344.6" width="11.4" height="105.4" fill="#f4a261" fill-opacity="0.75"/>
<circle cx="727.7" cy="331.2" r="2.8" fill="#111827"/>
<line x1="711.9" y1="274.2" x2="727.7" y2="331.2" stroke="#111827" stroke-width="1.2"/>
<rect x="737.9" y="392.2" width="11.4" height="57.8" fill="#f4a261" fill-opacity="0.75"/>
<circle cx="743.6" cy="269.5" r="2.8" fill="#111827"/>
<line x1="727.7" y1="331.2" x2="743.6" y2="269.5" stroke="#111827" stroke-width="1.2"/>
<rect x="753.7" y="366.3" width="11.4" height="83.7" fill="#f4a261" fill-opacity="0.75"/>
<text x="759.4" y="468.0" font-family="Arial, Helvetica, sans-serif" font-size="9" font-weight="400" text-anchor="middle" fill="#374151">2015</text>
<circle cx="759.4" cy="288.5" r="2.8" fill="#111827"/>
<line x1="743.6" y1="269.5" x2="759.4" y2="288.5" stroke="#111827" stroke-width="1.2"/>
<rect x="769.6" y="418.8" width="11.4" height="31.2" fill="#f4a261" fill-opacity="0.75"/>
<circle cx="775.3" cy="378.8" r="2.8" fill="#111827"/>
<line x1="759.4" y1="288.5" x2="775.3" y2="378.8" stroke="#111827" stroke-width="1.2"/>
<rect x="785.4" y="406.0" width="11.4" height="44.0" fill="#f4a261" fill-opacity="0.75"/>
<circle cx="791.1" cy="255.3" r="2.8" fill="#111827"/>
<line x1="775.3" y1="378.8" x2="791.1" y2="255.3" stroke="#111827" stroke-width="1.2"/>
<rect x="801.3" y="442.3" width="11.4" height="7.7" fill="#f4a261" fill-opacity="0.75"/>
<circle cx="807.0" cy="350.2" r="2.8" fill="#111827"/>
<line x1="791.1" y1="255.3" x2="807.0" y2="350.2" stroke="#111827" stroke-width="1.2"/>
<rect x="817.1" y="445.1" width="11.4" height="4.9" fill="#f4a261" fill-opacity="0.75"/>
<circle cx="822.8" cy="378.8" r="2.8" fill="#111827"/>
<line x1="807.0" y1="350.2" x2="822.8" y2="378.8" stroke="#111827" stroke-width="1.2"/>
<rect x="833.0" y="450.0" width="11.4" height="0.0" fill="#e76f51" fill-opacity="0.75"/>
<text x="838.7" y="468.0" font-family="Arial, Helvetica, sans-serif" font-size="9" font-weight="400" text-anchor="middle" fill="#374151">2020</text>
<circle cx="838.7" cy="445.2" r="2.8" fill="#111827"/>
<line x1="822.8" y1="378.8" x2="838.7" y2="445.2" stroke="#111827" stroke-width="1.2"/>
<rect x="848.8" y="366.4" width="11.4" height="83.6" fill="#e76f51" fill-opacity="0.75"/>
<text x="854.5" y="468.0" font-family="Arial, Helvetica, sans-serif" font-size="9" font-weight="400" text-anchor="middle" fill="#374151">2021</text>
<circle cx="854.5" cy="108.0" r="2.8" fill="#111827"/>
<line x1="838.7" y1="445.2" x2="854.5" y2="108.0" stroke="#111827" stroke-width="1.2"/>
<rect x="864.7" y="430.1" width="11.4" height="19.9" fill="#e76f51" fill-opacity="0.75"/>
<text x="870.4" y="468.0" font-family="Arial, Helvetica, sans-serif" font-size="9" font-weight="400" text-anchor="middle" fill="#374151">2022</text>
<circle cx="870.4" cy="255.3" r="2.8" fill="#111827"/>
<line x1="854.5" y1="108.0" x2="870.4" y2="255.3" stroke="#111827" stroke-width="1.2"/>
<rect x="880.5" y="298.2" width="11.4" height="151.8" fill="#e76f51" fill-opacity="0.75"/>
<text x="886.2" y="468.0" font-family="Arial, Helvetica, sans-serif" font-size="9" font-weight="400" text-anchor="middle" fill="#374151">2023</text>
<circle cx="886.2" cy="326.5" r="2.8" fill="#111827"/>
<line x1="870.4" y1="255.3" x2="886.2" y2="326.5" stroke="#111827" stroke-width="1.2"/>
<rect x="896.4" y="415.0" width="11.4" height="35.0" fill="#e76f51" fill-opacity="0.75"/>
<text x="902.1" y="468.0" font-family="Arial, Helvetica, sans-serif" font-size="9" font-weight="400" text-anchor="middle" fill="#374151">2024</text>
<circle cx="902.1" cy="298.0" r="2.8" fill="#111827"/>
<line x1="886.2" y1="326.5" x2="902.1" y2="298.0" stroke="#111827" stroke-width="1.2"/>
<line x1="66" x2="910" y1="450.0" y2="450.0" stroke="#e5e7eb"/>
<text x="62.0" y="454.0" font-family="Arial, Helvetica, sans-serif" font-size="10" font-weight="400" text-anchor="end" fill="#374151">0k ha</text>
<line x1="66" x2="910" y1="355.0" y2="355.0" stroke="#e5e7eb"/>
<text x="62.0" y="359.0" font-family="Arial, Helvetica, sans-serif" font-size="10" font-weight="400" text-anchor="end" fill="#374151">334k ha</text>
<line x1="66" x2="910" y1="260.0" y2="260.0" stroke="#e5e7eb"/>
<text x="62.0" y="264.0" font-family="Arial, Helvetica, sans-serif" font-size="10" font-weight="400" text-anchor="end" fill="#374151">667k ha</text>
<line x1="66" x2="910" y1="165.0" y2="165.0" stroke="#e5e7eb"/>
<text x="62.0" y="169.0" font-family="Arial, Helvetica, sans-serif" font-size="10" font-weight="400" text-anchor="end" fill="#374151">1,001k ha</text>
<line x1="66" x2="910" y1="70.0" y2="70.0" stroke="#e5e7eb"/>
<text x="62.0" y="74.0" font-family="Arial, Helvetica, sans-serif" font-size="10" font-weight="400" text-anchor="end" fill="#374151">1,334k ha</text>
<text x="910.0" y="52.0" font-family="Arial, Helvetica, sans-serif" font-size="11" font-weight="400" text-anchor="end" fill="#111827">Fire count line</text>
<text x="70.0" y="498.0" font-family="Arial, Helvetica, sans-serif" font-size="11" font-weight="400" text-anchor="start" fill="#374151">Year</text>
</svg>