<svg xmlns="http://www.w3.org/2000/svg" width="980" height="540" viewBox="0 0 980 540">
<rect width="100%" height="100%" fill="#ffffff"/>
<text x="30.0" y="34.0" font-family="Arial, Helvetica, sans-serif" font-size="18" font-weight="700" text-anchor="start" fill="#222">Figure 3. Fire-rainfall-discharge timing, 2024 fire season</text>
<text x="30.0" y="56.0" font-family="Arial, Helvetica, sans-serif" font-size="12" font-weight="400" text-anchor="start" fill="#555">Key Lake daily precipitation is merged from station IDs 4063753/4063757; discharge is WSC 06DA004.</text>
<line x1="78" x2="902" y1="462" y2="462" stroke="#111827"/>
<line x1="78" x2="78" y1="78" y2="462" stroke="#111827"/>
<line x1="902" x2="902" y1="78" y2="462" stroke="#111827"/>
<rect x="76.0" y="426.4" width="4" height="35.6" fill="#38bdf8" fill-opacity="0.72"/>
<rect x="82.8" y="456.9" width="4" height="5.1" fill="#38bdf8" fill-opacity="0.72"/>
<rect x="89.5" y="458.6" width="4" height="3.4" fill="#38bdf8" fill-opacity="0.72"/>
<rect x="96.3" y="443.4" width="4" height="18.6" fill="#38bdf8" fill-opacity="0.72"/>
<rect x="103.0" y="314.6" width="4" height="147.4" fill="#38bdf8" fill-opacity="0.72"/>
<rect x="109.8" y="442.5" width="4" height="19.5" fill="#38bdf8" fill-opacity="0.72"/>
<rect x="116.5" y="413.7" width="4" height="48.3" fill="#38bdf8" fill-opacity="0.72"/>
<rect x="123.3" y="445.1" width="4" height="16.9" fill="#38bdf8" fill-opacity="0.72"/>
<rect x="136.8" y="445.1" width="4" height="16.9" fill="#38bdf8" fill-opacity="0.72"/>
<rect x="143.5" y="404.4" width="4" height="57.6" fill="#38bdf8" fill-opacity="0.72"/>
<rect x="150.3" y="433.2" width="4" height="28.8" fill="#38bdf8" fill-opacity="0.72"/>
<rect x="163.8" y="460.3" width="4" height="1.7" fill="#38bdf8" fill-opacity="0.72"/>
<rect x="170.6" y="434.0" width="4" height="28.0" fill="#38bdf8" fill-opacity="0.72"/>
<rect x="184.1" y="443.4" width="4" height="18.6" fill="#38bdf8" fill-opacity="0.72"/>
<rect x="190.8" y="455.2" width="4" height="6.8" fill="#38bdf8" fill-opacity="0.72"/>
<rect x="197.6" y="459.5" width="4" height="2.5" fill="#38bdf8" fill-opacity="0.72"/>
<rect x="231.3" y="411.2" width="4" height="50.8" fill="#38bdf8" fill-opacity="0.72"/>
<rect x="285.4" y="460.3" width="4" height="1.7" fill="#38bdf8" fill-opacity="0.72"/>
<rect x="312.4" y="453.5" width="4" height="8.5" fill="#38bdf8" fill-opacity="0.72"/>
<rect x="325.9" y="461.2" width="4" height="0.8" fill="#38bdf8" fill-opacity="0.72"/>
<rect x="352.9" y="460.3" width="4" height="1.7" fill="#38bdf8" fill-opacity="0.72"/>
<rect x="434.0" y="404.4" width="4" height="57.6" fill="#38bdf8" fill-opacity="0.72"/>
<rect x="440.7" y="460.3" width="4" height="1.7" fill="#38bdf8" fill-opacity="0.72"/>
<rect x="447.5" y="360.4" width="4" height="101.6" fill="#38bdf8" fill-opacity="0.72"/>
<rect x="454.2" y="447.6" width="4" height="14.4" fill="#38bdf8" fill-opacity="0.72"/>
<rect x="461.0" y="456.1" width="4" height="5.9" fill="#38bdf8" fill-opacity="0.72"/>
<rect x="467.7" y="446.8" width="4" height="15.2" fill="#38bdf8" fill-opacity="0.72"/>
<rect x="481.2" y="455.2" width="4" height="6.8" fill="#38bdf8" fill-opacity="0.72"/>
<rect x="488.0" y="446.8" width="4" height="15.2" fill="#38bdf8" fill-opacity="0.72"/>
<rect x="494.8" y="432.4" width="4" height="29.6" fill="#38bdf8" fill-opacity="0.72"/>
<rect x="521.8" y="460.3" width="4" height="1.7" fill="#38bdf8" fill-opacity="0.72"/>
<rect x="575.8" y="411.2" width="4" height="50.8" fill="#38bdf8" fill-opacity="0.72"/>
<rect x="616.3" y="434.9" width="4" height="27.1" fill="#38bdf8" fill-opacity="0.72"/>
<rect x="643.3" y="457.8" width="4" height="4.2" fill="#38bdf8" fill-opacity="0.72"/>
<rect x="650.1" y="445.9" width="4" height="16.1" fill="#38bdf8" fill-opacity="0.72"/>
<rect x="683.9" y="460.3" width="4" height="1.7" fill="#38bdf8" fill-opacity="0.72"/>
<rect x="710.9" y="447.6" width="4" height="14.4" fill="#38bdf8" fill-opacity="0.72"/>
<rect x="717.6" y="435.7" width="4" height="26.3" fill="#38bdf8" fill-opacity="0.72"/>
<rect x="724.4" y="434.9" width="4" height="27.1" fill="#38bdf8" fill-opacity="0.72"/>
<rect x="778.4" y="328.2" width="4" height="133.8" fill="#38bdf8" fill-opacity="0.72"/>
<rect x="785.2" y="417.1" width="4" height="44.9" fill="#38bdf8" fill-opacity="0.72"/>
<rect x="791.9" y="460.3" width="4" height="1.7" fill="#38bdf8" fill-opacity="0.72"/>
<rect x="812.2" y="412.0" width="4" height="50.0" fill="#38bdf8" fill-opacity="0.72"/>
<rect x="819.0" y="330.7" width="4" height="131.3" fill="#38bdf8" fill-opacity="0.72"/>
<rect x="839.2" y="444.2" width="4" height="17.8" fill="#38bdf8" fill-opacity="0.72"/>
<rect x="846.0" y="460.3" width="4" height="1.7" fill="#38bdf8" fill-opacity="0.72"/>
<rect x="852.7" y="445.1" width="4" height="16.9" fill="#38bdf8" fill-opacity="0.72"/>
<rect x="859.5" y="460.3" width="4" height="1.7" fill="#38bdf8" fill-opacity="0.72"/>
<rect x="866.2" y="444.2" width="4" height="17.8" fill="#38bdf8" fill-opacity="0.72"/>
<rect x="873.0" y="458.6" width="4" height="3.4" fill="#38bdf8" fill-opacity="0.72"/>
<rect x="879.7" y="460.3" width="4" height="1.7" fill="#38bdf8" fill-opacity="0.72"/>
<rect x="886.5" y="289.2" width="4" height="172.8" fill="#38bdf8" fill-opacity="0.72"/>
<line x1="78.0" y1="242.7" x2="84.8" y2="240.4" stroke="#2563eb" stroke-width="2"/>
<line x1="84.8" y1="240.4" x2="91.5" y2="238.0" stroke="#2563eb" stroke-width="2"/>
<line x1="91.5" y1="238.0" x2="98.3" y2="238.8" stroke="#2563eb" stroke-width="2"/>
<line x1="98.3" y1="238.8" x2="105.0" y2="237.2" stroke="#2563eb" stroke-width="2"/>
<line x1="105.0" y1="237.2" x2="111.8" y2="210.5" stroke="#2563eb" stroke-width="2"/>
<line x1="111.8" y1="210.5" x2="118.5" y2="191.7" stroke="#2563eb" stroke-width="2"/>
<line x1="118.5" y1="191.7" x2="125.3" y2="178.3" stroke="#2563eb" stroke-width="2"/>
<line x1="125.3" y1="178.3" x2="132.0" y2="158.7" stroke="#2563eb" stroke-width="2"/>
<line x1="132.0" y1="158.7" x2="138.8" y2="145.3" stroke="#2563eb" stroke-width="2"/>
<line x1="138.8" y1="145.3" x2="145.5" y2="137.4" stroke="#2563eb" stroke-width="2"/>
<line x1="145.5" y1="137.4" x2="152.3" y2="135.1" stroke="#2563eb" stroke-width="2"/>
<line x1="152.3" y1="135.1" x2="159.0" y2="133.5" stroke="#2563eb" stroke-width="2"/>
<line x1="159.0" y1="133.5" x2="165.8" y2="131.2" stroke="#2563eb" stroke-width="2"/>
<line x1="165.8" y1="131.2" x2="172.6" y2="131.9" stroke="#2563eb" stroke-width="2"/>
<line x1="172.6" y1="131.9" x2="179.3" y2="138.2" stroke="#2563eb" stroke-width="2"/>
<line x1="179.3" y1="138.2" x2="186.1" y2="124.1" stroke="#2563eb" stroke-width="2"/>
<line x1="186.1" y1="124.1" x2="192.8" y2="132.7" stroke="#2563eb" stroke-width="2"/>
<line x1="192.8" y1="132.7" x2="199.6" y2="133.5" stroke="#2563eb" stroke-width="2"/>
<line x1="199.6" y1="133.5" x2="206.3" y2="139.8" stroke="#2563eb" stroke-width="2"/>
<line x1="206.3" y1="139.8" x2="213.1" y2="143.7" stroke="#2563eb" stroke-width="2"/>
<line x1="213.1" y1="143.7" x2="219.8" y2="152.4" stroke="#2563eb" stroke-width="2"/>
<line x1="219.8" y1="152.4" x2="226.6" y2="159.4" stroke="#2563eb" stroke-width="2"/>
<line x1="226.6" y1="159.4" x2="233.3" y2="175.2" stroke="#2563eb" stroke-width="2"/>
<line x1="233.3" y1="175.2" x2="240.1" y2="183.0" stroke="#2563eb" stroke-width="2"/>
<line x1="240.1" y1="183.0" x2="246.9" y2="182.2" stroke="#2563eb" stroke-width="2"/>
<line x1="246.9" y1="182.2" x2="253.6" y2="194.0" stroke="#2563eb" stroke-width="2"/>
<line x1="253.6" y1="194.0" x2="260.4" y2="202.7" stroke="#2563eb" stroke-width="2"/>
<line x1="260.4" y1="202.7" x2="267.1" y2="205.8" stroke="#2563eb" stroke-width="2"/>
<line x1="267.1" y1="205.8" x2="273.9" y2="210.5" stroke="#2563eb" stroke-width="2"/>
<line x1="273.9" y1="210.5" x2="280.6" y2="220.0" stroke="#2563eb" stroke-width="2"/>
<line x1="280.6" y1="220.0" x2="287.4" y2="229.4" stroke="#2563eb" stroke-width="2"/>
<line x1="287.4" y1="229.4" x2="294.1" y2="240.4" stroke="#2563eb" stroke-width="2"/>
<line x1="294.1" y1="240.4" x2="300.9" y2="244.3" stroke="#2563eb" stroke-width="2"/>
<line x1="300.9" y1="244.3" x2="307.6" y2="252.2" stroke="#2563eb" stroke-width="2"/>
<line x1="307.6" y1="252.2" x2="314.4" y2="254.5" stroke="#2563eb" stroke-width="2"/>
<line x1="314.4" y1="254.5" x2="321.1" y2="257.7" stroke="#2563eb" stroke-width="2"/>
<line x1="321.1" y1="257.7" x2="327.9" y2="260.0" stroke="#2563eb" stroke-width="2"/>
<line x1="327.9" y1="260.0" x2="334.7" y2="259.2" stroke="#2563eb" stroke-width="2"/>
<line x1="334.7" y1="259.2" x2="341.4" y2="260.8" stroke="#2563eb" stroke-width="2"/>
<line x1="341.4" y1="260.8" x2="348.2" y2="266.3" stroke="#2563eb" stroke-width="2"/>
<line x1="348.2" y1="266.3" x2="354.9" y2="263.2" stroke="#2563eb" stroke-width="2"/>
<line x1="354.9" y1="263.2" x2="361.7" y2="267.1" stroke="#2563eb" stroke-width="2"/>
<line x1="361.7" y1="267.1" x2="368.4" y2="275.8" stroke="#2563eb" stroke-width="2"/>
<line x1="368.4" y1="275.8" x2="375.2" y2="282.0" stroke="#2563eb" stroke-width="2"/>
<line x1="375.2" y1="282.0" x2="381.9" y2="286.8" stroke="#2563eb" stroke-width="2"/>
<line x1="381.9" y1="286.8" x2="388.7" y2="292.3" stroke="#2563eb" stroke-width="2"/>
<line x1="388.7" y1="292.3" x2="395.4" y2="297.0" stroke="#2563eb" stroke-width="2"/>
<line x1="395.4" y1="297.0" x2="402.2" y2="302.5" stroke="#2563eb" stroke-width="2"/>
<line x1="402.2" y1="302.5" x2="409.0" y2="308.8" stroke="#2563eb" stroke-width="2"/>
<line x1="409.0" y1="308.8" x2="415.7" y2="315.8" stroke="#2563eb" stroke-width="2"/>
<line x1="415.7" y1="315.8" x2="422.5" y2="320.5" stroke="#2563eb" stroke-width="2"/>
<line x1="422.5" y1="320.5" x2="429.2" y2="325.3" stroke="#2563eb" stroke-width="2"/>
<line x1="429.2" y1="325.3" x2="436.0" y2="330.8" stroke="#2563eb" stroke-width="2"/>
<line x1="436.0" y1="330.8" x2="442.7" y2="337.0" stroke="#2563eb" stroke-width="2"/>
<line x1="442.7" y1="337.0" x2="449.5" y2="337.0" stroke="#2563eb" stroke-width="2"/>
<line x1="449.5" y1="337.0" x2="456.2" y2="341.0" stroke="#2563eb" stroke-width="2"/>
<line x1="456.2" y1="341.0" x2="463.0" y2="344.9" stroke="#2563eb" stroke-width="2"/>
<line x1="463.0" y1="344.9" x2="469.7" y2="347.3" stroke="#2563eb" stroke-width="2"/>
<line x1="469.7" y1="347.3" x2="476.5" y2="349.6" stroke="#2563eb" stroke-width="2"/>
<line x1="476.5" y1="349.6" x2="483.2" y2="351.2" stroke="#2563eb" stroke-width="2"/>
<line x1="483.2" y1="351.2" x2="490.0" y2="352.8" stroke="#2563eb" stroke-width="2"/>
<line x1="490.0" y1="352.8" x2="496.8" y2="355.9" stroke="#2563eb" stroke-width="2"/>
<line x1="496.8" y1="355.9" x2="503.5" y2="359.1" stroke="#2563eb" stroke-width="2"/>
<line x1="503.5" y1="359.1" x2="510.3" y2="363.0" stroke="#2563eb" stroke-width="2"/>
<line x1="510.3" y1="363.0" x2="517.0" y2="366.1" stroke="#2563eb" stroke-width="2"/>
<line x1="517.0" y1="366.1" x2="523.8" y2="374.0" stroke="#2563eb" stroke-width="2"/>
<line x1="523.8" y1="374.0" x2="530.5" y2="377.9" stroke="#2563eb" stroke-width="2"/>
<line x1="530.5" y1="377.9" x2="537.3" y2="381.1" stroke="#2563eb" stroke-width="2"/>
<line x1="537.3" y1="381.1" x2="544.0" y2="383.4" stroke="#2563eb" stroke-width="2"/>
<line x1="544.0" y1="383.4" x2="550.8" y2="385.8" stroke="#2563eb" stroke-width="2"/>
<line x1="550.8" y1="385.8" x2="557.5" y2="387.3" stroke="#2563eb" stroke-width="2"/>
<line x1="557.5" y1="387.3" x2="564.3" y2="390.5" stroke="#2563eb" stroke-width="2"/>
<line x1="564.3" y1="390.5" x2="571.0" y2="395.2" stroke="#2563eb" stroke-width="2"/>
<line x1="571.0" y1="395.2" x2="577.8" y2="392.1" stroke="#2563eb" stroke-width="2"/>
<line x1="577.8" y1="392.1" x2="584.6" y2="392.8" stroke="#2563eb" stroke-width="2"/>
<line x1="584.6" y1="392.8" x2="591.3" y2="396.8" stroke="#2563eb" stroke-width="2"/>
<line x1="591.3" y1="396.8" x2="598.1" y2="402.3" stroke="#2563eb" stroke-width="2"/>
<line x1="598.1" y1="402.3" x2="604.8" y2="407.8" stroke="#2563eb" stroke-width="2"/>
<line x1="604.8" y1="407.8" x2="611.6" y2="410.9" stroke="#2563eb" stroke-width="2"/>
<line x1="611.6" y1="410.9" x2="618.3" y2="413.3" stroke="#2563eb" stroke-width="2"/>
<line x1="618.3" y1="413.3" x2="625.1" y2="416.4" stroke="#2563eb" stroke-width="2"/>
<line x1="625.1" y1="416.4" x2="631.8" y2="418.8" stroke="#2563eb" stroke-width="2"/>
<line x1="631.8" y1="418.8" x2="638.6" y2="421.1" stroke="#2563eb" stroke-width="2"/>
<line x1="638.6" y1="421.1" x2="645.3" y2="424.3" stroke="#2563eb" stroke-width="2"/>
<line x1="645.3" y1="424.3" x2="652.1" y2="424.3" stroke="#2563eb" stroke-width="2"/>
<line x1="652.1" y1="424.3" x2="658.9" y2="429.0" stroke="#2563eb" stroke-width="2"/>
<line x1="658.9" y1="429.0" x2="665.6" y2="432.1" stroke="#2563eb" stroke-width="2"/>
<line x1="665.6" y1="432.1" x2="672.4" y2="435.3" stroke="#2563eb" stroke-width="2"/>
<line x1="672.4" y1="435.3" x2="679.1" y2="437.6" stroke="#2563eb" stroke-width="2"/>
<line x1="679.1" y1="437.6" x2="685.9" y2="439.2" stroke="#2563eb" stroke-width="2"/>
<line x1="685.9" y1="439.2" x2="692.6" y2="441.6" stroke="#2563eb" stroke-width="2"/>
<line x1="692.6" y1="441.6" x2="699.4" y2="443.1" stroke="#2563eb" stroke-width="2"/>
<line x1="699.4" y1="443.1" x2="706.1" y2="444.7" stroke="#2563eb" stroke-width="2"/>
<line x1="706.1" y1="444.7" x2="712.9" y2="446.3" stroke="#2563eb" stroke-width="2"/>
<line x1="712.9" y1="446.3" x2="719.6" y2="447.9" stroke="#2563eb" stroke-width="2"/>
<line x1="719.6" y1="447.9" x2="726.4" y2="449.4" stroke="#2563eb" stroke-width="2"/>
<line x1="726.4" y1="449.4" x2="733.1" y2="447.9" stroke="#2563eb" stroke-width="2"/>
<line x1="733.1" y1="447.9" x2="739.9" y2="451.8" stroke="#2563eb" stroke-width="2"/>
<line x1="739.9" y1="451.8" x2="746.7" y2="453.4" stroke="#2563eb" stroke-width="2"/>
<line x1="746.7" y1="453.4" x2="753.4" y2="454.9" stroke="#2563eb" stroke-width="2"/>
<line x1="753.4" y1="454.9" x2="760.2" y2="454.9" stroke="#2563eb" stroke-width="2"/>
<line x1="760.2" y1="454.9" x2="766.9" y2="457.3" stroke="#2563eb" stroke-width="2"/>
<line x1="766.9" y1="457.3" x2="773.7" y2="460.4" stroke="#2563eb" stroke-width="2"/>
<line x1="773.7" y1="460.4" x2="780.4" y2="462.0" stroke="#2563eb" stroke-width="2"/>
<line x1="780.4" y1="462.0" x2="787.2" y2="458.1" stroke="#2563eb" stroke-width="2"/>
<line x1="787.2" y1="458.1" x2="793.9" y2="458.9" stroke="#2563eb" stroke-width="2"/>
<line x1="793.9" y1="458.9" x2="800.7" y2="460.4" stroke="#2563eb" stroke-width="2"/>
<line x1="800.7" y1="460.4" x2="807.4" y2="462.0" stroke="#2563eb" stroke-width="2"/>
<line x1="807.4" y1="462.0" x2="814.2" y2="462.0" stroke="#2563eb" stroke-width="2"/>
<line x1="814.2" y1="462.0" x2="821.0" y2="459.6" stroke="#2563eb" stroke-width="2"/>
<line x1="821.0" y1="459.6" x2="827.7" y2="456.5" stroke="#2563eb" stroke-width="2"/>
<line x1="827.7" y1="456.5" x2="834.5" y2="455.7" stroke="#2563eb" stroke-width="2"/>
<line x1="834.5" y1="455.7" x2="841.2" y2="454.1" stroke="#2563eb" stroke-width="2"/>
<line x1="841.2" y1="454.1" x2="848.0" y2="453.4" stroke="#2563eb" stroke-width="2"/>
<line x1="848.0" y1="453.4" x2="854.7" y2="451.8" stroke="#2563eb" stroke-width="2"/>
<line x1="854.7" y1="451.8" x2="861.5" y2="451.0" stroke="#2563eb" stroke-width="2"/>
<line x1="861.5" y1="451.0" x2="868.2" y2="449.4" stroke="#2563eb" stroke-width="2"/>
<line x1="868.2" y1="449.4" x2="875.0" y2="447.9" stroke="#2563eb" stroke-width="2"/>
<line x1="875.0" y1="447.9" x2="881.7" y2="445.5" stroke="#2563eb" stroke-width="2"/>
<line x1="881.7" y1="445.5" x2="888.5" y2="443.1" stroke="#2563eb" stroke-width="2"/>
<line x1="888.5" y1="443.1" x2="895.2" y2="437.6" stroke="#2563eb" stroke-width="2"/>
<line x1="895.2" y1="437.6" x2="902.0" y2="432.1" stroke="#2563eb" stroke-width="2"/>
<line x1="287.4" x2="287.4" y1="78" y2="462" stroke="#dc2626" stroke-width="1.1" stroke-dasharray="4 4"/>
<line x1="334.7" x2="334.7" y1="78" y2="462" stroke="#dc2626" stroke-width="1.1" stroke-dasharray="4 4"/>
<line x1="287.4" x2="287.4" y1="78" y2="462" stroke="#dc2626" stroke-width="1.1" stroke-dasharray="4 4"/>
<text x="78.0" y="484.0" font-family="Arial, Helvetica, sans-serif" font-size="10" font-weight="400" text-anchor="middle" fill="#374151">Jun</text>
<text x="280.6" y="484.0" font-family="Arial, Helvetica, sans-serif" font-size="10" font-weight="400" text-anchor="middle" fill="#374151">Jul</text>
<text x="490.0" y="484.0" font-family="Arial, Helvetica, sans-serif" font-size="10" font-weight="400" text-anchor="middle" fill="#374151">Aug</text>
<text x="699.4" y="484.0" font-family="Arial, Helvetica, sans-serif" font-size="10" font-weight="400" text-anchor="middle" fill="#374151">Sep</text>
<text x="902.0" y="484.0" font-family="Arial, Helvetica, sans-serif" font-size="10" font-weight="400" text-anchor="middle" fill="#374151">Oct</text>
<text x="30.0" y="88.0" font-family="Arial, Helvetica, sans-serif" font-size="11" font-weight="400" text-anchor="start" fill="#0369a1">Precip. max 20.4 mm d^-1</text>
<text x="950.0" y="88.0" font-family="Arial, Helvetica, sans-serif" font-size="11" font-weight="400" text-anchor="end" fill="#1d4ed8">Discharge 14.5-57.5 m3 s^-1</text>
<text x="950.0" y="108.0" font-family="Arial, Helvetica, sans-serif" font-size="11" font-weight="400" text-anchor="end" fill="#991b1b">Red dashed lines: nearby 2024 fire start dates</text>
</svg>