<svg xmlns="http://www.w3.org/2000/svg" width="1120" height="680" viewBox="0 0 1120 680">
<rect width="100%" height="100%" fill="#ffffff"/>
<text x="46.0" y="42.0" font-family="Arial, Helvetica, sans-serif" font-size="20" font-weight="700" text-anchor="start" fill="#222">Lake/wetland sediment secondary-source sensitivity</text>
<text x="46.0" y="68.0" font-family="Arial, Helvetica, sans-serif" font-size="12" font-weight="400" text-anchor="start" fill="#555">Long-term risk depends on how much first-flush load is retained, buried, or resuspended.</text>
<rect x="86" y="118" width="820" height="420" fill="#fbfbfb" stroke="#ddd"/>
<line x1="86" y1="538.0" x2="906" y2="538.0" stroke="#e8e8e8"/>
<text x="76.0" y="542.0" font-family="Arial, Helvetica, sans-serif" font-size="10" font-weight="400" text-anchor="end" fill="#666">0</text>
<line x1="86" y1="454.0" x2="906" y2="454.0" stroke="#e8e8e8"/>
<text x="76.0" y="458.0" font-family="Arial, Helvetica, sans-serif" font-size="10" font-weight="400" text-anchor="end" fill="#666">0.01</text>
<line x1="86" y1="370.0" x2="906" y2="370.0" stroke="#e8e8e8"/>
<text x="76.0" y="374.0" font-family="Arial, Helvetica, sans-serif" font-size="10" font-weight="400" text-anchor="end" fill="#666">0.02</text>
<line x1="86" y1="286.0" x2="906" y2="286.0" stroke="#e8e8e8"/>
<text x="76.0" y="290.0" font-family="Arial, Helvetica, sans-serif" font-size="10" font-weight="400" text-anchor="end" fill="#666">0.031</text>
<line x1="86" y1="202.0" x2="906" y2="202.0" stroke="#e8e8e8"/>
<text x="76.0" y="206.0" font-family="Arial, Helvetica, sans-serif" font-size="10" font-weight="400" text-anchor="end" fill="#666">0.041</text>
<line x1="86" y1="118.0" x2="906" y2="118.0" stroke="#e8e8e8"/>
<text x="76.0" y="122.0" font-family="Arial, Helvetica, sans-serif" font-size="10" font-weight="400" text-anchor="end" fill="#666">0.051</text>
<line x1="86.0" y1="118" x2="86.0" y2="538" stroke="#f0f0f0"/>
<text x="86.0" y="556.0" font-family="Arial, Helvetica, sans-serif" font-size="10" font-weight="400" text-anchor="middle" fill="#666">0</text>
<line x1="291.0" y1="118" x2="291.0" y2="538" stroke="#f0f0f0"/>
<text x="291.0" y="556.0" font-family="Arial, Helvetica, sans-serif" font-size="10" font-weight="400" text-anchor="middle" fill="#666">5</text>
<line x1="496.0" y1="118" x2="496.0" y2="538" stroke="#f0f0f0"/>
<text x="496.0" y="556.0" font-family="Arial, Helvetica, sans-serif" font-size="10" font-weight="400" text-anchor="middle" fill="#666">10</text>
<line x1="701.0" y1="118" x2="701.0" y2="538" stroke="#f0f0f0"/>
<text x="701.0" y="556.0" font-family="Arial, Helvetica, sans-serif" font-size="10" font-weight="400" text-anchor="middle" fill="#666">15</text>
<line x1="906.0" y1="118" x2="906.0" y2="538" stroke="#f0f0f0"/>
<text x="906.0" y="556.0" font-family="Arial, Helvetica, sans-serif" font-size="10" font-weight="400" text-anchor="middle" fill="#666">20</text>
<polyline points="86.0,505.1 92.8,505.3 99.7,505.4 106.5,505.6 113.3,505.8 120.2,506.0 127.0,506.2 133.8,506.4 140.7,506.6 147.5,506.7 154.3,506.9 161.2,507.1 168.0,507.3 174.8,507.5 181.7,507.6 188.5,507.8 195.3,508.0 202.2,508.2 209.0,508.3 215.8,508.5 222.7,508.7 229.5,508.9 236.3,509.0 243.2,509.2 250.0,509.4 256.8,509.5 263.7,509.7 270.5,509.9 277.3,510.0 284.2,510.2 291.0,510.3 297.8,510.5 304.7,510.7 311.5,510.8 318.3,511.0 325.2,511.1 332.0,511.3 338.8,511.5 345.7,511.6 352.5,511.8 359.3,511.9 366.2,512.1 373.0,512.2 379.8,512.4 386.7,512.5 393.5,512.7 400.3,512.8 407.2,513.0 414.0,513.1 420.8,513.2 427.7,513.4 434.5,513.5 441.3,513.7 448.2,513.8 455.0,514.0 461.8,514.1 468.7,514.2 475.5,514.4 482.3,514.5 489.2,514.7 496.0,514.8 502.8,514.9 509.7,515.1 516.5,515.2 523.3,515.3 530.2,515.5 537.0,515.6 543.8,515.7 550.7,515.8 557.5,516.0 564.3,516.1 571.2,516.2 578.0,516.4 584.8,516.5 591.7,516.6 598.5,516.7 605.3,516.9 612.2,517.0 619.0,517.1 625.8,517.2 632.7,517.3 639.5,517.5 646.3,517.6 653.2,517.7 660.0,517.8 666.8,517.9 673.7,518.1 680.5,518.2 687.3,518.3 694.2,518.4 701.0,518.5 707.8,518.6 714.7,518.7 721.5,518.9 728.3,519.0 735.2,519.1 742.0,519.2 748.8,519.3 755.7,519.4 762.5,519.5 769.3,519.6 776.2,519.7 783.0,519.8 789.8,519.9 796.7,520.0 803.5,520.1 810.3,520.2 817.2,520.4 824.0,520.5 830.8,520.6 837.7,520.7 844.5,520.8 851.3,520.9 858.2,521.0 865.0,521.1 871.8,521.2 878.7,521.3 885.5,521.4 892.3,521.4 899.2,521.5 906.0,521.6" fill="none" stroke="#377eb8" stroke-width="2.5" stroke-linejoin="round" stroke-linecap="round"/>
<text x="381.0" y="507.2" font-family="Arial, Helvetica, sans-serif" font-size="11" font-weight="400" text-anchor="start" fill="#377eb8">low retention, R=0.20</text>
<polyline points="86.0,379.5 92.8,381.0 99.7,382.6 106.5,384.2 113.3,385.7 120.2,387.2 127.0,388.7 133.8,390.2 140.7,391.7 147.5,393.1 154.3,394.6 161.2,396.0 168.0,397.4 174.8,398.8 181.7,400.2 188.5,401.6 195.3,402.9 202.2,404.3 209.0,405.6 215.8,406.9 222.7,408.2 229.5,409.5 236.3,410.8 243.2,412.0 250.0,413.3 256.8,414.5 263.7,415.8 270.5,417.0 277.3,418.2 284.2,419.4 291.0,420.6 297.8,421.7 304.7,422.9 311.5,424.0 318.3,425.2 325.2,426.3 332.0,427.4 338.8,428.5 345.7,429.6 352.5,430.7 359.3,431.7 366.2,432.8 373.0,433.8 379.8,434.9 386.7,435.9 393.5,436.9 400.3,437.9 407.2,438.9 414.0,439.9 420.8,440.9 427.7,441.8 434.5,442.8 441.3,443.8 448.2,444.7 455.0,445.6 461.8,446.5 468.7,447.4 475.5,448.3 482.3,449.2 489.2,450.1 496.0,451.0 502.8,451.9 509.7,452.7 516.5,453.6 523.3,454.4 530.2,455.2 537.0,456.1 543.8,456.9 550.7,457.7 557.5,458.5 564.3,459.3 571.2,460.1 578.0,460.8 584.8,461.6 591.7,462.4 598.5,463.1 605.3,463.9 612.2,464.6 619.0,465.3 625.8,466.1 632.7,466.8 639.5,467.5 646.3,468.2 653.2,468.9 660.0,469.6 666.8,470.2 673.7,470.9 680.5,471.6 687.3,472.2 694.2,472.9 701.0,473.5 707.8,474.2 714.7,474.8 721.5,475.5 728.3,476.1 735.2,476.7 742.0,477.3 748.8,477.9 755.7,478.5 762.5,479.1 769.3,479.7 776.2,480.3 783.0,480.8 789.8,481.4 796.7,482.0 803.5,482.5 810.3,483.1 817.2,483.6 824.0,484.2 830.8,484.7 837.7,485.2 844.5,485.8 851.3,486.3 858.2,486.8 865.0,487.3 871.8,487.8 878.7,488.3 885.5,488.8 892.3,489.3 899.2,489.8 906.0,490.3" fill="none" stroke="#4daf4a" stroke-width="2.5" stroke-linejoin="round" stroke-linecap="round"/>
<text x="381.0" y="428.8" font-family="Arial, Helvetica, sans-serif" font-size="11" font-weight="400" text-anchor="start" fill="#4daf4a">moderate retention, R=0.55</text>
<polyline points="86.0,118.0 92.8,124.9 99.7,131.8 106.5,138.5 113.3,145.1 120.2,151.6 127.0,158.0 133.8,164.2 140.7,170.4 147.5,176.5 154.3,182.5 161.2,188.4 168.0,194.1 174.8,199.8 181.7,205.4 188.5,210.9 195.3,216.3 202.2,221.6 209.0,226.9 215.8,232.0 222.7,237.1 229.5,242.0 236.3,246.9 243.2,251.7 250.0,256.5 256.8,261.1 263.7,265.7 270.5,270.2 277.3,274.6 284.2,279.0 291.0,283.3 297.8,287.5 304.7,291.6 311.5,295.7 318.3,299.7 325.2,303.6 332.0,307.5 338.8,311.3 345.7,315.1 352.5,318.7 359.3,322.4 366.2,325.9 373.0,329.4 379.8,332.9 386.7,336.3 393.5,339.6 400.3,342.9 407.2,346.1 414.0,349.3 420.8,352.4 427.7,355.5 434.5,358.5 441.3,361.5 448.2,364.4 455.0,367.2 461.8,370.1 468.7,372.8 475.5,375.6 482.3,378.3 489.2,380.9 496.0,383.5 502.8,386.0 509.7,388.6 516.5,391.0 523.3,393.5 530.2,395.8 537.0,398.2 543.8,400.5 550.7,402.8 557.5,405.0 564.3,407.2 571.2,409.4 578.0,411.5 584.8,413.6 591.7,415.6 598.5,417.7 605.3,419.7 612.2,421.6 619.0,423.5 625.8,425.4 632.7,427.3 639.5,429.1 646.3,430.9 653.2,432.7 660.0,434.4 666.8,436.1 673.7,437.8 680.5,439.5 687.3,441.1 694.2,442.7 701.0,444.3 707.8,445.8 714.7,447.4 721.5,448.9 728.3,450.3 735.2,451.8 742.0,453.2 748.8,454.6 755.7,456.0 762.5,457.3 769.3,458.7 776.2,460.0 783.0,461.3 789.8,462.5 796.7,463.8 803.5,465.0 810.3,466.2 817.2,467.4 824.0,468.6 830.8,469.7 837.7,470.9 844.5,472.0 851.3,473.1 858.2,474.1 865.0,475.2 871.8,476.2 878.7,477.2 885.5,478.2 892.3,479.2 899.2,480.2 906.0,481.2" fill="none" stroke="#e41a1c" stroke-width="2.5" stroke-linejoin="round" stroke-linecap="round"/>
<text x="381.0" y="324.4" font-family="Arial, Helvetica, sans-serif" font-size="11" font-weight="400" text-anchor="start" fill="#e41a1c">high retention, R=0.85</text>
<text x="496.0" y="586.0" font-family="Arial, Helvetica, sans-serif" font-size="13" font-weight="400" text-anchor="middle" fill="#222">Years after post-fire first-flush event</text>
<text x="22.0" y="328.0" font-family="Arial, Helvetica, sans-serif" font-size="13" font-weight="400" text-anchor="middle" fill="#222">Relative resuspension flux</text>
<rect x="825" y="120" width="240" height="172" rx="8" fill="#fff" stroke="#ddd"/>
<text x="845.0" y="150.0" font-family="Arial, Helvetica, sans-serif" font-size="13" font-weight="700" text-anchor="start" fill="#222">Calibration needs</text>
<text x="850.0" y="178.0" font-family="Arial, Helvetica, sans-serif" font-size="12" font-weight="400" text-anchor="start" fill="#444">- sediment-core activity</text>
<text x="850.0" y="201.0" font-family="Arial, Helvetica, sans-serif" font-size="12" font-weight="400" text-anchor="start" fill="#444">- grain-size fractions</text>
<text x="850.0" y="224.0" font-family="Arial, Helvetica, sans-serif" font-size="12" font-weight="400" text-anchor="start" fill="#444">- organic matter</text>
<text x="850.0" y="247.0" font-family="Arial, Helvetica, sans-serif" font-size="12" font-weight="400" text-anchor="start" fill="#444">- Fe-Mn oxide extraction</text>
<text x="850.0" y="270.0" font-family="Arial, Helvetica, sans-serif" font-size="12" font-weight="400" text-anchor="start" fill="#444">- storm TSS and flow</text>
</svg>