<svg xmlns="http://www.w3.org/2000/svg" width="1100" height="680" viewBox="0 0 1100 680">
<rect width="100%" height="100%" fill="#ffffff"/>
<text x="46.0" y="42.0" font-family="Arial, Helvetica, sans-serif" font-size="20" font-weight="700" text-anchor="start" fill="#222">First-flush dissolved-particle partitioning sensitivity</text>
<text x="46.0" y="68.0" font-family="Arial, Helvetica, sans-serif" font-size="12" font-weight="400" text-anchor="start" fill="#555">Particle-bound fraction increases with Kd and TSS; this is the key bridge from water chemistry to sediment loading.</text>
<rect x="86" y="116" width="860" height="430" fill="#fbfbfb" stroke="#ddd"/>
<line x1="86" y1="546.0" x2="946" y2="546.0" stroke="#e8e8e8"/>
<text x="76.0" y="550.0" font-family="Arial, Helvetica, sans-serif" font-size="10" font-weight="400" text-anchor="end" fill="#666">0.0</text>
<line x1="86" y1="460.0" x2="946" y2="460.0" stroke="#e8e8e8"/>
<text x="76.0" y="464.0" font-family="Arial, Helvetica, sans-serif" font-size="10" font-weight="400" text-anchor="end" fill="#666">0.2</text>
<line x1="86" y1="374.0" x2="946" y2="374.0" stroke="#e8e8e8"/>
<text x="76.0" y="378.0" font-family="Arial, Helvetica, sans-serif" font-size="10" font-weight="400" text-anchor="end" fill="#666">0.4</text>
<line x1="86" y1="288.0" x2="946" y2="288.0" stroke="#e8e8e8"/>
<text x="76.0" y="292.0" font-family="Arial, Helvetica, sans-serif" font-size="10" font-weight="400" text-anchor="end" fill="#666">0.6</text>
<line x1="86" y1="202.0" x2="946" y2="202.0" stroke="#e8e8e8"/>
<text x="76.0" y="206.0" font-family="Arial, Helvetica, sans-serif" font-size="10" font-weight="400" text-anchor="end" fill="#666">0.8</text>
<line x1="86" y1="116.0" x2="946" y2="116.0" stroke="#e8e8e8"/>
<text x="76.0" y="120.0" font-family="Arial, Helvetica, sans-serif" font-size="10" font-weight="400" text-anchor="end" fill="#666">1.0</text>
<line x1="86.0" y1="116" x2="86.0" y2="546" stroke="#f0f0f0"/>
<text x="86.0" y="564.0" font-family="Arial, Helvetica, sans-serif" font-size="10" font-weight="400" text-anchor="middle" fill="#666">1</text>
<line x1="222.8" y1="116" x2="222.8" y2="546" stroke="#f0f0f0"/>
<text x="222.8" y="564.0" font-family="Arial, Helvetica, sans-serif" font-size="10" font-weight="400" text-anchor="middle" fill="#666">3</text>
<line x1="372.7" y1="116" x2="372.7" y2="546" stroke="#f0f0f0"/>
<text x="372.7" y="564.0" font-family="Arial, Helvetica, sans-serif" font-size="10" font-weight="400" text-anchor="middle" fill="#666">10</text>
<line x1="509.4" y1="116" x2="509.4" y2="546" stroke="#f0f0f0"/>
<text x="509.4" y="564.0" font-family="Arial, Helvetica, sans-serif" font-size="10" font-weight="400" text-anchor="middle" fill="#666">30</text>
<line x1="659.3" y1="116" x2="659.3" y2="546" stroke="#f0f0f0"/>
<text x="659.3" y="564.0" font-family="Arial, Helvetica, sans-serif" font-size="10" font-weight="400" text-anchor="middle" fill="#666">100</text>
<line x1="796.1" y1="116" x2="796.1" y2="546" stroke="#f0f0f0"/>
<text x="796.1" y="564.0" font-family="Arial, Helvetica, sans-serif" font-size="10" font-weight="400" text-anchor="middle" fill="#666">300</text>
<line x1="946.0" y1="116" x2="946.0" y2="546" stroke="#f0f0f0"/>
<text x="946.0" y="564.0" font-family="Arial, Helvetica, sans-serif" font-size="10" font-weight="400" text-anchor="middle" fill="#666">1000</text>
<polyline points="86.0,545.6 94.7,545.5 103.4,545.5 112.1,545.5 120.7,545.4 129.4,545.4 138.1,545.3 146.8,545.3 155.5,545.2 164.2,545.2 172.9,545.1 181.6,545.1 190.2,545.0 198.9,544.9 207.6,544.9 216.3,544.8 225.0,544.7 233.7,544.6 242.4,544.5 251.1,544.4 259.7,544.3 268.4,544.1 277.1,544.0 285.8,543.9 294.5,543.7 303.2,543.6 311.9,543.4 320.5,543.2 329.2,543.0 337.9,542.8 346.6,542.5 355.3,542.3 364.0,542.0 372.7,541.7 381.4,541.4 390.0,541.1 398.7,540.8 407.4,540.4 416.1,540.0 424.8,539.6 433.5,539.1 442.2,538.6 450.8,538.1 459.5,537.5 468.2,536.9 476.9,536.3 485.6,535.6 494.3,534.9 503.0,534.1 511.7,533.3 520.3,532.4 529.0,531.4 537.7,530.4 546.4,529.3 555.1,528.2 563.8,526.9 572.5,525.6 581.2,524.2 589.8,522.7 598.5,521.1 607.2,519.5 615.9,517.7 624.6,515.8 633.3,513.7 642.0,511.6 650.6,509.3 659.3,506.9 668.0,504.4 676.7,501.7 685.4,498.8 694.1,495.8 702.8,492.6 711.5,489.3 720.1,485.7 728.8,482.0 737.5,478.1 746.2,474.1 754.9,469.8 763.6,465.3 772.3,460.6 780.9,455.8 789.6,450.7 798.3,445.4 807.0,439.9 815.7,434.3 824.4,428.4 833.1,422.3 841.8,416.1 850.4,409.7 859.1,403.1 867.8,396.4 876.5,389.5 885.2,382.5 893.9,375.4 902.6,368.1 911.3,360.8 919.9,353.4 928.6,346.0 937.3,338.5 946.0,331.0" fill="none" stroke="#377eb8" stroke-width="2.4" stroke-linejoin="round" stroke-linecap="round"/>
<text x="954.0" y="335.0" font-family="Arial, Helvetica, sans-serif" font-size="11" font-weight="400" text-anchor="start" fill="#377eb8">Kd=1 m3/kg</text>
<polyline points="86.0,541.7 94.7,541.4 103.4,541.1 112.1,540.8 120.7,540.4 129.4,540.0 138.1,539.6 146.8,539.1 155.5,538.6 164.2,538.1 172.9,537.5 181.6,536.9 190.2,536.3 198.9,535.6 207.6,534.9 216.3,534.1 225.0,533.3 233.7,532.4 242.4,531.4 251.1,530.4 259.7,529.3 268.4,528.2 277.1,526.9 285.8,525.6 294.5,524.2 303.2,522.7 311.9,521.1 320.5,519.5 329.2,517.7 337.9,515.8 346.6,513.7 355.3,511.6 364.0,509.3 372.7,506.9 381.4,504.4 390.0,501.7 398.7,498.8 407.4,495.8 416.1,492.6 424.8,489.3 433.5,485.7 442.2,482.0 450.8,478.1 459.5,474.1 468.2,469.8 476.9,465.3 485.6,460.6 494.3,455.8 503.0,450.7 511.7,445.4 520.3,439.9 529.0,434.3 537.7,428.4 546.4,422.3 555.1,416.1 563.8,409.7 572.5,403.1 581.2,396.4 589.8,389.5 598.5,382.5 607.2,375.4 615.9,368.1 624.6,360.8 633.3,353.4 642.0,346.0 650.6,338.5 659.3,331.0 668.0,323.5 676.7,316.0 685.4,308.6 694.1,301.2 702.8,293.9 711.5,286.6 720.1,279.5 728.8,272.5 737.5,265.6 746.2,258.9 754.9,252.3 763.6,245.9 772.3,239.7 780.9,233.6 789.6,227.7 798.3,222.1 807.0,216.6 815.7,211.3 824.4,206.2 833.1,201.4 841.8,196.7 850.4,192.2 859.1,187.9 867.8,183.9 876.5,180.0 885.2,176.3 893.9,172.7 902.6,169.4 911.3,166.2 919.9,163.2 928.6,160.3 937.3,157.6 946.0,155.1" fill="none" stroke="#4daf4a" stroke-width="2.4" stroke-linejoin="round" stroke-linecap="round"/>
<text x="954.0" y="159.1" font-family="Arial, Helvetica, sans-serif" font-size="11" font-weight="400" text-anchor="start" fill="#4daf4a">Kd=10</text>
<polyline points="86.0,506.9 94.7,504.4 103.4,501.7 112.1,498.8 120.7,495.8 129.4,492.6 138.1,489.3 146.8,485.7 155.5,482.0 164.2,478.1 172.9,474.1 181.6,469.8 190.2,465.3 198.9,460.6 207.6,455.8 216.3,450.7 225.0,445.4 233.7,439.9 242.4,434.3 251.1,428.4 259.7,422.3 268.4,416.1 277.1,409.7 285.8,403.1 294.5,396.4 303.2,389.5 311.9,382.5 320.5,375.4 329.2,368.1 337.9,360.8 346.6,353.4 355.3,346.0 364.0,338.5 372.7,331.0 381.4,323.5 390.0,316.0 398.7,308.6 407.4,301.2 416.1,293.9 424.8,286.6 433.5,279.5 442.2,272.5 450.8,265.6 459.5,258.9 468.2,252.3 476.9,245.9 485.6,239.7 494.3,233.6 503.0,227.7 511.7,222.1 520.3,216.6 529.0,211.3 537.7,206.2 546.4,201.4 555.1,196.7 563.8,192.2 572.5,187.9 581.2,183.9 589.8,180.0 598.5,176.3 607.2,172.7 615.9,169.4 624.6,166.2 633.3,163.2 642.0,160.3 650.6,157.6 659.3,155.1 668.0,152.7 676.7,150.4 685.4,148.3 694.1,146.2 702.8,144.3 711.5,142.5 720.1,140.9 728.8,139.3 737.5,137.8 746.2,136.4 754.9,135.1 763.6,133.8 772.3,132.7 780.9,131.6 789.6,130.6 798.3,129.6 807.0,128.7 815.7,127.9 824.4,127.1 833.1,126.4 841.8,125.7 850.4,125.1 859.1,124.5 867.8,123.9 876.5,123.4 885.2,122.9 893.9,122.4 902.6,122.0 911.3,121.6 919.9,121.2 928.6,120.9 937.3,120.6 946.0,120.3" fill="none" stroke="#984ea3" stroke-width="2.4" stroke-linejoin="round" stroke-linecap="round"/>
<text x="954.0" y="124.3" font-family="Arial, Helvetica, sans-serif" font-size="11" font-weight="400" text-anchor="start" fill="#984ea3">Kd=100</text>
<polyline points="86.0,331.0 94.7,323.5 103.4,316.0 112.1,308.6 120.7,301.2 129.4,293.9 138.1,286.6 146.8,279.5 155.5,272.5 164.2,265.6 172.9,258.9 181.6,252.3 190.2,245.9 198.9,239.7 207.6,233.6 216.3,227.7 225.0,222.1 233.7,216.6 242.4,211.3 251.1,206.2 259.7,201.4 268.4,196.7 277.1,192.2 285.8,187.9 294.5,183.9 303.2,180.0 311.9,176.3 320.5,172.7 329.2,169.4 337.9,166.2 346.6,163.2 355.3,160.3 364.0,157.6 372.7,155.1 381.4,152.7 390.0,150.4 398.7,148.3 407.4,146.2 416.1,144.3 424.8,142.5 433.5,140.9 442.2,139.3 450.8,137.8 459.5,136.4 468.2,135.1 476.9,133.8 485.6,132.7 494.3,131.6 503.0,130.6 511.7,129.6 520.3,128.7 529.0,127.9 537.7,127.1 546.4,126.4 555.1,125.7 563.8,125.1 572.5,124.5 581.2,123.9 589.8,123.4 598.5,122.9 607.2,122.4 615.9,122.0 624.6,121.6 633.3,121.2 642.0,120.9 650.6,120.6 659.3,120.3 668.0,120.0 676.7,119.7 685.4,119.5 694.1,119.2 702.8,119.0 711.5,118.8 720.1,118.6 728.8,118.4 737.5,118.3 746.2,118.1 754.9,118.0 763.6,117.9 772.3,117.7 780.9,117.6 789.6,117.5 798.3,117.4 807.0,117.3 815.7,117.2 824.4,117.1 833.1,117.1 841.8,117.0 850.4,116.9 859.1,116.9 867.8,116.8 876.5,116.8 885.2,116.7 893.9,116.7 902.6,116.6 911.3,116.6 919.9,116.5 928.6,116.5 937.3,116.5 946.0,116.4" fill="none" stroke="#e41a1c" stroke-width="2.4" stroke-linejoin="round" stroke-linecap="round"/>
<text x="954.0" y="120.4" font-family="Arial, Helvetica, sans-serif" font-size="11" font-weight="400" text-anchor="start" fill="#e41a1c">Kd=1000</text>
<text x="516.0" y="594.0" font-family="Arial, Helvetica, sans-serif" font-size="13" font-weight="400" text-anchor="middle" fill="#222">TSS during first flush (mg/L, log scale)</text>
<text x="24.0" y="331.0" font-family="Arial, Helvetica, sans-serif" font-size="13" font-weight="400" text-anchor="middle" fill="#222">Particle-bound fraction</text>
<rect x="820" y="118" width="220" height="118" rx="8" fill="#fff" stroke="#ddd"/>
<text x="838.0" y="146.0" font-family="Arial, Helvetica, sans-serif" font-size="13" font-weight="700" text-anchor="start" fill="#222">U</text>
<text x="890.0" y="146.0" font-family="Arial, Helvetica, sans-serif" font-size="12" font-weight="400" text-anchor="start" fill="#444">carbonate/DOC-sensitive</text>
<text x="838.0" y="176.0" font-family="Arial, Helvetica, sans-serif" font-size="13" font-weight="700" text-anchor="start" fill="#222">Ra</text>
<text x="890.0" y="176.0" font-family="Arial, Helvetica, sans-serif" font-size="12" font-weight="400" text-anchor="start" fill="#444">sulfate/Ba/Sr-sensitive</text>
<text x="838.0" y="206.0" font-family="Arial, Helvetica, sans-serif" font-size="13" font-weight="700" text-anchor="start" fill="#222">Pb-Po-Th</text>
<text x="890.0" y="206.0" font-family="Arial, Helvetica, sans-serif" font-size="12" font-weight="400" text-anchor="start" fill="#444">particle/sediment-sensitive</text>
</svg>